<?xml version="1.0" encoding="utf-8"?>
<!-- Generator: Adobe Illustrator 25.1.0, SVG Export Plug-In . SVG Version: 6.00 Build 0)  -->
<svg version="1.1" id="Capa_1" xmlns="http://www.w3.org/2000/svg" xmlns:xlink="http://www.w3.org/1999/xlink" x="0px" y="0px"
	 viewBox="0 0 106.5 106.5" style="enable-background:new 0 0 106.5 106.5;" xml:space="preserve">
<style type="text/css">
	.st0{fill:#171517;}
</style>
<g>
	<path class="st0" d="M32.6,61.1l-0.2,0c-0.2-0.1-0.4-0.2-0.6-0.3c-0.2,0-0.5-0.1-0.9-0.3c-0.1,0-0.1-0.1-0.2-0.2l-0.1,0
		c0,0,0,0-0.1,0c0,0.1-0.1,0.2-0.1,0.2c-0.1,0.2-0.3,2.3-0.3,2.8c0,0.3,0,0.7,0,1c0.1,0.6,0.4,1.3,0.6,1.3l0.1,0c0,0,0.1,0,0.1,0
		c0.1,0,0.2-0.1,0.4,0c0.1-0.2,0.2-0.4,0.4-0.4c0,0,0.1-0.1,0.2-0.2c0.2-0.2,0.3-0.4,0.5-0.5c0,0,0,0,0,0c0-0.3,0.1-0.5,0.2-0.6
		c0-0.2,0-0.4,0.3-0.6h0c0-0.1,0.1-0.2,0.2-0.4c0,0,0,0,0,0c0-0.1-0.1-0.2-0.1-0.3V62l0.3-0.1c0,0,0.1-0.1,0.1-0.1c0,0,0,0,0,0
		c0,0,0-0.1,0-0.1c0-0.1,0-0.2,0-0.3c-0.4,0-0.7-0.1-1-0.2C32.8,61.1,32.6,61.1,32.6,61.1z"/>
	<path class="st0" d="M21.8,51.4L21.8,51.4C21.8,51.4,21.8,51.3,21.8,51.4C21.8,51.3,21.8,51.4,21.8,51.4z"/>
	<path class="st0" d="M32.2,51.4c-0.1,0-0.2,0-0.2,0.1c0,0,0,0.1-0.1,0.1C32,51.5,32.1,51.5,32.2,51.4L32.2,51.4z"/>
	<path class="st0" d="M28.3,67.6C28.3,67.6,28.3,67.6,28.3,67.6L28.3,67.6L28.3,67.6z"/>
	<path class="st0" d="M21.6,65.4l-0.2-0.1c0,0,0,0,0,0c0,0.1-0.1,0.1-0.1,0.2L21.6,65.4L21.6,65.4L21.6,65.4z"/>
	<path class="st0" d="M21.4,65.9L21.4,65.9L21.4,65.9C21.4,65.9,21.4,65.9,21.4,65.9C21.4,65.9,21.4,65.9,21.4,65.9z"/>
	<path class="st0" d="M34.3,57.3c0-0.1,0-0.1,0-0.2c0,0,0-0.1,0-0.1c0-0.1-0.1-0.2-0.1-0.2h-0.1l-0.2-0.9l0.1,0c0,0,0-0.1-0.1-0.1
		c-0.1-0.2-0.1-0.3-0.1-0.4c-0.1-0.1-0.2-0.3-0.2-0.5c-0.1-0.1-0.2-0.2-0.3-0.3c-0.2-0.1-0.3-0.2-0.4-0.3c0,0-0.1,0-0.1,0
		c0,0,0,0,0,0c0,0,0,0,0,0.1c0,0,0,0.1,0,0.1l-0.1,0.5l-0.1,0c-0.1,0.1-0.1,0.2-0.2,0.3c0,0.2-0.1,0.4-0.2,0.5c0,0.1,0,0.1-0.1,0.2
		c0,0.1,0,0.3,0,0.3c0,0.1-0.1,0.2-0.1,0.3v0.7c0.1,0.1,0.2,0.1,0.2,0.2c0.1,0.1,0.2,0.1,0.3,0.2l0,0h0.3l0,0.1h0.3l0,0.3
		c0.1,0,0.2,0,0.3,0.1c0.3,0.1,0.5,0.2,0.7,0.3c0.1,0,0.3,0,0.4,0.1c0-0.1,0-0.1,0-0.2c-0.1-0.1-0.1-0.2-0.1-0.3
		c0-0.2,0.1-0.3,0.2-0.4c0,0,0,0,0,0C34.3,57.5,34.3,57.4,34.3,57.3z"/>
	<path class="st0" d="M50.3,57.5l0.1,0.2c0,0.1,0,0.1,0,0.2l0.2-0.1c0,0,0.1,0,0.1,0l0,0c0.1-0.3,0.2-0.5,0.2-0.5l0.2-0.3L51,56.8
		c0,0,0,0-0.1,0.1c0,0-0.1,0.1-0.1,0.1c0,0.4-0.4,0.6-0.5,0.6L50.3,57.5z"/>
	<path class="st0" d="M51.8,55.6C51.8,55.7,51.8,55.7,51.8,55.6L51.8,55.6C51.8,55.7,51.8,55.7,51.8,55.6L51.8,55.6z"/>
	<path class="st0" d="M51.7,56.1c0,0,0-0.1,0-0.1c0,0,0-0.1,0-0.1l-0.2,0c0,0,0,0-0.1,0c-0.1,0.1-0.2,0.2-0.2,0.3
		c0,0.2,0,0.3-0.1,0.4l0.2-0.1C51.4,56.4,51.5,56.3,51.7,56.1z"/>
	<path class="st0" d="M21.3,65.9L21.3,65.9c0-0.1,0-0.1,0-0.1C21.3,65.8,21.3,65.8,21.3,65.9z"/>
	<path class="st0" d="M41.8,58.9c0,0,0,0.1,0,0.1c0,0.2,0,0.4,0,0.5c0,0,0,0,0,0c0-0.1,0-0.1,0-0.2L41.8,58.9z"/>
	<path class="st0" d="M52.2,59.5c0,0,0,0.1-0.1,0.1C52.2,59.6,52.2,59.6,52.2,59.5C52.2,59.5,52.2,59.5,52.2,59.5z"/>
	<polygon class="st0" points="10.7,39.5 10.7,39.5 10.7,39.5 	"/>
	<polygon class="st0" points="10.5,39.5 10.5,39.4 10.8,39.5 10.8,39.5 10.8,39.5 10.3,39.4 	"/>
	<path class="st0" d="M10.3,39.4C10.3,39.4,10.3,39.4,10.3,39.4L10.3,39.4C10.3,39.4,10.3,39.4,10.3,39.4z"/>
	<path class="st0" d="M8.8,59.5C8.8,59.5,8.8,59.5,8.8,59.5C8.8,59.5,8.8,59.5,8.8,59.5C8.8,59.5,8.8,59.5,8.8,59.5z"/>
	<path class="st0" d="M8.9,49.5C8.9,49.5,8.9,49.5,8.9,49.5C8.9,49.5,8.9,49.5,8.9,49.5C8.9,49.5,8.9,49.5,8.9,49.5z"/>
	<path class="st0" d="M11.8,37.4C11.8,37.4,11.8,37.4,11.8,37.4c0-0.1,0.1-0.1,0.1-0.1l0,0l-0.1-0.2C11.8,37.1,11.8,37.3,11.8,37.4z
		"/>
	<path class="st0" d="M12.1,46.4C12.1,46.4,12.2,46.4,12.1,46.4L12.1,46.4C12.2,46.4,12.2,46.4,12.1,46.4L12.1,46.4z"/>
	<path class="st0" d="M14.6,56.7c0.1,0,0.1,0,0.2,0v-0.2L14.6,56.7L14.6,56.7z"/>
	<path class="st0" d="M14.6,56.5h0.2c0,0,0,0,0-0.1C14.7,56.5,14.6,56.5,14.6,56.5z"/>
	<polygon class="st0" points="15.1,59.6 15.1,59.6 15.1,59.6 	"/>
	<polygon class="st0" points="21.6,57.7 21.6,57.7 21.6,57.7 	"/>
	<polygon class="st0" points="13.1,50 13.1,50 13.1,50 	"/>
	<path class="st0" d="M14.5,40.6C14.5,40.6,14.5,40.6,14.5,40.6L14.5,40.6C14.5,40.6,14.5,40.6,14.5,40.6z"/>
	<path class="st0" d="M56,56.1C56,56.1,56,56.1,56,56.1C56,56.1,56,56,56.1,56L56,55.9C56,56,56,56.1,56,56.1z"/>
	<path class="st0" d="M75.2,60.8C75.2,60.8,75.2,60.8,75.2,60.8L75.2,60.8C75.1,60.8,75.1,60.8,75.2,60.8z"/>
	<path class="st0" d="M75,55c-0.1,0-0.3,0-0.4,0c-0.1,0.1-0.2,0.2-0.4,0.2c0,0.1-0.1,0.2-0.1,0.3c-0.1,0.1-0.2,0.3-0.2,0.3
		c0,0,0,0.1,0,0.1l-0.1,0.5l-0.1,0c0,0.1-0.1,0.2-0.2,0.3l-0.1,0.1c0,0-0.1,0.2-0.2,0.4c-0.1,0.2-0.1,0.4-0.3,0.5
		c0,0.2-0.1,0.4-0.3,0.6c0,0.3-0.1,0.6-0.2,0.8l-0.1,0.2c0,0,0,0,0,0c0,0-0.1,0.2-0.1,0.5c-0.2,0.4-0.3,0.9-0.3,1l0,0.1
		c0,0.1-0.1,0.3-0.1,0.3l0,0.2c0,0,0,0.1,0,0.2c0,0.2-0.1,0.4-0.2,0.5c-0.1,0.2-0.1,0.6-0.2,0.9l0.2-0.3c0-0.1,0-0.2,0.1-0.3
		c0,0,0-0.1,0.1-0.1v-0.2l0.3-0.3c0-0.2,0.1-0.3,0.2-0.5l0.1-0.2c0,0,0.1-0.1,0.1-0.1v-0.4l0.1,0l0.1-0.6l0.3,0.3c0,0,0,0,0,0
		c0-0.1,0-0.3,0-0.4l0-0.1c0-0.1,0.1-0.1,0.1-0.1v-0.1l0.1-0.1c0-0.1,0.1-0.2,0.1-0.2c0.1-0.1,0.1-0.2,0.2-0.3
		c0-0.1,0.1-0.1,0.1-0.2c0-0.1,0.1-0.2,0.1-0.3c0-0.1,0-0.2,0-0.2v0c0-0.1,0-0.2,0.1-0.5l0-0.1l0.3-0.6c0-0.1,0.1-0.3,0.2-0.4
		c0.1-0.1,0.1-0.2,0.2-0.3l0,0c0-0.3,0.1-0.5,0.3-0.6l-0.1-0.2L75,55C75,55,75,55,75,55L75,55z"/>
	<path class="st0" d="M82.7,56.1C82.7,56.1,82.7,56.1,82.7,56.1c0.1-0.1,0.1-0.1,0.1-0.1l-0.1-0.1C82.7,56,82.7,56.1,82.7,56.1z"/>
	<path class="st0" d="M74.7,61.9C74.7,61.9,74.7,61.9,74.7,61.9L74.7,61.9C74.7,61.9,74.7,61.9,74.7,61.9z"/>
	<polygon class="st0" points="73.4,65.2 73.4,65.2 73.4,65.2 	"/>
	<path class="st0" d="M83.1,63.8C83.1,63.8,83.1,63.8,83.1,63.8c0.1,0,0.1,0,0.1,0L83.1,63.8C83.1,63.8,83.1,63.8,83.1,63.8z"/>
	<path class="st0" d="M83.2,63.8C83.2,63.8,83.3,63.8,83.2,63.8L83.2,63.8L83.2,63.8z"/>
	<path class="st0" d="M95.5,33.9v-0.3c-0.1-0.1-0.2-0.2-0.2-0.3c-0.1,0-0.1,0-0.2,0.1c-0.1,0.1-0.2,0.3-0.3,0.3c0,0-0.1,0.1-0.1,0.1
		c0,0.2-0.1,0.4-0.3,0.6c0,0.1-0.1,0.2-0.2,0.2l0,0c0,0.2-0.1,0.3-0.2,0.4c0,0.1,0,0.2-0.1,0.3l0,0.1c0,0.1-0.1,0.2-0.2,0.3l0,0.2
		l-0.1,0.5l-0.2,0c0,0,0,0,0,0l-0.1,0.1c0,0.2-0.1,0.3-0.2,0.4l-0.1,0.3c0,0,0,0,0,0c0,0,0,0.1,0,0.1c0,0.4-0.3,0.9-0.3,0.9
		l-0.1,0.1c0,0.3-0.1,1-0.3,1.2l0,0.1c-0.1,0.2-0.1,0.4-0.2,0.5c0,0-0.1,0.4-0.1,0.7c0,0.1-0.1,0.3-0.1,0.4c0,0.2,0,0.4,0,0.6
		c0,0.3,0,0.7-0.2,1c0,0.1,0,0.2,0,0.3l-0.1,0.5c0,0.1,0,0.1,0,0.2c0,0.2,0,0.4,0,0.7c0,0.3,0,0.7,0,1.1c-0.1,0.7-0.1,2.9-0.1,4.4
		c0.1-0.2,0.2-0.4,0.3-0.5l0.2-0.5l-0.1-0.2l0.3-0.2c0-0.1,0.1-0.2,0.1-0.3l0-0.1c0.1-0.3,0.1-0.5,0.2-0.6V47l0.2,0v-0.2l0.1,0
		l0.2-0.6c0-0.1,0.1-0.1,0.1-0.2l0-0.1c0-0.2,0.1-0.3,0.1-0.4c0,0,0-0.1,0.1-0.1V45l0.2,0l0.1-0.3c0,0,0,0,0,0v-0.2l0.1-0.1
		c0,0,0-0.1,0-0.1l-0.1-0.2l0.2-0.2c0-0.2,0-0.3,0.1-0.4l0.1-0.2c0-0.1,0-0.2,0.1-0.3c0-0.2,0-0.4,0.1-0.5l0-0.2
		c0-0.1,0-0.2,0.2-0.4c0-0.1,0-0.2,0-0.2l0.1-0.4l0.1-0.1l0-0.3c0,0,0-0.1,0-0.1l-0.1-0.2l0.2-0.2c0,0,0-0.1,0-0.1
		c0-0.2,0.1-0.4,0.1-0.6c0.1-0.1,0.1-0.2,0.1-0.3l0.1-0.3c0,0,0-0.1,0-0.1c0-0.1,0-0.3,0-0.4c0-0.4,0-0.7,0.1-0.9c0-0.2,0-0.3,0-0.4
		l0.1-0.2l-0.2-0.1l0-0.5l0.1-0.4c0-0.1,0-0.2,0.1-0.4l0,0c0,0,0-0.1,0-0.1l0,0v-0.2c0,0,0-0.1,0-0.1c-0.1-0.1-0.1-0.3,0-0.4l0,0
		l0.1-0.3C95.6,34.2,95.5,34.1,95.5,33.9z"/>
	<path class="st0" d="M74.4,52.3C74.4,52.4,74.4,52.4,74.4,52.3C74.4,52.4,74.4,52.4,74.4,52.3L74.4,52.3z"/>
	<path class="st0" d="M53.2,0C23.8,0,0,23.8,0,53.2c0,29.4,23.8,53.2,53.2,53.2s53.2-23.8,53.2-53.2C106.5,23.8,82.7,0,53.2,0z
		 M24.9,49.2c0,0.1,0,0.2-0.1,0.3c0.1,0.7,0,2.2,0,2.4l-0.1,0c0,0,0,0.1,0,0.1c0.2,1.4,0.1,6.1-0.1,7.5h0.1c0.1,0.3,0.1,0.8,0,0.9
		c0,0.1-0.1,0.5-0.1,0.9l0,0.3c0,0.9-0.1,1.2-0.1,1.2l-0.1,0.5c0,0.3,0,0.9-0.1,1.3l0,0.8l-0.1,0c0,0.1-0.1,0.3-0.2,0.3
		c0,0.1,0,0.3,0,0.6c0,0.2,0,0.4-0.1,0.6h0l-0.2,0.7c0,0,0,0.2-0.1,0.4l0.1,0.4c0,0.1,0,0.3-0.2,0.5c0,0,0,0.1-0.1,0.1
		c0,0.3-0.2,0.6-0.3,0.6l0,0c-0.1,0.3-0.3,0.5-0.5,0.6l0,0l-0.1,0.1c-0.1,0.2-0.3,0.3-0.4,0.4l-0.4,0.2l-0.1-0.1c0,0-0.1,0-0.1,0
		c-0.5,0.1-0.9,0.1-1.1,0l-0.2,0.2L20,71c-0.2-0.1-0.3-0.2-0.4-0.4l0,0c0,0-0.1-0.1-0.1-0.2c0,0-0.1-0.1-0.1-0.1c0,0,0,0,0,0l-0.1,0
		l-0.1-0.2c-0.1-0.1-0.3-0.3-0.3-0.6c-0.2-0.2-0.5-0.6-0.6-1l-0.1-0.1c-0.1-0.1-0.1-0.2-0.1-0.4c-0.1-0.1-0.1-0.2-0.1-0.3
		c-0.1,0-0.1-0.1-0.2-0.2l-0.2-0.2l0-0.1c0-0.1-0.1-0.2-0.1-0.2c-0.1-0.1-0.2-0.2-0.3-0.3l-0.2-0.4l0-0.1c0-0.1,0-0.2,0-0.2
		c0,0,0-0.2-0.1-0.3l-0.2-0.2l-0.4-0.4l0.1-0.1c0-0.1,0-0.1,0-0.2c0-0.1,0-0.2,0-0.2c0-0.1,0-0.1,0-0.2c0-0.1-0.1-0.2-0.1-0.3
		c-0.1-0.1-0.2-0.2-0.2-0.3c-0.1-0.1-0.3-0.4-0.3-0.8c-0.1-0.1-0.2-0.3-0.2-0.4c-0.1-0.2-0.1-0.4-0.1-0.6c0,0,0-0.1,0-0.1
		c0,0-0.1-0.1-0.1-0.1c-0.2-0.1-0.3-0.3-0.4-0.5c0-0.1,0-0.2,0-0.2c0,0,0-0.1,0-0.1c0-0.1-0.1-0.1-0.1-0.2c-0.1-0.1-0.1-0.3-0.1-0.4
		C15,60,15,59.8,15.1,59.7c-0.1-0.1-0.2-0.2-0.2-0.4l0,0l-0.1-0.4c0-0.1,0-0.1,0-0.2c0,0,0-0.1-0.1-0.1c-0.1-0.2-0.2-0.4-0.1-0.5
		c0-0.1,0-0.3,0-0.4l0,0c-0.1-0.1-0.1-0.2-0.1-0.3c-0.1-0.1-0.2-0.3-0.2-0.5c0-0.1,0-0.2,0-0.3c0,0,0-0.1,0-0.1l-0.3-0.3L14,56
		c0-0.1-0.1-0.2-0.1-0.3l-0.2-0.5l0.1-0.1v-0.3c-0.1-0.1-0.2-0.3-0.2-0.5c0,0,0,0,0-0.1l-0.1-0.2l0,0l0,0c-0.1-0.1-0.1-0.3-0.1-0.4
		l-0.1,0l0-0.4c-0.1-0.2-0.1-0.6,0-0.7l0-0.1c0,0,0,0,0,0c0,0-0.1-0.1-0.1-0.1c0,0,0,0,0,0h0L13,51.8c0,0-0.1-0.1-0.1-0.3
		c0-0.2,0-0.4,0-0.6l-0.1-0.2c0-0.1-0.1-0.2-0.1-0.2h-0.1v-0.6l-0.1-0.3c0-0.1-0.1-0.2-0.1-0.3l-0.2-0.2l0.2-0.2l0-0.1
		c-0.1-0.1-0.1-0.2-0.1-0.2c0-0.1-0.1-0.1-0.1-0.2l0,0l0-0.5c0-0.1,0-0.1,0-0.2l-0.2-0.4l0.1-0.1c-0.1-0.2-0.1-0.5-0.1-0.6l0-0.1
		c0,0.5,0,0.9-0.1,1.2l0,0l0,0.5l-0.1,0.5c0,0.3,0,1.3,0,2.3c-0.1,1.9-0.1,7.5,0,8.4l0,0v0.2c0,0.1,0,0.2-0.1,0.3
		c0,0.3,0.1,0.8,0.1,1.5c0,0.9,0,2.2,0.1,2.8c0.1,3.4,0.1,4,0,4.3c0,0.1,0,0.1,0,0.2c-0.1,0.4-0.4,0.6-0.7,0.6c0,0-0.1,0-0.2,0
		l-0.1,0c-0.2,0-0.7,0-0.8-0.6c0,0,0,0,0-0.1l0,0l-0.1-0.1c-0.1-0.1-0.5-0.7-0.3-1.1l0,0l0-0.2l-0.1-0.1c-0.1-0.2-0.1-0.4-0.1-0.6
		c-0.2-0.3-0.2-0.6-0.1-0.7c0,0,0,0,0-0.1h0L9,64.9l0.1,0c0-0.1,0-0.1,0-0.2l-0.1-0.1L9,64.4c0-0.1,0-0.1,0.1-0.2
		C9,64.1,8.9,63.9,9,63.7c-0.1-0.1-0.1-0.2-0.1-0.4c0,0,0,0,0,0c-0.1-0.1-0.1-0.2-0.1-0.3l-0.2-0.3l0.3-0.3c0,0,0-0.1,0-0.1
		c-0.1-0.1-0.2-0.3-0.2-0.6c0-0.1,0-0.2,0-0.2c0-0.1,0-0.2,0-0.2l0-0.3l-0.1-0.1l0.1-0.4c-0.2-0.2-0.2-0.5-0.1-0.7l0.1-0.2
		c-0.1-0.1-0.1-0.3-0.1-0.5c0-0.1,0-0.3,0-0.4c0-0.2,0-0.4,0-0.5c0-0.1,0-0.2,0.1-0.3c0-0.1,0-0.3,0-0.4c-0.1-0.1-0.1-0.2-0.1-0.4
		V57l0.1-0.1c-0.1-0.2-0.1-0.4-0.1-0.4l0-0.6c0-0.2,0-0.3,0.1-0.4c0-0.1,0-0.1,0-0.2c0-0.1,0-0.2,0-0.2l-0.1-0.1l0-0.1
		c0,0,0-0.1,0-0.1l0-0.1l0.1-0.1c0-0.1,0-0.1,0-0.2l0-0.3c-0.1-0.1-0.1-0.3-0.1-0.5l-0.4-0.4L8.7,53c0,0,0-0.1,0-0.1
		c-0.1-0.2-0.1-0.4,0-0.6l-0.1,0l0-0.4c0-0.2,0.1-0.4,0.2-0.5c0-0.1,0-0.2,0.1-0.4c0-0.1,0-0.2,0-0.4c0-0.1,0-0.1,0-0.2c0,0,0,0,0,0
		c-0.2-0.3-0.1-0.5-0.1-0.7l-0.1-0.3l0.2-0.2c-0.1-0.2,0-0.4,0-0.5c0-0.1,0-0.2,0-0.4l0-0.2c0-0.1,0-0.1,0-0.2c0-0.1,0-0.2,0-0.3
		l0-0.1l0,0l0.2-0.4c0,0,0,0,0,0c0,0,0,0,0,0c0,0,0,0,0,0C9,47,8.8,46.6,9.2,46.2c0-0.2,0-0.5,0.1-0.6c-0.1-0.1-0.1-0.4,0.1-0.7
		c0-0.1,0-0.2,0-0.4c0-0.1,0-0.2,0-0.3c0-0.2,0-0.3,0.1-0.4c0-0.1,0-0.2,0.1-0.4c0-0.1-0.1-0.3-0.1-0.4l0,0L9.5,43l0-0.4
		c0-0.1,0.1-0.3,0.2-0.4c0-0.2,0-0.4,0.1-0.5l0-0.1l-0.1,0l0-0.6l0,0l-0.2-0.2l0.5-0.6c0-0.1,0-0.2,0.1-0.3c0-0.1,0-0.2,0.1-0.4
		c0-0.2,0-0.4,0.1-0.6l0-0.1c0,0,0-0.1,0-0.2c0.1-0.3,0.3-0.6,0.8-0.6c0,0,0.1-0.1,0.1-0.1c0-0.1,0.1-0.2,0.1-0.2l0,0
		c0-0.4,0.4-0.8,0.6-0.9l0.4-0.2l0.1,0.1h0.2l0,0.1c0,0,0,0,0,0c0.1,0,0.2,0,0.3,0.1h0.1l0,0.1c0.1,0.1,0.2,0.2,0.3,0.4l0.1,0.1
		c0.1,0.1,0.3,0.3,0.3,0.6c0.1,0.1,0.1,0.2,0.2,0.4c0,0.1,0.1,0.2,0.2,0.4c0.3,0.9,0.4,1.4,0.4,1.7c0.1,0.1,0.1,0.3,0.2,0.5
		c0,0.1,0.1,0.3,0.1,0.5c0.1,0.5,0.2,0.9,0.2,1c0.1,0.2,0.1,0.4,0.1,0.5c0,0.1,0.1,0.3,0.1,0.5c0,0,0.2,0.6,0.2,0.9
		c0.3,0.9,0.5,1.8,0.5,2.4c0.1,0.1,0.1,0.3,0.1,0.5c0,0,0,0,0,0l0.1,0.4c0.1,0.3,0.2,0.8,0.3,1c0,0.1,0.1,0.2,0.1,0.4
		c0,0.1,0.1,0.3,0.1,0.5c0.1,0.4,0.1,0.8,0.2,1c0.1,0.1,0.1,0.3,0.1,0.5c0.1,0.2,0.1,0.3,0.1,0.5l0,0.1c0,0.1,0.1,0.3,0.1,0.4
		l0.1,0.2c0.1,0.4,0.2,0.6,0.2,0.9c0,0.1,0,0.2,0.1,0.3c0.1,0.2,0.2,0.5,0.2,0.8c0,0,0,0.1,0.1,0.2l0,0c0.1,0.2,0.3,0.8,0.3,1.3
		c0.1,0.5,0.3,1.2,0.4,1.6c0.1,0.3,0.2,0.7,0.3,1c0,0,0,0.1,0,0.1l0,0c0.1,0.2,0.7,2.3,0.8,3c0,0.1,0.1,0.2,0.1,0.3
		c0,0.1,0.1,0.2,0.1,0.3c0.1,0.3,0.1,0.5,0.1,0.7c0.1,0.1,0.2,0.3,0.3,0.6c0.1,0.3,0.1,0.6,0.2,0.8c0.1,0.3,0.2,0.7,0.3,0.9l0,0.2
		c0,0,0,0.1,0,0.1c0.1,0.1,0.3,0.6,0.4,1l0.1,0l0-0.2l0.1-0.1c0-0.1,0-0.2,0.1-0.4c0-0.1-0.1-0.2-0.1-0.2c-0.1-0.2,0-0.5,0.1-0.7
		c0-0.1,0-0.1,0-0.2c0-0.1,0-0.2,0-0.3l0-0.3c0-0.1,0-0.2,0-0.3l-0.1-0.1l0-0.5l0.1-0.5l0.1,0l0.1-0.2c0,0,0-0.1,0-0.1
		c-0.1-0.1-0.2-0.2-0.2-0.3l-0.1-0.1l0-1.1c0-0.2,0-0.3,0.1-0.4c0,0,0-0.1,0-0.1c0-0.1,0-0.2,0-0.3c0-0.1,0-0.2,0.1-0.4
		c0-0.3,0-0.6,0-0.7l0-0.3c-0.1-0.2-0.1-0.5,0-0.7c0,0,0.1-0.1,0.1-0.1c0,0,0-0.1,0-0.1c-0.1-0.2,0-0.4,0-0.5
		c-0.1-0.2-0.1-0.4,0-0.6c0-0.1,0-0.2,0.1-0.3c-0.1-0.2,0-0.3,0-0.4c0-0.2,0-0.5,0.1-0.7c0-0.1,0-0.2,0-0.4c0-0.1-0.1-0.2-0.1-0.3
		c-0.1-0.1-0.1-0.3-0.1-0.5c0-0.1,0-0.2,0.1-0.2c0,0,0-0.1,0-0.1c0-0.1,0-0.2,0-0.2c-0.1-0.2-0.1-0.5,0-0.6c0-0.1,0-0.2,0.1-0.3l0,0
		c0-0.1,0-0.2,0-0.2l0,0l0.2-0.4l-0.2-0.1l0-0.4c0-0.2,0-0.3,0.1-0.4c0-0.1,0-0.2,0-0.3l-0.2-0.1l0-0.4c0-0.2,0.1-0.3,0.2-0.5
		c0,0,0,0,0-0.1c-0.2-0.3-0.2-0.6-0.1-0.8l-0.1-0.2l0.3-0.3c-0.2-0.2-0.2-0.5-0.2-0.8l0-0.1c0,0,0,0,0,0c0-0.1,0-0.2,0.1-0.3
		l0.1-0.2L21.8,47l-0.2-0.4l0.1-0.1v-0.2c-0.2-0.2-0.2-0.5-0.1-0.8c0,0,0-0.1,0-0.1c0-0.1-0.1-0.2-0.1-0.3c0-0.1,0-0.3,0.1-0.4
		l-0.3-0.2l0.3-0.5l-0.2-0.7l0.1-0.1c0-0.1,0.1-0.2,0.1-0.2c0,0,0-0.1,0-0.1c0-0.1-0.1-0.3-0.1-0.5l-0.1,0l0.1-0.6l-0.2-0.2l0.3-0.7
		c-0.1-0.4,0-0.9,0-0.9c0-0.1,0-0.2,0.1-0.3c0-0.2,0-0.3,0-0.4c0-0.2,0-0.3,0-0.4c0,0,0-0.1-0.1-0.1c0-0.2,0-0.3,0-0.4
		c-0.1-0.2-0.1-0.4,0-0.6c0-0.1,0-0.1,0.1-0.2c0-0.4,0.2-0.7,0.4-0.8l0.1-0.3l0.3,0c0.1-0.2,0.3-0.4,0.6-0.4c0.4,0,0.5,0.4,0.6,0.6
		l0.1,0.1c0.1,0.2,0.1,0.3,0.1,0.5l0,0.2c0,0.2,0,0.7,0.1,0.8l0,0.5c0,0.4,0.1,0.9,0.1,1.1c0,0.1,0,0.3,0,0.5c0,0.2,0,0.3,0,0.4
		l0,0.1c0,0.1,0,0.2,0,0.4c0,0.2,0,0.5,0,0.7c0,0.2,0,0.3,0,0.4c0.1,0.2,0.1,0.6,0.1,0.9c0,0.2,0,0.4,0,0.5c0.1,0.2,0.1,0.4,0.1,0.5
		c0,0.2,0,0.8,0.1,1.3c0,0.6,0,1.6,0.1,2.3c0,0.5,0,0.9,0,1.1l0.1,0.1V49.2z M44.8,57.4c0,0.3-0.1,0.5-0.2,0.6c0,0.1,0,0.4-0.1,0.6
		l0,0.1c0,0.1-0.1,0.5-0.1,0.7c0,0.2-0.1,0.4-0.2,0.5c0,0.2-0.1,0.3-0.1,0.3c0,0.4,0,0.6-0.1,0.8c0,0,0,0.1,0,0.1
		c0,0.2,0,0.6-0.1,0.8c0,0.1,0,0.2,0,0.3c0,0.1,0,0.2-0.1,0.2c0,0.2,0,0.5-0.1,0.8c0,0.2-0.1,0.5-0.2,0.7V64c0,0.1,0,0.2-0.1,0.4
		c0,0.2,0,0.3-0.1,0.5L43.2,65c0,0.1-0.1,0.3-0.2,0.4c0,0,0,0.1,0,0.1c-0.1,0.2-0.2,0.3-0.4,0.4c-0.1,0.1-0.3,0.2-0.4,0.2l0,0
		l-0.3,0.4l-0.3-0.1c-0.3,0.1-0.7,0.1-1.1,0l-0.1,0l-0.1,0.1L39.5,66l0.1-0.2l0,0c0,0,0-0.1,0-0.1c-0.1-0.1-0.1-0.1-0.2-0.2h-0.2
		l0-0.7c0,0,0-0.1,0-0.1c-0.1-0.1-0.1-0.2-0.1-0.3c-0.3-0.3-0.2-0.6-0.2-0.7l0-0.1c0-0.1-0.1-0.3-0.1-0.4c-0.1-0.1-0.1-0.3-0.1-0.4
		l-0.1-0.1V62c0,0,0,0,0-0.1c0-0.1,0-0.2,0-0.3c0,0,0-0.1,0-0.1c0-0.1,0-0.1-0.1-0.2l0-0.2c0,0,0-0.1,0-0.1l0,0v-0.2
		c0,0,0-0.1,0-0.2c0-0.1,0-0.1,0-0.2l0,0h-0.2c-0.1,0-0.1,0.1-0.1,0.1c-0.1,0.1-0.3,0.2-0.4,0.3c0,0-0.1,0-0.1,0.1L37.3,61h-0.1
		c-0.1,0-0.5,0.1-0.7,0.2c0,0.1-0.1,0.2-0.1,0.2l-0.1,0.2c0,0,0,0.1-0.1,0.1l0.1,0.2l-0.2,0.2c0,0.2,0,0.4-0.2,0.6l0,0.1l-0.3,0.6
		l0,0.2c0,0.2-0.1,0.4-0.3,0.6c0,0.1-0.1,0.2-0.1,0.4l0,0l0,0l-0.1,0.1c0,0.1-0.1,0.2-0.3,0.3c0,0.1-0.1,0.1-0.1,0.2
		c0,0.1-0.1,0.2-0.2,0.3c0,0.1-0.1,0.3-0.2,0.4l0,0c-0.1,0.1-0.2,0.3-0.4,0.4c0,0,0,0,0,0v0.3l-0.2,0c0,0,0,0,0,0l0,0.2
		c-0.1,0.3-0.3,0.4-0.6,0.5l-0.2,0.2l-0.1,0c0,0,0,0,0,0l0,0l-0.1,0.1c-0.1,0.1-0.3,0.2-0.5,0.3C32.1,67.9,32,68,31.9,68
		c-0.1,0.2-0.3,0.3-0.6,0.3c-0.1,0-0.1,0-0.2,0c0,0,0,0,0,0c-0.2,0.1-0.4,0.1-0.5,0.1c-0.1,0-0.2,0.1-0.4,0.1c-0.2,0-0.5,0-0.8-0.1
		c-0.2-0.1-0.4-0.2-0.5-0.2l-0.1,0h-0.5l-0.1-0.4c0,0,0-0.1-0.1-0.1l0,0l-0.4-0.4l-0.3-0.4l0.1-0.1c0,0,0,0,0-0.1
		c-0.1-0.1-0.1-0.1-0.2-0.2c0-0.1-0.1-0.2-0.1-0.3c-0.1-0.1-0.1-0.2-0.1-0.3c0,0-0.1-0.1-0.1-0.2l-0.1-0.1v-0.1c0,0,0-0.1,0-0.1
		c0,0,0-0.1,0-0.1c-0.1-0.1-0.2-0.3-0.1-0.6l-0.1,0l0-0.3c0-0.1,0-0.1,0-0.2c0-0.1,0-0.2,0-0.3l0-0.1l0-0.1c-0.1-0.2-0.1-0.4,0-0.6
		c0-0.1,0.1-0.2,0.2-0.2c0,0,0-0.1,0-0.1L27,62.3l0.1-0.1c0-0.1-0.1-0.2,0-0.3c0-0.1,0-0.3,0.1-0.5c-0.1-0.3,0-0.5,0.2-0.8
		c0-0.1,0.1-0.1,0.1-0.1c0-0.1,0.1-0.2,0.1-0.2c0-0.2,0-0.3,0.1-0.4c0-0.1,0-0.2,0-0.3c0-0.1,0.1-0.2,0.2-0.3
		c-0.1-0.1-0.1-0.3,0.1-0.6l0,0c0-0.2,0-0.3,0.1-0.5c0,0,0,0,0-0.1c0-0.1,0-0.3,0.1-0.4l0.4-0.9c0-0.1,0-0.1,0.1-0.2
		c0,0,0-0.1,0-0.1c0-0.3,0-0.6,0.1-0.8c0-0.2,0.1-0.3,0.2-0.4c0-0.1,0-0.1,0-0.2c0-0.2,0-0.4,0.1-0.6c0-0.2,0.1-0.3,0.2-0.4
		c0.1-0.2,0.3-0.4,0.6-0.6c0.1,0,0.2-0.1,0.2-0.2c0.1-0.2,0.3-0.3,0.4-0.4c0.1-0.1,0.1-0.1,0.2-0.2c0.1-0.2,0.3-0.4,0.6-0.6
		c0.1,0,0.3-0.2,0.4-0.3c0,0,0.1-0.1,0.1-0.1c0-0.1,0.1-0.3,0.3-0.4c0.2-0.2,0.3-0.2,0.3-0.3l0.4-0.2l0.1,0.1
		c0.1-0.1,0.2-0.1,0.4-0.1h0.6v0.7c0,0,0.1,0.1,0.1,0.1l0.1,0.1c0,0,0,0,0,0l0.1,0L34,52c0.1,0,0.2,0,0.4,0.1c0.2,0,0.3,0.1,0.5,0.3
		c0.1,0.1,0.2,0.2,0.2,0.3c0.1,0,0.1,0.1,0.2,0.1c0.2,0.1,0.3,0.2,0.4,0.4c0.2,0.2,0.4,0.6,0.4,0.8l0,0c0.2,0.2,0.3,0.5,0.5,1.5
		c0.1,0.4,0.1,0.7,0.1,0.8c0.1,0.3,0.2,1.4,0.1,2c0,0.1,0,0.2,0,0.2c0.1-0.2,0.4-0.3,0.6-0.3c0,0,0,0,0,0c0,0,0.1-0.1,0.1-0.1V58
		l0.5,0c0.1-0.1,0.1-0.1,0.2-0.1l-0.1-0.1c-0.1-0.2-0.1-0.4-0.1-0.7c0-0.1,0-0.1-0.1-0.2c0-0.1,0-0.4,0.1-0.5
		c-0.1-0.1-0.1-0.1-0.1-0.2c-0.1-0.2-0.1-0.4-0.1-0.6l-0.1-0.3c0,0,0-0.2,0-0.3l-0.2-0.4l0.3-0.2c0-0.1,0-0.1,0-0.2
		c-0.1-0.1-0.1-0.2-0.2-0.2c-0.1-0.3-0.2-0.6,0-0.8c0-0.1,0-0.1,0-0.2c0-0.1,0-0.2,0.1-0.3c-0.1-0.1-0.2-0.3-0.2-0.5
		c0-0.2,0-0.4,0-0.6l0,0l0-0.1c0-0.2,0.1-0.3,0.2-0.4c0,0,0,0,0,0l0,0c-0.3-0.3-0.3-0.6-0.2-0.9v-0.5c0-0.1,0-0.2,0-0.3
		c0-0.1,0-0.1,0-0.2c0-0.1,0-0.2,0.1-0.3c0-0.1,0-0.2,0-0.3c0-0.1,0-0.1-0.1-0.2c-0.1-0.3,0-0.7,0.3-0.9c0.1-0.2,0.4-0.4,0.4-0.4
		l0.1-0.1c0,0,0.1-0.1,0.1-0.1l0.2-0.6l0.4,0c0.5-0.1,0.7,0.1,0.7,0.3l0.2,0.4l0,0c0,0,0,0,0,0.1c0.2,0.5,0.5,1.7,0.6,2.2
		c0.1,0.2,0.1,0.4,0.2,0.8c0,0.1,0,0.3,0,0.4c0,0,0,0.1,0,0.1c0.1,0.2,0.1,0.4,0.1,0.6c0.1,0.6,0.2,1.4,0.2,2.1
		c0,0.2,0.1,0.6,0.1,0.8c0.1,0.1,0.1,0.3,0.1,0.5l-0.1,0.3c0,0.1,0,0.2,0,0.3c0,0.4,0,0.7,0.1,0.8l0,0.1c0,0,0,0.1,0,0.2
		c0,0.2,0,0.4,0,0.6c0,0.2,0,0.5,0,0.6c0,0,0.1,0.8,0.1,1.3l0.3-0.1c0-0.1,0-0.2,0.1-0.4L41.9,58l0.2-0.3l0,0l0.2-0.2
		c0,0,0-0.1,0-0.1l0,0c0-0.2,0-0.3,0.1-0.5c0-0.2,0-0.3,0.2-0.5c0-0.2,0.1-0.4,0.2-0.6c0-0.2,0.1-0.4,0.2-0.6c0,0,0-0.1,0-0.1l0,0
		l0.2-0.6c0-0.2,0.1-0.4,0.2-0.5c0-0.1,0.1-0.3,0.1-0.4l0.1-0.2c0,0,0.1-0.1,0.1-0.2c0-0.1,0.1-0.2,0.1-0.4c0-0.2,0-0.3,0.1-0.5
		l0.2-0.3c0-0.1,0.1-0.1,0.1-0.2c0-0.2,0.3-0.9,0.7-1.2c0-0.3,0.1-0.5,0.3-0.6c0,0,0-0.1,0-0.1c0.1-0.2,0.2-0.3,0.3-0.4
		c0.1-0.1,0.2-0.3,0.4-0.3C45.9,49.1,46,49,46,49l1-1v0.8l0.1,0.2c0.2,0.3,0.1,0.5,0.1,0.7l-0.1,0.2V50L47,50.2
		c0,0.2-0.1,0.3-0.1,0.4c0,0.1-0.1,0.2-0.1,0.2c0,0,0,0,0,0.1c0,0.1,0,0.3-0.1,0.5c0,0,0,0.1-0.1,0.2l0,0.1c0,0.1,0,0.2,0,0.2v0.1
		c0,0.2-0.1,0.3-0.2,0.5c0,0.1,0,0.3-0.1,0.4c0,0.1,0,0.1-0.1,0.2c0,0.1,0,0.1-0.1,0.2l0,0.1c0,0.1-0.1,0.1-0.1,0.2
		c0,0.1-0.1,0.2-0.1,0.3c0,0.1,0,0.1,0,0.1V54l-0.1,0.1v0.6l-0.2,0c0,0.1,0,0.3-0.1,0.4c0,0.3-0.1,0.6-0.2,0.7
		c-0.1,0.2-0.3,0.9-0.3,1C45,57,44.9,57.2,44.8,57.4z M67.3,50c0,0.1-0.1,0.2-0.2,0.3c0,0.1,0,0.1-0.1,0.2c0,0.2,0,0.3-0.1,0.4
		c0,0.2-0.1,0.3-0.1,0.4c0,0,0,0,0,0l-0.1,0.5l-0.1,0c0,0-0.1,0.1-0.1,0.1c0,0.1,0,0.2-0.1,0.2l0,0.1c-0.1,0.1-0.1,0.2-0.2,0.3l0,0
		L66,52.9c0,0,0,0.1-0.1,0.1c0,0.1-0.1,0.3-0.2,0.4c-0.1,0.1-0.1,0.3-0.2,0.3c0,0.2-0.1,0.5-0.3,0.7c0,0.2-0.1,0.3-0.1,0.4
		c0,0.1-0.1,0.2-0.1,0.3l0.1,0.1c0,0.1,0,0.6,0,1.1c0,0.5,0.1,1,0.1,1.1c0,0.3,0.1,0.7,0.1,1.2l0.1,0.8c0,0.1,0,0.2,0,0.4
		c0,0.1,0,0.2,0,0.3c0.1,1,0.1,1.4,0.1,1.5c0.1,0.2,0.1,0.6,0.2,1.6c0,0.7,0.2,1.6,0.4,2.4l0,0.2c0,0,0,0.1,0,0.1
		c0.1,0.2,0.2,0.5,0.2,0.8c0,0,0,0,0,0c0.2,0.2,0.2,0.6,0.3,0.9c0,0,0,0.1,0,0.1c0,0.1,0,0.2,0,0.2c0,0,0,0,0,0
		c0.1,0.4,0,0.9-0.4,1.1c-0.1,0.1-0.3,0.3-0.6,0.3h-0.3L65.2,69c-0.5-0.2-0.7-1.2-0.7-1.3c0,0,0,0,0,0l0,0c-0.2-0.2-0.1-0.4-0.1-0.5
		c-0.1-0.2-0.2-0.5-0.2-0.8c-0.1-0.1-0.1-0.3-0.2-0.4c0,0,0,0,0,0c0,0-0.1-0.1-0.1-0.2h0l-0.1-0.4c0,0-0.1-0.2-0.1-0.4l0,0
		c0-0.1,0-0.1-0.1-0.2c-0.1-0.2-0.2-0.4-0.2-0.6c0,0,0-0.1,0-0.1C63.2,64,63,63.8,63,63.5c0-0.1-0.1-0.2-0.1-0.3
		c-0.1-0.1-0.1-0.2-0.1-0.4c-0.1-0.1-0.1-0.3-0.1-0.4c-0.1-0.1-0.2-0.3-0.2-0.5v-0.2c0,0,0-0.1,0-0.1l-0.2-0.2l0.1-0.4
		c0-0.1,0-0.2,0.1-0.3l0-0.2l-0.2-0.1l0-0.3l-0.1,0.2l-0.1,0L61.9,61l-0.1,0c0,0,0,0.1-0.1,0.1c0,0.1,0,0.1-0.1,0.2l-0.1,0.1
		c0,0.1-0.1,0.1-0.1,0.1l0,0c0,0-0.1,0.1-0.2,0.1c0,0.2-0.2,0.4-0.3,0.5c0,0.2-0.1,0.3-0.4,0.4c-0.1,0.1-0.2,0.3-0.3,0.3
		c0,0.1,0,0.1,0,0.2l-0.2,0.4l-0.3,0c0,0,0,0,0,0c-0.1,0.1-0.3,0.4-0.5,0.6v0.2l-0.6,0.3c-0.1,0.1-0.2,0.1-0.2,0.2
		c-0.1,0.1-0.3,0.2-0.4,0.2c-0.5,0.3-1.2,0.3-1.2,0.3c-0.1,0-0.3,0-0.5-0.2c-0.3,0-0.6-0.2-0.7-0.5l-0.1-0.2h-0.2c0,0,0,0.1,0.1,0.1
		c-0.1-0.1-0.2-0.2-0.2-0.3l-0.1-0.1c-0.1-0.1-0.1-0.2-0.1-0.4l-0.2-0.1l0-0.3c-0.1-0.1-0.1-0.3-0.1-0.4l-0.1,0l0-0.4
		c0,0-0.1,0-0.1,0.1c0,0-0.1,0.1-0.2,0.1l-0.1,0.1c0,0-0.1,0.1-0.1,0.1c-0.1,0.2-0.3,0.4-0.5,0.5c0,0-0.1,0-0.1,0.1l0,0l-0.6,0.6
		c-0.1,0.1-0.2,0.2-0.4,0.2c-0.1,0.1-0.3,0.2-0.5,0.3l0,0c-0.1,0.2-0.3,0.4-0.4,0.4l0,0c-0.1,0.1-0.2,0.2-0.4,0.2c0,0-0.1,0-0.1,0.1
		c-0.2,0.2-0.7,0.5-1,0.6c-0.1,0.1-0.3,0.1-0.4,0.2c-0.1,0.1-0.3,0.2-0.5,0.2c-0.1,0.1-0.3,0.2-0.6,0.2c0,0,0,0,0,0h0
		c-0.2,0.1-0.7,0.2-1,0.2L47.6,67l-0.4-0.2c-0.3,0-0.5-0.1-0.6-0.2h-0.7l0-0.6c-0.2-0.2-0.3-0.4-0.3-0.6l-0.2-0.3
		c-0.1-0.2-0.1-0.3-0.1-0.4c0-0.1,0-0.2,0-0.2v-0.6l0.1,0c0-0.1,0-0.2,0-0.3c0,0,0,0,0-0.1l0,0l0-0.1c-0.1-0.2-0.1-0.3-0.1-0.4v-0.2
		l0.2-0.2c-0.1-0.2-0.1-0.4,0-0.5l0-0.1c0,0,0,0,0,0c0-0.2,0.1-0.3,0.2-0.4c0-0.1,0-0.2,0.1-0.3l0-0.2c0-0.2,0.1-0.3,0.2-0.5v-0.3
		l0.1,0c0-0.1,0-0.1,0.1-0.2c0-0.1,0-0.2,0.1-0.4c0,0,0,0,0-0.1l0.1-0.5l0.1,0c0,0,0-0.1,0-0.1l0.2-0.3l-0.1-0.1l0.1-0.1l-0.1-0.1
		L47,58c0-0.2,0.2-0.4,0.4-0.6l-0.1-0.2l0.4-0.4c0.1-0.3,0.3-0.6,0.6-0.7c0,0,0-0.1,0-0.1l0.2-0.3c0-0.1,0.1-0.1,0.2-0.2
		c0-0.3,0.2-0.5,0.3-0.6c0.1-0.2,0.3-0.4,0.6-0.4c0,0,0,0,0-0.1c0-0.2,0.2-0.3,0.3-0.5l0.2-0.1c0,0,0.1-0.1,0.2-0.2
		c0.1-0.1,0.2-0.1,0.3-0.2l0.1-0.1c0.1-0.2,0.2-0.3,0.3-0.4l0.2-0.2v-1l0.6,0.5c0,0,0.1,0,0.1,0c0.1-0.1,0.1-0.1,0.2-0.2l0.2-0.1
		l0.1-0.2l0.4,0.1c0.2-0.1,0.3-0.1,0.4-0.1c0.5,0.1,1.3,0.3,1.3,0.8c0.3,0.4,0.4,1.2,0.3,1.7c0.1,0.1,0.2,0.4,0,0.8c0,0,0,0,0,0
		c0,0.1,0,0.2-0.1,0.3l0,0.1c0,0.1,0,0.1,0,0.2c0,0,0,0,0,0.1v0.1L54.5,56c0,0.1-0.1,0.1-0.1,0.1v0.3l-0.1,0.1
		c-0.1,0.2-0.1,0.3-0.2,0.4c0,0-0.1,0.1-0.1,0.1c0,0,0,0,0,0v0.2l-0.1,0.1c0,0.1,0,0.2-0.1,0.3l-0.3,0.3l0,0
		c-0.1,0.1-0.1,0.2-0.2,0.2c-0.1,0.1-0.2,0.2-0.2,0.3l0,0.1c-0.1,0.3-0.3,0.5-0.5,0.7l0,0.1c-0.1,0.2-0.2,0.3-0.4,0.4
		c-0.1,0.2-0.3,0.4-0.6,0.6c0,0.1,0,0.1-0.1,0.2l0,0c0,0.1-0.1,0.2-0.2,0.3c0,0.1-0.1,0.2-0.3,0.3c0,0.1-0.1,0.2-0.2,0.2
		c-0.1,0.2-0.4,0.5-0.5,0.6c-0.1,0.2-0.2,0.3-0.3,0.4l-0.2,0.1c0,0-0.2,0.2-0.4,0.3c-0.2,0.2-0.5,0.5-0.8,0.6c0,0-0.1,0.1-0.1,0.1
		c0,0,0,0.1,0,0.1c0.1-0.1,0.2-0.1,0.3-0.1c0.1,0,0.1-0.1,0.2-0.1c0.1-0.1,0.2-0.1,0.3-0.1l0.1-0.1l0.1,0c0.1-0.1,0.3-0.2,0.5-0.2
		c0,0,0,0,0,0l0.3-0.2l0.1,0c0,0,0,0,0,0c0-0.1,0.1-0.3,0.4-0.4c0.2-0.2,0.5-0.3,0.6-0.4c0,0,0,0,0.1,0c0,0,0-0.1,0-0.1
		c0.1-0.2,0.3-0.3,0.5-0.4c0.1-0.1,0.2-0.2,0.2-0.2l0.2-0.1c0.2-0.2,0.3-0.3,0.5-0.4c0,0,0,0,0.1-0.1c0.2-0.2,0.6-0.6,0.9-1
		c0.3-0.4,0.7-0.8,0.9-1c0,0,0.1-0.1,0.1-0.1l-0.1-0.1l0.5-0.3c0,0,0-0.1,0-0.1l0-0.1l0.1-0.5h0.1l-0.1-0.2l0.2-0.3
		c0-0.1,0.1-0.3,0.2-0.4l-0.1-0.1l0.4-0.8l0-0.2l0.2-0.1l0.1-0.3l0-0.3l0.1,0l0.1-0.2l0.1,0c0.1-0.1,0.2-0.2,0.4-0.3c0,0,0,0,0-0.1
		l0-0.2c0-0.1,0.1-0.2,0.2-0.3l0.1-0.1c0.1-0.1,0.1-0.2,0.2-0.2l0,0c0,0,0.2-0.3,0.4-0.5c0-0.1,0-0.2,0.1-0.3l0.2-0.3l0.2,0
		c0.1-0.2,0.3-0.3,0.4-0.5l0.7-0.7c0.6-0.7,1-1,1.3-1.1c0,0,0,0,0,0v-0.1l0.2,0c0.2-0.1,0.4-0.1,0.6-0.1c-0.1-0.2-0.1-0.3-0.1-0.4
		l0-0.4c0,0,0-0.1,0-0.1c0,0,0,0,0,0v-0.3c0-0.1,0-0.2,0.1-0.3l0,0l0-0.2c0,0,0-0.1,0-0.1l-0.1-0.1l0.3-0.8c0-0.1,0-0.2,0.1-0.3
		c-0.1-0.2-0.2-0.5-0.2-0.8c-0.1-0.1-0.1-0.2-0.1-0.3v-0.6l0.1,0c0-0.1,0.1-0.3,0.1-0.3c0,0,0-0.1,0-0.1l-0.1-0.1l0.1-0.7l0.1-0.1
		l0-0.7l0.1-0.1c0-0.2,0-0.3,0.1-0.4c0-0.1,0.1-0.2,0.1-0.3c0-0.1,0-0.2,0-0.3l0,0l0,0c0-0.1,0.1-0.2,0.1-0.2l-0.2-0.2l0.4-0.4
		c0-0.2,0.1-0.3,0.3-0.4c0-0.1,0-0.3,0.1-0.5c0-0.1,0-0.3,0.1-0.4l0.1-0.3c0-0.1,0-0.2,0.1-0.2l0,0l0.1-0.4c0,0,0,0,0,0
		c0-0.2,0.1-0.3,0.1-0.4l0-0.2c0-0.2,0.2-0.5,0.4-0.7c0-0.2,0.2-0.4,0.3-0.5c0-0.1,0.1-0.2,0.1-0.3c-0.1-0.2,0-0.3,0-0.5l-0.1-0.2
		l0.4-0.3c0-0.1,0.1-0.2,0.1-0.4l0,0l0.4-0.6c0.1-0.1,0.1-0.2,0.2-0.3c0,0,0,0,0,0c0.1-0.4,0.5-0.9,0.7-1.1l0.1-0.1
		c0-0.2,0.1-0.3,0.2-0.3l0.2-0.2c0,0,0,0,0,0c0.2-0.3,0.4-0.4,0.6-0.5c0.1-0.2,0.3-0.3,0.5-0.3c0.1-0.1,0.1-0.1,0.2-0.1
		c0.2-0.2,0.4-0.4,0.6-0.4h0.2c0.2-0.2,0.4-0.2,0.6-0.2l0.1,0l0,0l0,0c0.1-0.1,0.3-0.1,0.5,0l0.4,0.1l0,0.3c0.2,0.1,0.4,0.3,0.4,0.6
		c0.1,0.1,0.2,0.3,0.2,0.5l0.2,0.7l-0.1,0c0.1,0.4,0.1,0.8,0.1,1.2v0l0.5,0.5l-0.5,0v0.7c0,0.3,0,0.6,0,0.8L71,37.2
		c0,0.1,0,0.1,0,0.2c0,0.3,0,0.5-0.1,0.6c0,0.3,0,0.6-0.2,1.2l0,0.2c0,0.1-0.1,0.4-0.1,0.5c-0.1,0.4-0.5,2.1-0.7,2.7
		c0,0.1,0,0.3-0.1,0.5c0,0,0,0.1,0,0.1c0,0.4-0.4,1.6-0.5,1.8l-0.1,0.1c0,0,0,0.1,0,0.1c0,0.1,0,0.2-0.1,0.3v0.3l-0.2,0.1
		c0,0,0,0,0,0c0,0.1-0.1,0.2-0.1,0.3l0,0c0,0.2-0.1,0.4-0.2,0.5l0,0c0,0.2-0.1,0.3-0.2,0.5c0,0.2,0,0.4-0.1,0.5l0,0
		c0,0.1-0.1,0.2-0.1,0.2c0,0,0,0,0,0c0,0.1-0.1,0.2-0.1,0.3c0,0-0.1,0.1-0.1,0.2c0,0.2-0.1,0.4-0.2,0.5c0,0.1,0,0.2-0.1,0.3
		c-0.1,0.1-0.1,0.2-0.3,0.3c0,0,0,0,0,0C67.4,49.7,67.3,49.9,67.3,50z M97.9,35.9c0,0.3,0,0.6,0,0.8l-0.1,0.5c0,0.1,0,0.1,0,0.2
		c0,0.3,0,0.5-0.1,0.6c0,0.3,0,0.6-0.2,1.2l0,0.2c0,0.1-0.1,0.4-0.1,0.5c-0.1,0.4-0.5,2.1-0.7,2.7c0,0.1,0,0.3-0.1,0.5
		c0,0,0,0.1,0,0.1c0,0.4-0.4,1.6-0.5,1.8l-0.1,0.1c0,0,0,0.1,0,0.1c0,0.1,0,0.2-0.1,0.3v0.3l-0.2,0.1c0,0,0,0,0,0
		c0,0.1-0.1,0.2-0.1,0.3l0,0c0,0.2-0.1,0.4-0.2,0.5l0,0c0,0.2-0.1,0.3-0.2,0.5c0,0.2,0,0.4-0.1,0.5l0,0c0,0.1-0.1,0.2-0.1,0.2
		c0,0,0,0,0,0c0,0.1-0.1,0.2-0.1,0.3c0,0-0.1,0.1-0.1,0.2c0,0.2-0.1,0.4-0.2,0.5c0,0.1,0,0.2-0.1,0.3c-0.1,0.1-0.1,0.2-0.3,0.3
		c0,0,0,0,0,0c0,0.2,0,0.3,0,0.4c0,0.1-0.1,0.2-0.2,0.3c0,0.1,0,0.1-0.1,0.2c0,0.2,0,0.3-0.1,0.4c0,0.2-0.1,0.3-0.1,0.4c0,0,0,0,0,0
		l-0.1,0.5l-0.1,0c0,0-0.1,0.1-0.1,0.1c0,0.1,0,0.2-0.1,0.2l0,0.1c-0.1,0.1-0.1,0.2-0.2,0.3l0,0l-0.1,0.3c0,0,0,0.1-0.1,0.1
		c0,0.1-0.1,0.3-0.2,0.4c-0.1,0.1-0.1,0.3-0.2,0.3c0,0.2-0.1,0.5-0.3,0.7c0,0.2-0.1,0.3-0.1,0.4c0,0.1-0.1,0.2-0.1,0.3l0.1,0.1
		c0,0.1,0,0.6,0,1.1c0,0.5,0.1,1,0.1,1.1c0,0.3,0.1,0.7,0.1,1.2l0.1,0.8c0,0.1,0,0.2,0,0.4c0,0.1,0,0.2,0,0.3c0.1,1,0.1,1.4,0.1,1.5
		c0.1,0.2,0.1,0.6,0.2,1.6c0,0.7,0.2,1.6,0.4,2.4l0,0.2c0,0,0,0.1,0,0.1C93,66,93,66.3,93,66.6c0,0,0,0,0,0c0.2,0.2,0.2,0.6,0.3,0.9
		c0,0,0,0.1,0,0.1c0,0.1,0,0.2,0,0.2c0,0,0,0,0,0c0.1,0.4,0,0.9-0.4,1.1c-0.1,0.1-0.3,0.3-0.6,0.3h-0.3L91.9,69
		c-0.5-0.2-0.7-1.2-0.7-1.3c0,0,0,0,0,0l0,0c-0.2-0.2-0.1-0.4-0.1-0.5c-0.1-0.2-0.2-0.5-0.2-0.8c-0.1-0.1-0.1-0.3-0.2-0.4
		c0,0,0,0,0,0c0,0-0.1-0.1-0.1-0.2h0l-0.1-0.4c0,0-0.1-0.2-0.1-0.4l0,0c0-0.1,0-0.1-0.1-0.2c-0.1-0.2-0.2-0.4-0.2-0.6
		c0,0,0-0.1,0-0.1c-0.1-0.1-0.2-0.3-0.2-0.5c0-0.1-0.1-0.2-0.1-0.3c-0.1-0.1-0.1-0.2-0.1-0.4c-0.1-0.1-0.1-0.3-0.1-0.4
		c-0.1-0.1-0.2-0.3-0.2-0.5v-0.2c0,0,0-0.1,0-0.1L89,61.3l0.1-0.4c0-0.1,0-0.2,0.1-0.3l0-0.2L89,60.4l0-0.3l-0.1,0.2l-0.1,0L88.6,61
		l-0.1,0c0,0,0,0.1-0.1,0.1c0,0.1,0,0.1-0.1,0.2l-0.1,0.1c0,0.1-0.1,0.1-0.1,0.1l0,0c0,0-0.1,0.1-0.2,0.1c0,0.2-0.2,0.4-0.3,0.5
		c0,0.2-0.1,0.3-0.4,0.4c-0.1,0.1-0.2,0.3-0.3,0.3c0,0.1,0,0.1,0,0.2l-0.2,0.4l-0.3,0c0,0,0,0,0,0c-0.1,0.1-0.3,0.4-0.5,0.6v0.2
		l-0.6,0.3c-0.1,0.1-0.2,0.1-0.2,0.2c-0.1,0.1-0.3,0.2-0.4,0.2c-0.5,0.3-1.2,0.3-1.2,0.3c-0.1,0-0.3,0-0.5-0.2
		c-0.1,0-0.3-0.1-0.4-0.1c-0.1,0.1-0.1,0.2-0.2,0.3c0,0,0,0.1,0,0.1c0,0,0,0.1,0,0.1c0,0.2-0.1,0.3-0.2,0.5c0,0.1-0.1,0.2-0.1,0.3
		L82,66.4c0,0.2-0.2,0.4-0.3,0.5c0,0.2-0.1,0.3-0.2,0.4c-0.1,0.1-0.1,0.2-0.2,0.3L81.1,68l-0.2,0c-0.1,0.2-0.4,0.3-0.6,0.4
		c-0.2,0.3-0.5,0.3-0.7,0.3c-0.1,0-0.1,0-0.2,0c0,0,0,0-0.1,0C79.1,69,78.9,69,78.7,69l-0.4,0.2L78.1,69c-0.3,0-0.5-0.1-0.7-0.2
		l-0.1,0c-0.2-0.1-0.4-0.3-0.5-0.5c-0.1,0-0.1-0.1-0.2-0.1h-0.3v-0.2c-0.2-0.2-0.2-0.4-0.3-0.6c-0.3-0.2-0.3-0.5-0.3-0.7
		c0-0.1,0-0.2,0-0.2c-0.2-0.2-0.2-0.3-0.2-0.5l-0.1-0.1l0.1-0.2c-0.1-0.2,0-0.3,0-0.5c0,0,0,0,0-0.1c-0.2-0.1-0.3-0.3-0.3-0.6v-0.4
		l0.1-0.1c0-0.1,0-0.1,0-0.2l-0.1-0.1l0-0.4c0-0.1-0.1-0.2-0.1-0.3c0,0,0-0.1,0-0.1L75,62.7l0.2-0.7c0-0.1-0.1-0.2-0.1-0.2
		c0,0,0-0.1,0-0.1c0,0.1-0.1,0.2-0.2,0.3l0,0c0,0.2-0.1,0.4-0.2,0.5c0,0.1-0.1,0.2-0.1,0.3l-0.1,0.2c-0.1,0.1-0.1,0.2-0.2,0.3v0.1
		l-0.1,0.1c0,0.2-0.1,0.6-0.4,0.8c0,0.2-0.1,0.4-0.1,0.4c-0.1,0.1-0.1,0.2-0.3,0.3c0,0.1,0,0.1-0.1,0.2l-0.1,0.1l0.1,0.3l-0.3,0.2
		c-0.1,0.2-0.2,0.4-0.3,0.5c0,0-0.1,0.1-0.1,0.1c-0.1,0.3-0.2,0.6-0.5,0.7c-0.2,0.3-0.4,0.4-0.5,0.6c-0.1,0.2-0.2,0.3-0.4,0.3
		c-0.2,0.2-0.3,0.3-0.5,0.3c-0.2,0.1-0.4,0.2-0.4,0.2l-0.2,0c-0.1,0.1-0.2,0.1-0.3,0.1c-0.1,0-0.2,0-0.3,0l0,0l-0.1,0
		c-0.1,0-0.1,0-0.2-0.1l-0.1,0c-0.1,0-0.1-0.1-0.2-0.1c-0.2-0.1-0.3-0.2-0.4-0.3c-0.1-0.1-0.3-0.2-0.5-0.4c-0.1-0.1-0.5-0.3-0.5-0.7
		v0c-0.1-0.1-0.2-0.3-0.2-0.6c0-0.1,0-0.3,0.1-0.3v-0.1c-0.2-0.2-0.2-0.5-0.1-0.7c0-0.1,0-0.1,0-0.1v-0.1c-0.2-0.3-0.1-0.5-0.1-0.6
		l0.1-0.3v-0.2l0.2-0.1c0,0,0,0,0,0c-0.1-0.2-0.2-0.6,0-0.9c0-0.1,0-0.2,0-0.3l0.2-0.4l0.1,0l0.1-0.1c0-0.1,0.1-0.3,0.1-0.4
		c0-0.1,0-0.2,0-0.3c0-0.1-0.1-0.2-0.1-0.3v-0.4l0.3-0.2c0-0.2,0-0.4,0.2-0.6l0.1-0.1c0-0.1,0-0.2,0.1-0.4c0,0,0-0.1,0.1-0.1v-0.3
		l0.3-0.2c0-0.2,0.1-0.3,0.2-0.4l0.1-0.1c0-0.2,0.1-0.4,0.2-0.5l0-0.1c0,0,0-0.1,0-0.2l-0.2-0.2l0.4-0.5c0,0,0,0,0.1-0.1
		c0.1-0.2,0.3-0.3,0.4-0.3c0.1-0.2,0.1-0.3,0.2-0.4c0,0,0-0.1,0-0.1c0-0.3,0.1-0.5,0.3-0.6c0.1-0.2,0.2-0.3,0.3-0.4
		c0-0.1,0.1-0.1,0.1-0.2v-0.2l0.4-0.2c0.1-0.1,0.1-0.2,0.2-0.2l0.1-0.1c0,0,0.1-0.1,0.3-0.4c0.2-0.2,0.4-0.4,0.6-0.5
		c0-0.1,0.1-0.2,0.2-0.3l0.1-0.1c0.1-0.1,0.3-0.2,0.5-0.3c0.2-0.2,0.4-0.1,0.5-0.1l0.1-0.1c0,0,0,0,0.1-0.1l0,0l0,0
		c0.2-0.2,0.6-0.2,0.8-0.1c0,0,0,0,0,0c0.1,0,0.1,0,0.1,0c0.2,0,0.4,0.1,0.6,0.2l0,0c0,0,0,0,0,0c0-0.1,0-0.1,0-0.2l0.1-0.5l0.2,0
		c0-0.1,0-0.2,0.1-0.3c0-0.1,0-0.2,0.1-0.3c0,0,0-0.1,0-0.1l0.2-0.4l0.1,0c0.1-0.1,0.3-0.2,0.3-0.2c0.1,0,0.2-0.1,0.3-0.1
		c0-0.1,0.1-0.1,0.1-0.2c0-0.2,0.1-0.3,0.2-0.4c0,0,0,0,0,0c0.1-0.2,0.4-0.4,0.8-0.3h0.1c0.4,0,0.7,0.4,0.7,0.9
		c0.2,0.5,0.2,1.6-0.1,5c-0.1,0.6-0.2,1.9-0.2,2.3c0,0.8-0.1,1.5-0.1,1.5l-0.1,0.5c0,0.5-0.1,1.3-0.1,1.5c0,0.2,0,0.3-0.1,0.4
		c0,0.5-0.1,2.3,0,3.4c0.1,0.1,0.1,0.2,0.1,0.4c0.1,0.1,0.1,0.2,0.1,0.2l0.1,0.2c0.1,0.1,0.1,0.2,0.2,0.3l0.1,0.1c0,0,0.1,0,0.1-0.1
		l0,0c0-0.1,0.1-0.1,0.1-0.2c0.1-0.1,0.1-0.1,0.1-0.2l0.2-0.6l0.2,0l0.1-0.2l0.1,0c0,0,0-0.1,0.1-0.1c0-0.1,0-0.2,0.1-0.3l0,0
		l0.2-0.5c0-0.2,0-0.4,0.1-0.6L80,62.7h0.9l0.1-0.4l0.1-0.1c0-0.1,0.1-0.2,0.1-0.3c0,0,0-0.1,0-0.1v-0.6l0,0c0-0.2,0-0.4,0.1-0.5
		l0-0.1c0-0.1,0-0.3,0-0.4l0,0l0.2-0.5c0-0.1,0.1-0.3,0.2-0.5c0,0,0-0.1,0-0.1l-0.2-0.2l0,0l-0.3-0.1l0.5-0.5c0-0.1,0-0.1,0-0.2
		l0-0.1l0.1-0.5h0.1L82,57.2l0.2-0.3c0-0.1,0.1-0.3,0.2-0.4l-0.1-0.1l0.4-0.8l0-0.2l0.2-0.1L83,55l0-0.3l0.1,0l0.1-0.2l0.1,0
		c0.1-0.1,0.2-0.2,0.4-0.3c0,0,0,0,0-0.1l0-0.2c0-0.1,0.1-0.2,0.2-0.3l0.1-0.1c0.1-0.1,0.1-0.2,0.2-0.2l0,0c0,0,0.2-0.3,0.4-0.5
		c0-0.1,0-0.2,0.1-0.3l0.2-0.3l0.2,0c0.1-0.2,0.3-0.3,0.4-0.5l0.7-0.7c0.6-0.7,1-1,1.3-1.1c0,0,0,0,0,0v-0.1l0.2,0
		c0.2-0.1,0.4-0.1,0.6-0.1c-0.1-0.2-0.1-0.3-0.1-0.4l0-0.4c0,0,0-0.1,0-0.1c0,0,0,0,0,0v-0.3c0-0.1,0-0.2,0.1-0.3l0,0l0-0.2
		c0,0,0-0.1,0-0.1l-0.1-0.1l0.3-0.8c0-0.1,0-0.2,0.1-0.3c-0.1-0.2-0.2-0.5-0.2-0.8c-0.1-0.1-0.1-0.2-0.1-0.3v-0.6l0.1,0
		c0-0.1,0.1-0.3,0.1-0.3c0,0,0-0.1,0-0.1l-0.1-0.1l0.1-0.7l0.1-0.1l0-0.7l0.1-0.1c0-0.2,0-0.3,0.1-0.4c0-0.1,0.1-0.2,0.1-0.3
		c0-0.1,0-0.2,0-0.3l0,0l0,0c0-0.1,0.1-0.2,0.1-0.2l-0.2-0.2l0.4-0.4c0-0.2,0.1-0.3,0.3-0.4c0-0.1,0-0.3,0.1-0.5
		c0-0.1,0-0.3,0.1-0.4l0.1-0.3c0-0.1,0-0.2,0.1-0.2l0,0l0.1-0.4c0,0,0,0,0,0c0-0.2,0.1-0.3,0.1-0.4l0-0.2c0-0.2,0.2-0.5,0.4-0.7
		c0-0.2,0.2-0.4,0.3-0.5c0-0.1,0.1-0.2,0.1-0.3c-0.1-0.2,0-0.3,0-0.5l-0.1-0.2l0.4-0.3c0-0.1,0.1-0.2,0.1-0.4l0,0l0.4-0.6
		c0.1-0.1,0.1-0.2,0.2-0.3c0,0,0,0,0,0c0.1-0.4,0.5-0.9,0.7-1.1l0.1-0.1c0-0.2,0.1-0.3,0.2-0.3l0.2-0.2c0,0,0,0,0,0
		c0.2-0.3,0.4-0.4,0.6-0.5c0.1-0.2,0.3-0.3,0.5-0.3c0.1-0.1,0.1-0.1,0.2-0.1c0.2-0.2,0.4-0.4,0.6-0.4h0.2c0.2-0.2,0.4-0.2,0.6-0.2
		l0.1,0l0,0l0,0c0.1-0.1,0.3-0.1,0.5,0l0.4,0.1l0,0.3c0.2,0.1,0.4,0.3,0.4,0.6c0.1,0.1,0.2,0.3,0.2,0.5l0.2,0.7l-0.1,0
		c0.1,0.4,0.1,0.8,0.1,1.2v0l0.5,0.5l-0.5,0V35.9z"/>
	<path class="st0" d="M92.6,38.4l-0.1,0.1C92.6,38.4,92.6,38.4,92.6,38.4c0-0.1,0-0.1,0-0.1C92.7,38.3,92.7,38.3,92.6,38.4
		c0.1-0.2,0.2-0.3,0.1-0.5L92.3,38l0.1,0.6C92.6,38.5,92.6,38.5,92.6,38.4z"/>
	<polygon class="st0" points="83.8,61.9 83.8,61.9 83.8,61.9 	"/>
	<path class="st0" d="M50.4,57.4l-0.2-0.2l0,0.2C50.4,57.5,50.4,57.4,50.4,57.4z"/>
	<path class="st0" d="M88.5,54.6c0-0.1,0-0.3,0-0.4l-0.1-0.1c-0.1-0.1-0.2-0.3-0.1-0.7c0,0,0-0.1,0-0.1c0-0.1,0-0.1,0-0.2
		c0-0.1,0-0.1,0-0.2c-0.1-0.1-0.1-0.1-0.2-0.2C88.1,52.8,88,53,87.9,53v0l-0.2,0.2c0,0-0.1,0.1-0.1,0.1c0,0,0,0,0,0l-0.2,0.3
		c0,0-0.1,0.1-0.2,0.2l0,0.1l-0.3,0.3c0,0.1-0.1,0.2-0.2,0.2c0,0.1,0,0.1-0.1,0.2V55l-0.2,0.2c0,0,0,0.1-0.1,0.1l0,0l-0.2,0.4
		c0,0-0.1,0.1-0.1,0.1c0,0.1-0.1,0.3-0.2,0.5c0,0.2-0.1,0.3-0.2,0.5l0,0c0,0.2-0.1,0.4-0.2,0.5c0,0.1,0,0.2-0.1,0.3l0,0.1l-0.1,0.1
		c0,0.2-0.1,0.4-0.1,0.5v0c0,0.1,0,0.3-0.1,0.5c0,0-0.1,0.1-0.1,0.2c0,0.3-0.2,0.6-0.3,0.7l0.1,0.2c0,0.2,0,0.4-0.1,0.5
		c0,0.1,0,0.3-0.1,0.4c0,0.2-0.1,0.4-0.1,0.5c0,0.1,0,0.3-0.1,0.4c0.1,0.2,0,0.4,0,0.6c0,0,0.1,0.1,0.1,0.1c0,0,0.1-0.1,0.2-0.2
		l0.1-0.1c0.2-0.2,0.3-0.3,0.5-0.4l0,0c0,0,0,0,0,0c0-0.2,0.2-0.3,0.3-0.5c0,0,0,0,0,0c0.1-0.2,0.2-0.3,0.3-0.4l0.1-0.1
		c0.1-0.1,0.2-0.3,0.3-0.4c0,0,0,0,0,0c0-0.1,0.1-0.3,0.2-0.4l0,0c0-0.1,0-0.2,0.1-0.3c0-0.1,0.1-0.2,0.1-0.3
		c0.1-0.1,0.2-0.2,0.3-0.3c0.1-0.1,0.1-0.3,0.2-0.4c0,0,0,0,0,0c0-0.1,0.1-0.3,0.1-0.3l0-0.6l0.3,0c0,0,0,0,0-0.1c0,0,0,0,0-0.1
		c0-0.2,0.1-0.4,0.4-0.5c0.1-0.2,0.1-0.3,0.2-0.4c0-0.2,0.1-0.3,0.2-0.4c0,0,0,0,0,0c0-0.1,0-0.3,0-0.4l0,0l0.1-0.5c0,0,0,0,0-0.1
		c0,0,0,0,0,0C88.4,55,88.5,54.7,88.5,54.6z"/>
	<path class="st0" d="M56.5,63.8C56.5,63.8,56.5,63.8,56.5,63.8l-0.1,0C56.4,63.8,56.4,63.8,56.5,63.8z"/>
	<path class="st0" d="M49.7,63.2C49.7,63.2,49.7,63.2,49.7,63.2C49.7,63.2,49.7,63.2,49.7,63.2L49.7,63.2z"/>
	<path class="st0" d="M55.8,64.9L55.8,64.9L55.8,64.9C55.8,64.9,55.8,64.9,55.8,64.9z"/>
	<path class="st0" d="M49.9,59l0.1,0c0,0,0-0.1,0-0.1c0-0.2,0.1-0.4,0.2-0.5v-0.1c0,0-0.1,0.1-0.1,0.1c0,0.1-0.1,0.2-0.1,0.2
		c0,0.1-0.1,0.2-0.2,0.3c0,0,0,0,0,0L49.9,59L49.9,59z"/>
	<path class="st0" d="M50.2,57.3l0,0.2c0,0,0.1,0,0.1,0L50.2,57.3z"/>
	<path class="st0" d="M56.5,63.8C56.5,63.8,56.6,63.8,56.5,63.8L56.5,63.8L56.5,63.8z"/>
	<path class="st0" d="M67.5,43.2c0-0.1,0-0.2,0.1-0.3c0-0.2,0-0.4,0.1-0.5l0-0.2c0-0.1,0-0.2,0.2-0.4c0-0.1,0-0.2,0-0.2l0.1-0.4
		l0.1-0.1l0-0.3c0,0,0-0.1,0-0.1l-0.1-0.2l0.2-0.2c0,0,0-0.1,0-0.1c0-0.2,0.1-0.4,0.1-0.6c0.1-0.1,0.1-0.2,0.1-0.3l0.1-0.3
		c0,0,0-0.1,0-0.1c0-0.1,0-0.3,0-0.4c0-0.4,0-0.7,0.1-0.9c0-0.2,0-0.3,0-0.4l0.1-0.2l-0.2-0.1l0-0.5l0.1-0.4c0-0.1,0-0.2,0.1-0.4
		l0,0c0,0,0-0.1,0-0.1l0,0v-0.2c0,0,0-0.1,0-0.1c-0.1-0.1-0.1-0.3,0-0.4l0,0l0.1-0.3c-0.1-0.1-0.2-0.3-0.2-0.5v-0.3
		c-0.1-0.1-0.2-0.2-0.2-0.3c-0.1,0-0.1,0-0.2,0.1c-0.1,0.1-0.2,0.3-0.3,0.3c0,0-0.1,0.1-0.1,0.1c0,0.2-0.1,0.4-0.3,0.6
		c0,0.1-0.1,0.2-0.2,0.2l0,0c0,0.2-0.1,0.3-0.2,0.4c0,0.1,0,0.2-0.1,0.3l0,0.1c0,0.1-0.1,0.2-0.2,0.3l0,0.2l-0.1,0.5l-0.2,0
		c0,0,0,0,0,0l-0.1,0.1c0,0.2-0.1,0.3-0.2,0.4l-0.1,0.3c0,0,0,0,0,0c0,0,0,0.1,0,0.1c0,0.4-0.3,0.9-0.3,0.9L66,38.4
		c0,0.3-0.1,1-0.3,1.2l0,0.1c-0.1,0.2-0.1,0.4-0.2,0.5c0,0-0.1,0.4-0.1,0.7c0,0.1-0.1,0.3-0.1,0.4c0,0.2,0,0.4,0,0.6
		c0,0.3,0,0.7-0.2,1c0,0.1,0,0.2,0,0.3l-0.1,0.5c0,0.1,0,0.1,0,0.2c0,0.2,0,0.4,0,0.7c0,0.3,0,0.7,0,1.1c-0.1,0.7-0.1,2.9-0.1,4.4
		c0.1-0.2,0.2-0.4,0.3-0.5l0.2-0.5l-0.1-0.2l0.3-0.2c0-0.1,0.1-0.2,0.1-0.3l0-0.1c0.1-0.3,0.1-0.5,0.2-0.6V47l0.2,0v-0.2l0.1,0
		l0.2-0.6c0-0.1,0.1-0.1,0.1-0.2l0-0.1c0-0.2,0.1-0.3,0.1-0.4c0,0,0-0.1,0.1-0.1V45l0.2,0l0.1-0.3c0,0,0,0,0,0v-0.2l0.1-0.1
		c0,0,0-0.1,0-0.1l-0.1-0.2l0.2-0.2c0-0.2,0-0.3,0.1-0.4L67.5,43.2z"/>
	<path class="st0" d="M61.8,54.6c0-0.1,0-0.3,0-0.4l-0.1-0.1c-0.1-0.1-0.2-0.3-0.1-0.7c0,0,0-0.1,0-0.1c0-0.1,0-0.1,0-0.2
		c0-0.1,0-0.1,0-0.2c-0.1-0.1-0.1-0.1-0.2-0.2c-0.1,0.2-0.3,0.3-0.4,0.4v0L61,53.2c0,0-0.1,0.1-0.1,0.1c0,0,0,0,0,0l-0.2,0.3
		c0,0-0.1,0.1-0.2,0.2l0,0.1l-0.3,0.3c0,0.1-0.1,0.2-0.2,0.2c0,0.1,0,0.1-0.1,0.2V55l-0.2,0.2c0,0,0,0.1-0.1,0.1l0,0l-0.2,0.4
		c0,0-0.1,0.1-0.1,0.1c0,0.1-0.1,0.3-0.2,0.5c0,0.2-0.1,0.3-0.2,0.5l0,0c0,0.2-0.1,0.4-0.2,0.5c0,0.1,0,0.2-0.1,0.3l0,0.1l-0.1,0.1
		c0,0.2-0.1,0.4-0.1,0.5v0c0,0.1,0,0.3-0.1,0.5c0,0-0.1,0.1-0.1,0.2c0,0.3-0.2,0.6-0.3,0.7l0.1,0.2c0,0.2,0,0.4-0.1,0.5
		c0,0.1,0,0.3-0.1,0.4c0,0.2-0.1,0.4-0.1,0.5c0,0.1,0,0.3-0.1,0.4c0.1,0.2,0,0.4,0,0.6c0,0,0.1,0.1,0.1,0.1c0,0,0.1-0.1,0.2-0.2
		l0.1-0.1c0.2-0.2,0.3-0.3,0.5-0.4l0,0c0,0,0,0,0,0c0-0.2,0.2-0.3,0.3-0.5c0,0,0,0,0,0c0.1-0.2,0.2-0.3,0.3-0.4l0.1-0.1
		c0.1-0.1,0.2-0.3,0.3-0.4c0,0,0,0,0,0c0-0.1,0.1-0.3,0.2-0.4l0,0c0-0.1,0-0.2,0.1-0.3c0-0.1,0.1-0.2,0.1-0.3
		c0.1-0.1,0.2-0.2,0.3-0.3c0.1-0.1,0.1-0.3,0.2-0.4c0,0,0,0,0,0c0-0.1,0.1-0.3,0.1-0.3l0-0.6l0.3,0c0,0,0,0,0-0.1c0,0,0,0,0-0.1
		c0-0.2,0.1-0.4,0.4-0.5c0.1-0.2,0.1-0.3,0.2-0.4c0-0.2,0.1-0.3,0.2-0.4c0,0,0,0,0,0c0-0.1,0-0.3,0-0.4l0,0l0.1-0.5c0,0,0,0,0-0.1
		c0,0,0,0,0,0C61.7,55,61.8,54.7,61.8,54.6z"/>
	<polygon class="st0" points="57.1,61.9 57.1,61.9 57.1,61.9 	"/>
	<path class="st0" d="M65.9,38.4l-0.1,0.1C65.9,38.4,65.9,38.4,65.9,38.4c0-0.1,0-0.1,0-0.1C66,38.3,66,38.3,65.9,38.4
		c0.1-0.2,0.2-0.3,0.1-0.5L65.6,38l0.1,0.6C65.9,38.5,65.9,38.5,65.9,38.4z"/>
</g>
</svg>
