<?xml version="1.0" encoding="utf-8"?>
<!-- Generator: Adobe Illustrator 25.1.0, SVG Export Plug-In . SVG Version: 6.00 Build 0)  -->
<svg version="1.1" id="Capa_1" xmlns="http://www.w3.org/2000/svg" xmlns:xlink="http://www.w3.org/1999/xlink" x="0px" y="0px"
	 viewBox="0 0 53.9 53.9" style="enable-background:new 0 0 53.9 53.9;" xml:space="preserve">
<style type="text/css">
	.st0{fill:#12730A;}
</style>
<g>
	<path class="st0" d="M27.1,1.4C13,1.4,1.6,12.9,1.6,26.9S13,52.4,27.1,52.4c14.1,0,25.5-11.4,25.5-25.5S41.1,1.4,27.1,1.4z
		 M27.1,50.4c-13,0-23.5-10.5-23.5-23.5S14.1,3.4,27.1,3.4c13,0,23.5,10.5,23.5,23.5S40,50.4,27.1,50.4z"/>
	<path class="st0" d="M37.9,18.1L23.9,32l-7.4-6.7c-0.4-0.4-1-0.3-1.4,0.1c-0.4,0.4-0.3,1,0.1,1.4l8.1,7.4c0.1,0.1,0.1,0.1,0.2,0.1
		c0,0,0.1,0,0.1,0.1c0.1,0,0.2,0.1,0.4,0.1c0,0,0,0,0,0s0,0,0,0c0.1,0,0.3,0,0.4-0.1c0,0,0.1-0.1,0.1-0.1c0.1,0,0.1-0.1,0.2-0.1
		l14.6-14.6c0.4-0.4,0.4-1,0-1.4S38.2,17.7,37.9,18.1z"/>
</g>
</svg>
