<?xml version="1.0" encoding="utf-8"?>
<!-- Generator: Adobe Illustrator 25.1.0, SVG Export Plug-In . SVG Version: 6.00 Build 0)  -->
<svg version="1.1" id="Capa_1" xmlns="http://www.w3.org/2000/svg" xmlns:xlink="http://www.w3.org/1999/xlink" x="0px" y="0px"
	 viewBox="0 0 108.1 107.8" style="enable-background:new 0 0 108.1 107.8;" xml:space="preserve">
<style type="text/css">
	.st0{fill:#171517;}
</style>
<g>
	<path class="st0" d="M43.8,54.3L43.8,54.3l0.3,0l-0.2-0.2C43.9,54.2,43.8,54.2,43.8,54.3z"/>
	<path class="st0" d="M23.8,57.2L23.8,57.2c0.1,0,0.1-0.1,0.1-0.1c0-0.1,0-0.2,0.1-0.3v-0.1c0,0-0.1,0.1-0.1,0.1
		c0,0.1,0,0.1-0.1,0.1C23.8,57,23.8,57,23.8,57.2C23.8,57.1,23.8,57.1,23.8,57.2L23.8,57.2L23.8,57.2z"/>
	<path class="st0" d="M23.7,59.9C23.7,59.9,23.7,59.9,23.7,59.9C23.7,59.9,23.6,59.9,23.7,59.9L23.7,59.9z"/>
	<path class="st0" d="M24.1,56.2L24,56.1L24.1,56.2C24.1,56.2,24.1,56.2,24.1,56.2z"/>
	<path class="st0" d="M24.9,55.4C24.9,55.3,24.9,55.3,24.9,55.4c0-0.1,0-0.1,0-0.2l-0.1,0c0,0,0,0,0,0c0,0.1-0.1,0.1-0.1,0.2
		c0,0.1,0,0.2-0.1,0.3l0.2-0.1C24.8,55.5,24.8,55.4,24.9,55.4z"/>
	<path class="st0" d="M30,60.4L30,60.4L30,60.4L30,60.4C30,60.4,30,60.4,30,60.4z"/>
	<path class="st0" d="M24,56.2l0.1,0.2c0,0,0,0.1,0,0.1l0.1-0.1c0,0,0,0,0.1,0l0,0c0-0.2,0.1-0.3,0.1-0.3l0.1-0.2l0-0.2c0,0,0,0,0,0
		c0,0,0,0.1,0,0.1C24.4,56.1,24.2,56.3,24,56.2L24,56.2z"/>
	<path class="st0" d="M29.9,60.4C29.9,60.4,30,60.4,29.9,60.4L29.9,60.4C30,60.3,29.9,60.3,29.9,60.4L29.9,60.4z"/>
	<path class="st0" d="M41.2,63.9l0.1-0.2c0,0-0.1,0-0.1,0C41.1,63.8,41.1,63.9,41.2,63.9z"/>
	<path class="st0" d="M42.3,59.5C42.3,59.5,42.3,59.5,42.3,59.5L42.3,59.5C42.3,59.5,42.3,59.5,42.3,59.5z"/>
	<path class="st0" d="M25,55C25,55.1,25,55.1,25,55L25,55C25,55.1,25,55.1,25,55L25,55z"/>
	<path class="st0" d="M37.7,56.1c0,0,0-0.1,0-0.1c0,0,0,0,0-0.1c0,0-0.1-0.1-0.1-0.1h0l-0.2-0.6l0,0c0,0,0,0,0-0.1
		c0-0.1-0.1-0.2-0.1-0.2c-0.1-0.1-0.1-0.2-0.2-0.3c-0.1-0.1-0.1-0.1-0.2-0.2c-0.1-0.1-0.2-0.1-0.3-0.2c0,0,0,0-0.1,0c0,0,0,0,0,0
		c0,0,0,0,0,0c0,0,0,0,0,0.1l-0.1,0.3l-0.1,0c0,0.1-0.1,0.1-0.1,0.2c0,0.1-0.1,0.3-0.2,0.3c0,0,0,0.1,0,0.1c0,0.1,0,0.2,0,0.2
		c0,0.1,0,0.1-0.1,0.2V56c0.1,0,0.1,0.1,0.2,0.1c0.1,0,0.1,0.1,0.2,0.1l0,0h0.2l0,0.1h0.2l0,0.2c0,0,0.1,0,0.2,0
		c0.2,0.1,0.3,0.1,0.4,0.2c0.1,0,0.2,0,0.3,0c0,0,0-0.1,0-0.1c0-0.1-0.1-0.1-0.1-0.2c0-0.1,0-0.2,0.1-0.3c0,0,0,0,0,0
		C37.7,56.3,37.7,56.2,37.7,56.1z"/>
	<path class="st0" d="M36.6,58.5l-0.1,0c-0.1,0-0.3-0.1-0.4-0.2c-0.1,0-0.3,0-0.6-0.2c0,0-0.1-0.1-0.2-0.1l0,0c0,0,0,0,0,0
		c0,0.1,0,0.1-0.1,0.2c0,0.1-0.2,1.5-0.2,1.8c0,0.2,0,0.5,0,0.6c0.1,0.4,0.3,0.8,0.4,0.8l0.1,0c0,0,0.1,0,0.1,0c0.1,0,0.2,0,0.2,0
		c0.1-0.1,0.2-0.2,0.3-0.3c0,0,0.1-0.1,0.1-0.1c0.1-0.2,0.2-0.3,0.3-0.3c0,0,0,0,0,0c0-0.2,0.1-0.3,0.2-0.4c0-0.1,0-0.3,0.2-0.4h0
		c0-0.1,0.1-0.2,0.1-0.2c0,0,0,0,0,0c0-0.1,0-0.1,0-0.2v-0.3l0.2-0.1c0,0,0-0.1,0.1-0.1c0,0,0,0,0,0c0,0,0,0,0-0.1
		c0-0.1,0-0.1,0-0.2c-0.3,0-0.5-0.1-0.6-0.1C36.7,58.6,36.7,58.5,36.6,58.5z"/>
	<path class="st0" d="M33.9,62.7C33.9,62.7,33.9,62.7,33.9,62.7L33.9,62.7L33.9,62.7z"/>
	<path class="st0" d="M36.4,52.3c-0.1,0-0.1,0-0.1,0c0,0,0,0,0,0.1C36.2,52.4,36.3,52.4,36.4,52.3L36.4,52.3z"/>
	<path class="st0" d="M24,56.1l0,0.1C24,56.2,24,56.2,24,56.1L24,56.1z"/>
	<path class="st0" d="M12.5,64.9C12.5,64.9,12.6,64.9,12.5,64.9L12.5,64.9L12.5,64.9z"/>
	<path class="st0" d="M15.8,58.7C15.8,58.7,15.8,58.7,15.8,58.7L15.8,58.7L15.8,58.7z"/>
	<path class="st0" d="M12.2,64.9c0.1,0,0.1,0.1,0.2,0.1v-0.1C12.3,64.9,12.3,64.9,12.2,64.9z"/>
	<path class="st0" d="M13.6,58.2C13.6,58.2,13.6,58.2,13.6,58.2L13.6,58.2C13.6,58.2,13.6,58.2,13.6,58.2z"/>
	<path class="st0" d="M8.1,50.4L8.1,50.4l0,0.1l0.1-0.1c0,0,0,0,0-0.1c0,0,0,0,0,0L8.1,50.4z"/>
	<polygon class="st0" points="17.9,50.7 17.9,50.7 17.9,50.7 	"/>
	<path class="st0" d="M25.3,57.5C25.3,57.6,25.3,57.6,25.3,57.5C25.3,57.6,25.3,57.6,25.3,57.5C25.3,57.5,25.3,57.5,25.3,57.5z"/>
	<path class="st0" d="M7.7,50.6L7.7,50.6c0.1,0,0.1-0.1,0.1-0.1C7.7,50.5,7.7,50.5,7.7,50.6C7.7,50.6,7.7,50.6,7.7,50.6z"/>
	<path class="st0" d="M13.5,52.8l0.8-0.8v0.1c0,0,0,0,0.1,0l0,0c0.1-0.2,0.4-0.4,0.6-0.6c0,0,0,0,0,0c0-0.1,0.1-0.2,0.2-0.2
		c0.1-0.1,0.1-0.1,0.2-0.2l0.1-0.1c0.3-0.3,0.4-0.5,0.5-0.5c0-0.1,0.1-0.1,0.1-0.2v-0.1l0.3-0.2c0-0.1,0.1-0.1,0.1-0.1l0.1-0.1
		c0.1-0.1,0.1-0.2,0.3-0.3c0,0,0,0,0,0c0.1-0.3,0.2-0.5,0.3-0.6c0.1-0.1,0.1-0.2,0.2-0.3l0,0c0-0.1,0.1-0.2,0.1-0.3
		c0,0,0-0.1,0.1-0.1l0-0.1c0-0.1,0.1-0.3,0.2-0.4c0-0.1,0-0.1,0-0.2l0-0.3l0.2-0.1c0-0.1,0-0.1,0-0.2c-0.1-0.1-0.1-0.2,0-0.3l0,0
		l0.1-0.1c0,0,0,0,0,0c0,0-0.1-0.2-0.1-0.3c0,0-0.1-0.1-0.1-0.1c-0.2-0.1-0.2-0.1-0.8-0.1c-0.2,0-0.3,0-0.4,0
		c-0.1,0-0.1,0.1-0.2,0.1c-0.1,0-0.2,0.1-0.3,0c-0.1,0.1-0.2,0.1-0.3,0.1c-0.2,0.1-0.5,0.2-0.6,0.2c-0.1,0-0.1,0.1-0.2,0.1l-0.1,0.1
		c-0.1,0.1-0.3,0.1-0.4,0.1c0,0,0,0-0.1,0l-0.1,0.1l-0.3,0.2C14.1,46.9,14,47,14,47c-0.1,0.1-0.2,0.1-0.3,0.1c0,0-0.1,0.1-0.2,0.1
		c0,0,0,0,0,0c0,0.3,0,0.6-0.1,0.7c0.1,0.1,0.1,0.3,0,0.4c0,0.1,0,0.2,0,0.3c0,0.1-0.1,0.8-0.1,1.2c0,0.2,0,0.3-0.1,0.3l0,0
		c0,0.1,0,0.2,0,0.3c0,0.2,0,0.4,0,0.6c0,0.1,0,0.2,0,0.4c0,0,0,0.7,0,1.4C13.3,52.9,13.3,52.9,13.5,52.8L13.5,52.8z"/>
	<path class="st0" d="M55.7,56.1l0,0.1C55.7,56.2,55.7,56.2,55.7,56.1L55.7,56.1z"/>
	<path class="st0" d="M55.5,57.2L55.5,57.2c0.1,0,0.1-0.1,0.1-0.1c0-0.1,0-0.2,0.1-0.3v-0.1c0,0-0.1,0.1-0.1,0.1
		c0,0.1,0,0.1-0.1,0.1C55.6,57,55.5,57,55.5,57.2C55.5,57.1,55.5,57.1,55.5,57.2L55.5,57.2L55.5,57.2z"/>
	<path class="st0" d="M57,57.5C57,57.6,57,57.6,57,57.5C57,57.6,57,57.6,57,57.5C57,57.5,57,57.5,57,57.5z"/>
	<path class="st0" d="M55.8,56.2l-0.1-0.1L55.8,56.2C55.8,56.2,55.8,56.2,55.8,56.2z"/>
	<path class="st0" d="M56.7,55C56.7,55.1,56.7,55.1,56.7,55L56.7,55C56.7,55.1,56.7,55.1,56.7,55L56.7,55z"/>
	<path class="st0" d="M55.7,56.2l0.1,0.2c0,0,0,0.1,0,0.1l0.1-0.1c0,0,0,0,0.1,0l0,0c0-0.2,0.1-0.3,0.1-0.3l0.1-0.2l0-0.2
		c0,0,0,0,0,0c0,0,0,0.1,0,0.1C56.1,56.1,55.9,56.3,55.7,56.2L55.7,56.2z"/>
	<path class="st0" d="M56.6,55.4C56.6,55.3,56.6,55.3,56.6,55.4c0-0.1,0-0.1,0-0.2l-0.1,0c0,0,0,0,0,0c0,0.1-0.1,0.1-0.1,0.2
		c0,0.1,0,0.2-0.1,0.3l0.2-0.1C56.5,55.5,56.5,55.4,56.6,55.4z"/>
	<path class="st0" d="M74.5,47c0,0,0-0.1,0.1-0.2c0-0.1,0-0.2,0.1-0.3l0-0.1c0-0.1,0-0.2,0.1-0.2c0,0,0-0.1,0-0.1l0.1-0.3l0.1-0.1
		l0-0.2c0,0,0-0.1,0-0.1l0-0.1l0.1-0.1c0,0,0-0.1,0-0.1c0-0.2,0-0.3,0.1-0.4c0-0.1,0.1-0.1,0.1-0.2l0-0.2c0,0,0,0,0-0.1
		c0-0.1,0-0.2,0-0.3c0-0.2,0-0.4,0.1-0.6c0-0.1,0-0.2,0-0.3l0.1-0.1l-0.1,0l0-0.3l0.1-0.2c0-0.1,0-0.2,0.1-0.2l0,0c0,0,0,0,0-0.1
		l0,0v-0.2c0,0,0,0,0-0.1c0-0.1,0-0.2,0-0.3l0,0l0.1-0.2c-0.1-0.1-0.1-0.2-0.1-0.3v-0.2c-0.1-0.1-0.1-0.2-0.1-0.2c0,0-0.1,0-0.1,0
		c0,0.1-0.1,0.2-0.2,0.2c0,0,0,0-0.1,0.1c0,0.1-0.1,0.3-0.2,0.4c0,0.1-0.1,0.1-0.1,0.2l0,0c0,0.1-0.1,0.2-0.1,0.3
		c0,0.1,0,0.1-0.1,0.2l0,0c0,0.1-0.1,0.1-0.1,0.2l0,0.1l-0.1,0.3l-0.1,0c0,0,0,0,0,0l0,0.1c0,0.1,0,0.2-0.1,0.3l-0.1,0.2
		c0,0,0,0,0,0c0,0,0,0,0,0.1c0,0.3-0.2,0.6-0.2,0.6L73.5,44c0,0.2-0.1,0.6-0.2,0.8l0,0c0,0.1-0.1,0.2-0.1,0.3c0,0-0.1,0.2-0.1,0.5
		c0,0.1,0,0.2-0.1,0.3c0,0.1,0,0.2,0,0.4c0,0.2,0,0.5-0.1,0.7c0,0.1,0,0.2,0,0.2l-0.1,0.3c0,0,0,0.1,0,0.1c0,0.1,0,0.3,0,0.5
		c0,0.2,0,0.5,0,0.7c0,0.5-0.1,1.9,0,2.8c0-0.1,0.1-0.2,0.2-0.3l0.1-0.3L73,50.7l0.2-0.2c0-0.1,0.1-0.1,0.1-0.2l0,0
		c0-0.2,0.1-0.3,0.1-0.4v-0.4l0.1,0v-0.1l0.1,0l0.1-0.4c0,0,0-0.1,0-0.1l0,0c0-0.1,0-0.2,0.1-0.2c0,0,0-0.1,0-0.1v-0.3l0.1,0
		l0.1-0.2c0,0,0,0,0,0v-0.1l0.1-0.1c0,0,0-0.1,0-0.1l-0.1-0.1l0.1-0.1c0-0.1,0-0.2,0.1-0.2L74.5,47z"/>
	<path class="st0" d="M84.5,60.3C84.5,60.3,84.5,60.3,84.5,60.3C84.6,60.3,84.6,60.3,84.5,60.3L84.5,60.3
		C84.5,60.3,84.5,60.3,84.5,60.3z"/>
	<path class="st0" d="M84.6,60.3C84.6,60.3,84.6,60.3,84.6,60.3L84.6,60.3L84.6,60.3z"/>
	<polygon class="st0" points="85,59.1 85,59 85,59 	"/>
	<path class="st0" d="M79.4,58.3C79.4,58.3,79.4,58.3,79.4,58.3L79.4,58.3C79.4,58.3,79.4,58.3,79.4,58.3z"/>
	<path class="st0" d="M79.3,54.6c-0.1,0-0.2,0-0.2,0c-0.1,0-0.1,0.1-0.2,0.2c0,0.1-0.1,0.1-0.1,0.2c-0.1,0.1-0.1,0.2-0.2,0.2
		c0,0,0,0,0,0.1l-0.1,0.3l-0.1,0c0,0.1-0.1,0.1-0.1,0.2l0,0.1c0,0-0.1,0.1-0.1,0.3c0,0.1-0.1,0.3-0.2,0.3c0,0.1-0.1,0.3-0.2,0.4
		c0,0.2-0.1,0.4-0.1,0.5l-0.1,0.1c0,0,0,0,0,0c0,0,0,0.1-0.1,0.3c-0.1,0.3-0.2,0.6-0.2,0.7l0,0.1c0,0.1,0,0.2-0.1,0.2l0,0.1
		c0,0,0,0.1,0,0.1c0,0.1-0.1,0.2-0.1,0.3c0,0.1-0.1,0.4-0.1,0.6l0.1-0.2c0-0.1,0-0.1,0-0.2c0,0,0,0,0-0.1v-0.1l0.2-0.2
		c0-0.1,0-0.2,0.1-0.3l0.1-0.1c0,0,0,0,0.1-0.1v-0.3l0.1,0l0.1-0.4l0.2,0.2c0,0,0,0,0,0c0-0.1,0-0.2,0-0.3l0-0.1c0,0,0-0.1,0.1-0.1
		v-0.1l0-0.1c0,0,0.1-0.1,0.1-0.2c0-0.1,0.1-0.1,0.2-0.2c0,0,0-0.1,0.1-0.1c0-0.1,0-0.1,0.1-0.2c0-0.1,0-0.1,0-0.2v0
		c0-0.1,0-0.2,0-0.3l0-0.1l0.2-0.4c0-0.1,0.1-0.2,0.1-0.2c0-0.1,0.1-0.1,0.1-0.2l0,0c0-0.2,0.1-0.3,0.2-0.4l-0.1-0.2L79.3,54.6
		C79.3,54.6,79.3,54.6,79.3,54.6L79.3,54.6z"/>
	<path class="st0" d="M84.2,55.4C84.3,55.4,84.3,55.3,84.2,55.4C84.3,55.3,84.3,55.3,84.2,55.4l0-0.1C84.2,55.3,84.2,55.3,84.2,55.4
		z"/>
	<path class="st0" d="M88,54.4c0-0.1,0-0.2,0-0.3L88,54c-0.1-0.1-0.1-0.2-0.1-0.4c0,0,0,0,0-0.1c0,0,0-0.1,0-0.1c0,0,0-0.1,0-0.1
		c0,0-0.1-0.1-0.1-0.1c-0.1,0.1-0.2,0.2-0.2,0.2v0l-0.1,0.1c0,0,0,0-0.1,0.1c0,0,0,0,0,0l-0.1,0.2c0,0-0.1,0.1-0.1,0.2l0,0.1
		l-0.2,0.2c0,0-0.1,0.1-0.1,0.2c0,0,0,0.1-0.1,0.1v0.2l-0.1,0.1c0,0,0,0,0,0.1l0,0l-0.1,0.2c0,0,0,0.1-0.1,0.1
		c0,0.1-0.1,0.2-0.2,0.3c0,0.1,0,0.2-0.1,0.3l0,0c0,0.1,0,0.2-0.1,0.3c0,0.1,0,0.1,0,0.2l0,0.1l-0.1,0.1c0,0.1,0,0.2-0.1,0.3v0
		c0,0,0,0.2-0.1,0.3c0,0,0,0.1-0.1,0.1c0,0.2-0.1,0.4-0.2,0.5l0.1,0.1c0,0.2,0,0.3-0.1,0.4c0,0.1,0,0.2,0,0.3c0,0.1-0.1,0.3-0.1,0.3
		c0,0.1,0,0.2,0,0.2c0,0.1,0,0.3,0,0.4c0,0,0,0.1,0.1,0.1c0,0,0.1-0.1,0.1-0.1l0,0c0.1-0.1,0.2-0.2,0.3-0.2l0,0c0,0,0,0,0,0
		c0-0.1,0.1-0.2,0.2-0.3c0,0,0,0,0,0c0-0.1,0.1-0.2,0.2-0.2l0.1-0.1c0-0.1,0.1-0.2,0.2-0.3c0,0,0,0,0,0c0-0.1,0.1-0.2,0.1-0.2l0,0
		c0-0.1,0-0.1,0.1-0.2c0-0.1,0-0.1,0.1-0.2c0-0.1,0.1-0.1,0.2-0.2c0-0.1,0.1-0.2,0.1-0.2c0,0,0,0,0,0c0-0.1,0-0.2,0.1-0.2l0-0.4
		l0.2,0c0,0,0,0,0,0c0,0,0,0,0,0c0-0.1,0.1-0.3,0.3-0.3c0-0.1,0.1-0.2,0.2-0.3c0-0.1,0-0.2,0.1-0.3c0,0,0,0,0,0c0-0.1,0-0.2,0-0.3
		l0,0l0.1-0.3c0,0,0,0,0,0c0,0,0,0,0,0C88,54.6,88,54.5,88,54.4z"/>
	<path class="st0" d="M92.8,62.7C92.8,62.7,92.8,62.7,92.8,62.7L92.8,62.7L92.8,62.7z"/>
	<path class="st0" d="M96.7,56.1c0,0,0-0.1,0-0.1c0,0,0,0,0-0.1c0,0-0.1-0.1-0.1-0.1h0l-0.2-0.6l0,0c0,0,0,0,0-0.1
		c0-0.1-0.1-0.2-0.1-0.2c-0.1-0.1-0.1-0.2-0.2-0.3c-0.1-0.1-0.1-0.1-0.2-0.2c-0.1-0.1-0.2-0.1-0.3-0.2c0,0,0,0-0.1,0c0,0,0,0,0,0
		c0,0,0,0,0,0c0,0,0,0,0,0.1l-0.1,0.3l-0.1,0c0,0.1-0.1,0.1-0.1,0.2c0,0.1,0,0.3-0.2,0.3c0,0,0,0.1,0,0.1c0,0.1,0,0.2,0,0.2
		c0,0.1,0,0.1-0.1,0.2V56c0.1,0,0.1,0.1,0.2,0.1c0.1,0,0.1,0.1,0.2,0.1l0,0h0.2l0,0.1h0.2l0,0.2c0,0,0.1,0,0.2,0
		c0.2,0.1,0.3,0.1,0.4,0.2c0.1,0,0.2,0,0.3,0c0,0,0-0.1,0-0.1c0-0.1-0.1-0.1-0.1-0.2c0-0.1,0-0.2,0.1-0.3c0,0,0,0,0,0
		C96.7,56.3,96.7,56.2,96.7,56.1z"/>
	<path class="st0" d="M95.6,58.5l-0.1,0c-0.1,0-0.3-0.1-0.4-0.2c-0.1,0-0.3,0-0.6-0.2c0,0-0.1-0.1-0.2-0.1l0,0c0,0,0,0,0,0
		c0,0.1,0,0.1-0.1,0.2c0,0.1-0.2,1.5-0.2,1.8c0,0.2,0,0.5,0,0.6c0.1,0.4,0.3,0.8,0.4,0.8l0.1,0c0,0,0.1,0,0.1,0c0.1,0,0.2,0,0.2,0
		c0.1-0.1,0.2-0.2,0.3-0.3c0,0,0.1-0.1,0.1-0.1c0.1-0.2,0.2-0.3,0.3-0.3c0,0,0,0,0,0c0-0.2,0.1-0.3,0.2-0.4c0-0.1,0-0.3,0.2-0.4h0
		c0-0.1,0.1-0.2,0.1-0.2c0,0,0,0,0,0c0-0.1,0-0.1,0-0.2v-0.3l0.2-0.1c0,0,0-0.1,0.1-0.1c0,0,0,0,0,0c0,0,0,0,0-0.1
		c0-0.1,0-0.1,0-0.2c-0.3,0-0.5-0.1-0.6-0.1C95.7,58.6,95.6,58.5,95.6,58.5z"/>
	<path class="st0" d="M54.1,0.6C24.7,0.6,0.9,24.4,0.9,53.7c0,29.4,23.8,53.2,53.2,53.2s53.2-23.8,53.2-53.2
		C107.2,24.4,83.4,0.6,54.1,0.6z M20.7,63.2c-0.1,0-0.2,0-0.3,0c-0.3,0-0.5,0-0.7-0.2c-0.1,0-0.2-0.1-0.3-0.1l-0.1-0.1c0,0,0,0,0,0
		l-0.1-0.1c-0.1,0-0.1-0.1-0.2-0.1c-0.1,0-0.2-0.1-0.3-0.2c0,0-0.1,0-0.1-0.1c-0.1,0-0.2-0.1-0.3-0.2c-0.1-0.1-0.2-0.2-0.3-0.3
		c-0.1-0.1-0.3-0.2-0.3-0.2c0,0-0.1-0.1-0.1-0.1c0,0,0,0-0.1-0.1l0,0c0,0-0.2-0.1-0.3-0.3c-0.1-0.1-0.1-0.1-0.2-0.1
		c-0.1,0-0.2-0.1-0.3-0.3l-0.3-0.1l0-0.1c-0.1,0-0.1-0.1-0.2-0.2c0,0-0.1,0-0.1,0c-0.1,0-0.2-0.1-0.3-0.2L15.9,60h-0.1l-0.4-0.4
		c0,0,0-0.1-0.1-0.1c-0.2,0-0.3-0.2-0.4-0.3c-0.1-0.1-0.1-0.1-0.1-0.1h-0.4l0-0.2c-0.1-0.1-0.2-0.1-0.2-0.2h0l-0.3-0.2c0,0,0,0,0,0
		h-0.3l0-0.2c0,0,0,0,0,0c-0.1,0-0.1-0.1-0.2-0.1c0,0-0.1,0-0.1,0l-0.2-0.1c0,0.3,0,0.6,0,1c0,0.8,0,1.3,0,1.5c0,0,0,0,0,0
		c0.1,0.2,0,0.3,0,0.4c0.1,0.5,0,1.6,0,1.6c0,0.1,0,0.1,0,0.2c0,0.1,0,0.2,0,0.3c-0.1,0.8-0.2,1.1-0.3,1.3c0,0,0,0,0,0
		c0,0.1,0,0.1,0,0.2c0,0.2-0.2,0.4-0.4,0.4c-0.2,0-0.4-0.1-0.4-0.3l-0.1-0.2c0,0,0-0.1,0-0.1c-0.1-0.1-0.2-0.2-0.2-0.3
		c-0.1-0.1-0.1-0.2-0.1-0.4c-0.1-0.2-0.1-0.4-0.1-0.8c0,0,0-0.1,0-0.1c-0.1-0.1-0.1-0.2-0.1-0.3c0,0,0-0.1,0-0.1c0,0,0-0.1,0-0.1
		l0-0.1l0,0c0,0,0,0,0-0.1c0,0,0-0.1,0-0.1l0,0c0,0-0.1-0.1-0.1-0.1c0,0,0-0.1,0-0.1l0,0l0-0.3c0-0.1,0-0.2,0.1-0.3
		c0-0.1,0-0.2,0-0.4c0,0,0,0,0-0.1c0-0.1,0-0.1,0-0.2c0,0,0,0,0,0c-0.2-0.3-0.2-0.5-0.1-0.6c0,0,0,0,0-0.1c0-0.1,0-0.1,0-0.2
		c0-0.1-0.1-0.2-0.1-0.2c0,0,0-0.1,0-0.1c0,0,0-0.1,0-0.1c0,0-0.1-0.1-0.1-0.2l0-0.2c0-0.1,0-0.1,0-0.2l-0.6-0.2l0.6-0.3
		c0,0,0-0.1,0-0.1c0-0.1,0-0.2,0-0.2L11,58l0.1-0.1c0,0,0-0.1,0-0.1c0-0.1,0-0.1,0-0.2c0,0,0-0.1,0-0.1c-0.1,0-0.1,0-0.2-0.1
		c-0.1,0.1-0.3,0.1-0.6,0.1c-0.1,0-0.2,0-0.2,0c-0.1,0-0.1,0.1-0.2,0.1h0c-0.3,0.1-0.7,0-0.9-0.2l0,0L8.4,57l0.3-0.4
		c0.1-0.1,0.2-0.1,0.2-0.1c0.1-0.1,0.2-0.1,0.3-0.2c0,0,0.1-0.1,0.2-0.2l0.1,0c0,0,0,0,0,0c0-0.1,0-0.2,0.1-0.3l0.2-0.2l0,0
		c0,0,0,0,0,0l0.2-0.1c0-0.1,0.1-0.1,0.1-0.1c0.1,0,0.1-0.1,0.2-0.1c0,0,0.1-0.1,0.1-0.1l0.1-0.1c0.1,0,0.2-0.1,0.3-0.1h0
		c0,0,0-0.1,0-0.1c0-0.1,0-0.2,0.1-0.4c0-0.1,0-0.2,0-0.4c-0.1-0.2-0.1-0.4,0-0.5c0-0.1,0-0.1,0-0.2c0,0,0,0,0,0
		c-0.1-0.2,0-0.3,0.1-0.4c0-0.1,0-0.2,0-0.3L11,52.6l0.1-0.2c0,0,0-0.1,0-0.1V52l0.1-0.1c0-0.2,0-0.4,0.1-0.6c0,0,0-0.1,0-0.1l0,0
		l0-0.3c0,0,0-0.1,0-0.1c0-0.1,0-0.2,0.1-0.3l0-0.1c0-0.2,0.1-0.3,0.1-0.4c0-0.1,0.1-0.5,0.1-0.5c0-0.1,0-0.2,0.1-0.3
		c0-0.1,0-0.1,0-0.1c0,0,0-0.1,0-0.1c0-0.1,0-0.1,0-0.2c0,0,0-0.1,0-0.2c0-0.1,0-0.2,0.1-0.3c0,0,0-0.1,0-0.1c0,0,0,0,0-0.1
		c0,0,0,0,0,0c-0.1,0.1-0.3,0.3-0.5,0.4c-0.1,0.1-0.1,0.1-0.2,0.2c0,0.1-0.1,0.1-0.2,0.2c-0.1,0.1-0.2,0.2-0.3,0.2
		c-0.1,0.2-0.4,0.5-0.5,0.5l-0.1,0c0,0.2-0.1,0.3-0.2,0.3c0,0,0,0,0,0c-0.1,0.1-0.2,0.2-0.3,0.3c0,0,0,0.1-0.1,0.1v0l0,0.1
		c0,0.1-0.1,0.1-0.2,0.2c0,0,0,0,0,0c0,0.1-0.1,0.2-0.2,0.3c0,0,0,0.1-0.1,0.1c0,0.1-0.1,0.1-0.1,0.2l-0.1,0.1
		c-0.1,0.3-0.3,0.6-0.5,0.7c-0.1,0.1-0.2,0.2-0.5,0.2c-0.3,0-0.5-0.2-0.5-0.3c0,0,0-0.1,0-0.1c-0.1-0.2-0.1-0.4,0-0.5l0,0
		c0,0,0-0.1,0-0.1v-0.1c0-0.1,0-0.2,0.1-0.3c0-0.1,0-0.2,0.1-0.3c0,0,0-0.1,0-0.1l0.1-0.2l0.1,0c0,0,0-0.1,0-0.1l0.1-0.1
		c0,0,0-0.1,0.1-0.1C8,50.1,8,50,8,50c0-0.1,0-0.1,0.1-0.2l0-0.1l0.2-0.2c0-0.1,0.1-0.2,0.2-0.3c0-0.2,0.2-0.3,0.3-0.3l0.1,0
		c0,0,0,0,0,0c0.1-0.1,0.2-0.2,0.3-0.4c0,0,0.1-0.1,0.2-0.2c0-0.1,0.1-0.1,0.2-0.2c0,0,0,0,0,0L9.7,48l0.1,0c0,0,0.4-0.4,0.6-0.6
		l0.1-0.1c0.1,0,0.1-0.1,0.2-0.1c0,0,0.1-0.1,0.1-0.1c0,0,0,0,0,0c0-0.1,0.1-0.2,0.1-0.2c0-0.1,0.1-0.1,0.1-0.1c0,0,0.1,0,0.1,0
		c0-0.1,0.1-0.1,0.2-0.2c0.1-0.1,0.1-0.1,0.2-0.1l0.1,0c0,0,0,0,0.1-0.1v-0.1l0.2,0c0.1,0,0.1-0.1,0.2-0.1c0,0,0,0,0,0
		c0.1-0.1,0.2-0.1,0.3-0.2c0,0,0,0,0,0l0.1-0.1h0.1c0.1-0.1,0.1-0.1,0.2-0.2l0-0.1l0.2-0.1l0.1-0.1h0.1l0-0.1l0.1,0l0.1-0.1l0,0l0,0
		c0.1-0.1,0.2-0.1,0.4-0.2c0.1-0.1,0.2-0.1,0.3-0.2c0.1-0.1,0.2-0.1,0.3-0.2l0.2-0.1l0.1,0l0.1-0.1c0.1,0,0.2-0.1,0.3-0.1
		c0.1-0.1,0.2-0.1,0.3-0.2l0-0.1l0.3,0c0,0,0,0,0,0c0.1-0.1,0.2-0.1,0.2-0.1h0.1c0,0,0,0,0,0l0.1-0.1l0.1,0c0.1-0.1,0.2-0.1,0.3-0.1
		h0.1c0.2-0.1,0.4-0.1,0.5,0l0,0l0.1,0c0.1-0.1,0.2-0.2,0.3-0.2h0c0,0,0,0,0,0c0.2,0,0.3,0,0.5,0.1l0.1-0.1h0.2c0.1,0,0.1,0,0.2,0
		c0.2,0,0.3,0.1,0.4,0.1c0.1,0,0.2,0,0.2,0.1c0,0,0.6,0.4,0.7,0.7c0.1,0.1,0.1,0.3,0.1,0.4c0.1,0.2,0.1,0.4,0.1,0.6h0.1v0.4
		c0,0,0,0.2-0.1,0.5l-0.1,0.8l-0.1,0c0,0.1,0,0.2-0.1,0.2v0.2l-0.1,0c0,0.1-0.1,0.1-0.2,0.2c0,0-0.1,0.1-0.1,0.1
		c0,0.2-0.2,0.6-0.4,0.8c-0.1,0.3-0.4,0.6-0.5,0.7c0,0.1-0.1,0.2-0.1,0.2c0,0,0,0-0.1,0c0,0.1-0.1,0.2-0.2,0.3
		c-0.1,0.1-0.2,0.3-0.3,0.4v0.2l-0.2,0.1l-0.1,0.2l-0.1,0.2l-0.1,0c-0.1,0.1-0.2,0.4-0.4,0.5v0.1L16.8,52c0,0,0,0,0,0
		c0,0-0.1,0.1-0.1,0.1l0,0l-0.3,0.3c0,0-0.1,0.1-0.1,0.1c0,0-0.1,0.1-0.1,0.1c-0.1,0.2-0.3,0.3-0.4,0.4c0,0,0,0,0,0
		c-0.1,0.1-0.3,0.4-0.5,0.5c0,0-0.1,0.1-0.1,0.1c-0.1,0.1-0.2,0.2-0.2,0.2c-0.1,0.1-0.1,0.2-0.2,0.2c-0.1,0.1-0.1,0.2-0.3,0.3v0.2
		l-0.3,0c-0.1,0.1-0.1,0.1-0.2,0.1c-0.1,0.1-0.1,0.1-0.2,0.2c0,0,0,0,0,0c0,0.1-0.1,0.2-0.2,0.3v0.1l-0.2,0.1c0,0,0,0.2,0,0.3
		c0,0,0,0,0,0c0.1,0,0.1,0.1,0.2,0.1c0.1,0,0.1,0,0.2,0.1l0.1,0c0.2,0,0.3,0.1,0.4,0.2h0.1l0.1,0.1c0.3,0,0.6,0.2,0.7,0.3l0,0
		c0,0,0,0,0,0h0.3l0.1,0.1c0.1,0.1,0.2,0.2,0.4,0.3l0.1,0.1c0,0,0,0,0,0c0.1,0,0.2,0.1,0.3,0.2l0.1,0.1c0,0,0.1,0,0.1,0.1l0,0
		l0.1,0.1c0.1,0,0.2,0.1,0.2,0.1l0.7,0.5l-0.1,0.1c0,0,0,0.1,0.1,0.1c0,0,0.1,0,0.1,0.1c0,0,0.1,0.1,0.1,0.1l0.4,0.1l-0.1,0.1
		c0,0,0,0,0,0.1c0.1,0.1,0.2,0.2,0.3,0.2c0.1,0.1,0.1,0.1,0.2,0.2c0.1,0.1,0.2,0.2,0.3,0.4c0.1,0,0.1,0.1,0.1,0.2
		c0.2,0,0.3,0.2,0.5,0.3c0.2,0.2,0.3,0.3,0.4,0.5c0.1,0.1,0.3,0.2,0.4,0.4l0.6,0.6c0.2,0.2,0.3,0.4,0.3,0.5c0.1,0.1,0.2,0.2,0.2,0.4
		c0,0,0,0,0,0.1l0.3,0.7L20.7,63.2z M74.4,51.4c0,0.1-0.1,0.1-0.1,0.2c0,0,0,0.1,0,0.1c0,0.1,0,0.2-0.1,0.3c0,0.1,0,0.2-0.1,0.2
		c0,0,0,0,0,0L74,52.6l-0.1,0c0,0,0,0.1-0.1,0.1c0,0,0,0.1,0,0.1l0,0c0,0.1-0.1,0.1-0.1,0.2l0,0l-0.1,0.2c0,0,0,0.1,0,0.1
		c0,0.1-0.1,0.2-0.1,0.2c0,0.1-0.1,0.2-0.1,0.2c0,0.1-0.1,0.3-0.2,0.4c0,0.1,0,0.2-0.1,0.3c0,0.1-0.1,0.1-0.1,0.2l0,0.1
		c0,0.1,0,0.4,0,0.7c0,0.3,0,0.7,0.1,0.7c0,0.2,0,0.5,0.1,0.8l0,0.5c0,0,0,0.1,0,0.2c0,0.1,0,0.1,0,0.2c0.1,0.6,0.1,0.9,0.1,1
		c0,0.1,0.1,0.4,0.1,1c0,0.5,0.1,1.1,0.3,1.5l0,0.1c0,0,0,0.1,0,0.1c0.1,0.1,0.1,0.3,0.1,0.5c0,0,0,0,0,0c0.1,0.2,0.1,0.4,0.2,0.6
		c0,0,0,0,0,0.1c0,0,0,0.1,0,0.2c0,0,0,0,0,0c0.1,0.2,0,0.6-0.2,0.7c0,0-0.2,0.2-0.4,0.2h-0.2L73,63.6c-0.3-0.1-0.5-0.8-0.5-0.8
		c0,0,0,0,0,0l0,0c-0.1-0.1-0.1-0.3-0.1-0.3c-0.1-0.1-0.1-0.3-0.1-0.5c-0.1-0.1-0.1-0.2-0.1-0.2c0,0,0,0,0,0c0,0-0.1-0.1-0.1-0.1h0
		L72,61.3c0,0,0-0.1,0-0.2l0,0c0,0,0-0.1,0-0.1c-0.1-0.1-0.1-0.2-0.1-0.4c0,0,0,0,0-0.1c-0.1-0.1-0.1-0.2-0.1-0.3
		c0,0-0.1-0.1-0.1-0.2c0-0.1-0.1-0.2-0.1-0.3c0-0.1-0.1-0.2,0-0.3c-0.1-0.1-0.1-0.2-0.1-0.3v-0.2c0,0,0-0.1,0-0.1l-0.1-0.1l0.1-0.2
		c0-0.1,0-0.1,0-0.2l0-0.1l-0.1,0l0-0.2L71.1,58l-0.1,0l-0.2,0.4l-0.1,0c0,0,0,0,0,0.1c0,0,0,0.1-0.1,0.1l0,0.1c0,0,0,0.1-0.1,0.1
		l0,0c0,0-0.1,0.1-0.1,0.1c0,0.1-0.1,0.2-0.2,0.3c0,0.1-0.1,0.2-0.2,0.3c0,0.1-0.1,0.2-0.2,0.2c0,0,0,0.1,0,0.1l-0.1,0.2l-0.2,0
		c0,0,0,0,0,0c-0.1,0.1-0.2,0.3-0.3,0.4v0.1l-0.4,0.2c0,0-0.1,0.1-0.2,0.1C68.7,61,68.6,61,68.4,61c-0.3,0.2-0.8,0.2-0.8,0.2
		c-0.1,0-0.2,0-0.3-0.1c-0.2,0-0.4-0.1-0.4-0.3l-0.1-0.2h-0.1c0,0,0,0.1,0,0.1c0,0-0.1-0.1-0.1-0.2l0,0c0,0-0.1,0.1-0.1,0.1
		c0,0,0,0,0,0c0,0.1-0.1,0.1-0.1,0.2c0,0.2,0,0.3-0.1,0.4c0,0.1,0,0.1-0.1,0.1c0,0.1,0,0.2-0.1,0.3c0,0.1-0.1,0.1-0.1,0.2l0,0.1
		l-0.2,0.1c0,0.1-0.1,0.1-0.1,0.2c-0.1,0.2-0.3,0.3-0.4,0.4l-0.1,0.1c-0.1,0.1-0.2,0.1-0.3,0.2c-0.2,0.1-0.4,0.1-0.6,0l-0.1,0
		c-0.3-0.1-0.5-0.4-0.6-0.6c0-0.1,0-0.2,0-0.2c0,0,0,0,0,0c-0.1-0.2-0.2-0.5-0.1-0.8c-0.2-0.2-0.2-0.3-0.1-0.5l0-0.1l-0.1-0.1
		c-0.1-0.1-0.1-0.3,0-0.5c0,0,0-0.1,0-0.1c0-0.1,0-0.3,0-0.3c0,0,0,0,0,0l0-0.1l0-0.1c0-0.1,0-0.3,0.1-0.4c0,0,0-0.1,0-0.1
		c0-0.1-0.1-0.2,0-0.4c0,0,0,0,0,0c0-0.1-0.1-0.2-0.1-0.3c0-0.1,0-0.2,0.1-0.3c0-0.1-0.1-0.2-0.1-0.3c0-0.2,0.1-0.3,0.2-0.4
		c0-0.1,0-0.3,0.1-0.4c0-0.1,0-0.1,0-0.2l0,0l0.1-0.3c0,0,0-0.1,0-0.1v-0.1l0-0.1c0,0,0,0,0,0c0-0.1,0-0.2,0-0.3c0,0,0-0.1,0-0.1
		c0-0.1,0-0.2,0-0.3l-0.1-0.1l0.1-0.3c0-0.1-0.1-0.3,0.1-0.4l0,0c0,0,0,0,0,0l-0.1-0.2l0.1-0.2c0,0,0,0,0,0c0-0.1,0-0.1,0.1-0.2
		c0-0.1,0-0.2,0-0.4c0,0,0-0.2,0-0.3c0,0,0,0,0,0l-0.3,0.3l0,0c0,0.1-0.1,0.2-0.2,0.3c0,0,0,0.1-0.1,0.1L63,54.3l-0.1,0
		c0,0,0,0.1-0.1,0.1c0,0.1-0.1,0.1-0.1,0.2c0,0.2-0.1,0.3-0.2,0.4c0,0.1-0.1,0.2-0.1,0.3l-0.1,0c0,0,0,0.1,0,0.1
		c0,0.2-0.2,0.5-0.3,0.6c0,0,0,0.1-0.1,0.2c0,0.1,0,0.2-0.1,0.3v0.2l-0.1,0c0,0,0,0.1,0,0.1c0,0.1,0,0.2-0.1,0.3l0,0.1
		c0,0.1,0,0.1-0.1,0.2c0,0.1-0.1,0.2-0.1,0.3c0,0.1,0,0.1,0,0.2c0,0,0,0.1,0,0.1c0,0,0,0.1,0,0.1c0,0.2,0,0.3-0.1,0.4
		c0,0,0,0.1,0,0.1l0,0.1c0,0,0,0.1,0,0.1c0,0.1,0,0.3-0.1,0.4c0,0.1,0,0.2-0.1,0.3c0,0.2,0,0.3,0,0.5c-0.1,0.5-0.2,2.3-0.1,3
		c0.1,0.6,0.1,0.9-0.2,1.2c-0.1,0.1-0.2,0.2-0.4,0.2c0,0.1-0.1,0.1-0.2,0.1c0,0-0.1,0.1-0.3,0.1c0,0-0.1,0-0.1,0c0,0-0.1,0-0.1-0.1
		c-0.1,0-0.2-0.1-0.3-0.1l-0.3-0.3l0.1-0.1l-0.1-0.3c0-0.1,0-0.2,0-0.3c-0.1-0.2-0.1-0.4,0-0.5c0,0,0,0,0,0l0-0.1c0-0.1,0-0.1,0-0.2
		l0,0c-0.1-0.1-0.1-0.2-0.1-0.4v-0.3l0.1,0c0-0.1,0-0.2,0-0.4c0,0,0-0.1,0-0.1l-0.2-0.3l0.1-0.1c-0.1-0.1-0.1-0.2,0-0.3l0-0.1
		c0-0.1-0.1-0.1-0.1-0.3c0-0.1,0-0.1,0-0.1c-0.1-0.1-0.1-0.2-0.1-0.3v-0.3l0.1,0c-0.1-0.1-0.1-0.2-0.1-0.3l0-0.2c0,0,0,0,0,0
		c0,0,0,0,0,0c0,0.1-0.1,0.1-0.1,0.2c0,0.1-0.1,0.1-0.2,0.2c0,0-0.1,0-0.1,0.1l0,0c0,0,0,0-0.1,0.1c-0.1,0.1-0.2,0.2-0.3,0.3
		c0,0,0,0-0.1,0l0,0l-0.4,0.4c-0.1,0.1-0.1,0.1-0.2,0.1c-0.1,0.1-0.2,0.2-0.3,0.2l0,0c-0.1,0.2-0.2,0.2-0.2,0.2l0,0
		c-0.1,0.1-0.1,0.1-0.2,0.1c0,0,0,0-0.1,0c-0.1,0.1-0.4,0.3-0.6,0.4c-0.1,0-0.2,0.1-0.2,0.1c-0.1,0.1-0.2,0.1-0.3,0.2
		c-0.1,0.1-0.2,0.2-0.4,0.2c0,0,0,0,0,0h0c-0.1,0.1-0.5,0.1-0.6,0.1L54,62.3l-0.3-0.1c-0.2,0-0.3,0-0.4-0.1H53c0,0.1,0,0.1-0.1,0.1
		l-0.1,0.1c-0.1,0.2-0.2,0.3-0.2,0.4l-0.1,0.1c-0.1,0.1-0.2,0.2-0.3,0.2l0,0c0,0-0.1,0.1-0.2,0.1l0,0l-0.1,0.1
		c-0.1,0-0.1,0.1-0.2,0.1l0,0c0,0-0.2,0.1-0.3,0.1c-0.2,0-0.5-0.1-0.6-0.1C50.2,63.1,50,63,50,62.8c0,0,0,0-0.1-0.1
		c-0.1-0.1-0.2-0.3-0.2-0.4l0-0.1c0-0.1-0.1-0.1-0.1-0.3c-0.1-0.1-0.1-0.2-0.1-0.3l0,0l-0.1-0.4l0,0c0-0.1-0.1-0.2-0.1-0.3
		c-0.1-0.1-0.1-0.2-0.1-0.3c0-0.1,0-0.2,0.1-0.4c0,0,0-0.1,0-0.2c0,0-0.1-0.1-0.1-0.2l-0.1,0l0-0.3c0-0.1,0-0.1,0.1-0.2
		c0,0,0-0.1,0-0.1c0,0,0-0.1,0-0.2c0,0,0-0.1,0-0.2l-0.1-0.1l0.1-0.1c0,0,0,0,0,0c0-0.1,0-0.1,0-0.2l0,0l-0.2-0.4l0.2-0.2v0v-0.1
		c0-0.1,0-0.2,0.1-0.3l0,0l0-0.3c0,0,0,0,0-0.1c0-0.1,0-0.1,0-0.2c0-0.1,0-0.1,0-0.2l0-0.1c0,0,0,0,0-0.1v0l-0.1,0.1
		c0,0,0,0.1-0.1,0.1c0,0,0,0.1,0,0.1c0,0,0,0.1,0,0.1c0,0.1,0,0.3-0.1,0.4c0,0.1,0,0.3-0.1,0.5l0,0c0,0,0,0.1,0,0.1
		c0,0.1,0,0.3-0.1,0.4c0,0.1,0,0.2-0.1,0.4c0,0.1,0,0.1,0,0.2v0.1c0,0.1,0,0.2-0.1,0.3c0,0.3-0.1,0.9-0.3,1.2l0,0
		c0,0,0.1-0.1,0.1-0.1c0,0.2,0,0.5-0.2,0.6v0.1c0,0.3-0.2,0.5-0.4,0.5c-0.1,0.1-0.1,0.1-0.2,0.1c-0.1,0.1-0.2,0.1-0.6,0.1
		c-0.1,0-0.2,0-0.4-0.1l-0.8,0l0.4-0.4c0-0.1-0.1-0.1-0.1-0.2l-0.1-0.1l0-0.2c0,0,0,0,0-0.1l-0.2,0.2v-1.1c-0.1-0.1-0.1-0.2,0-0.3
		c0,0,0-0.1,0-0.1c0,0,0,0,0,0l0,0c-0.1-0.2-0.1-0.4-0.1-0.6c0-0.1,0-0.1,0-0.1C45,58.8,45,58.6,45,58.5l0,0
		c-0.1-0.1-0.1-0.2-0.1-0.3c0-0.1,0-0.1-0.1-0.1c0-0.1-0.1-0.3,0.1-0.5c0,0,0,0,0-0.1c0-0.1,0-0.1,0-0.2c0-0.1,0-0.1,0-0.2
		c-0.1-0.1-0.1-0.2-0.1-0.3h0c0,0,0,0,0,0c0,0.1-0.1,0.2-0.1,0.3c0,0.1,0,0.1,0,0.2l0,0c0,0.2-0.1,0.4-0.2,0.5c0,0.2,0,0.4-0.1,0.7
		c0,0.1-0.1,0.3-0.1,0.4c0,0.1,0,0.3-0.1,0.4v0.4l-0.1,0c0,0.1-0.1,0.2-0.1,0.3c0,0,0,0,0,0.1c0,0.2,0,0.3-0.1,0.5l0,0
		c0,0,0,0.1,0,0.1l0,0c0,0.2,0,0.5-0.1,0.7c0,0.1-0.1,0.2-0.1,0.3c0,0,0,0.1,0,0.1c0,0.2,0,0.3-0.1,0.4l0,0c0,0.2,0,0.3-0.1,0.5
		c0,0,0,0,0,0.1c0,0.3-0.1,1-0.4,1.3c0,0.1-0.1,0.2-0.2,0.3l0,0l-0.5,0.2c0,0-0.2,0.1-0.4,0.1c-0.1,0-0.3-0.1-0.5-0.2l-0.1,0
		c-0.1-0.1-0.3-0.2-0.3-0.4c0-0.1,0-0.2,0-0.2c0,0-0.1,0-0.1-0.1l-0.3-0.3l0.1-0.1l-0.1-0.1l0.1-0.1l-0.1-0.3
		c-0.1-0.1-0.1-0.2-0.1-0.4v-0.1c0-0.1,0-0.1,0-0.2v0l0,0l0-0.3l-0.2-0.3l0.1-0.1c0-0.1,0-0.1,0.1-0.2c0,0,0,0,0,0
		c-0.1-0.2,0-0.3,0-0.4c0,0-0.1-0.1-0.1-0.1l-0.1-0.2l0,0c0-0.1,0-0.2,0-0.2c0,0,0,0,0-0.1c-0.1-0.2-0.1-0.4,0-0.5
		c0-0.1,0-0.2,0-0.2c0-0.1,0-0.1,0-0.2l0,0l0-0.1h0l0-0.1c-0.1-0.1,0-0.2,0-0.3l0,0c0-0.1,0-0.2,0.1-0.2l0-0.1l0,0c0,0,0,0,0-0.1
		c0,0,0,0,0-0.1l0,0h-0.2c0,0-0.1,0-0.1,0c-0.1,0.1-0.2,0.2-0.3,0.2c0,0,0,0-0.1,0l-0.1,0h-0.1c-0.1,0-0.3,0.1-0.4,0.2
		c0,0.1,0,0.1,0,0.1l0,0.2c0,0,0,0,0,0.1l0,0.1l-0.1,0.2c0,0.1,0,0.2-0.1,0.4l0,0.1L38.6,60l0,0.1c0,0.2-0.1,0.3-0.2,0.4
		c0,0.1,0,0.1-0.1,0.2l0,0l0,0l-0.1,0.1c0,0.1-0.1,0.1-0.2,0.2c0,0-0.1,0.1-0.1,0.1c0,0.1-0.1,0.1-0.1,0.2c0,0.1-0.1,0.2-0.1,0.2
		l0,0c0,0.1-0.1,0.2-0.2,0.2c0,0,0,0,0,0v0.2l-0.2,0c0,0,0,0,0,0l0,0.1c-0.1,0.2-0.2,0.3-0.4,0.3l-0.1,0.1l0,0c0,0,0,0,0,0l0,0
		l-0.1,0.1c-0.1,0.1-0.2,0.1-0.3,0.2c0,0-0.1,0.1-0.2,0.1c-0.1,0.1-0.2,0.2-0.4,0.2c0,0-0.1,0-0.1,0c0,0,0,0,0,0
		c-0.1,0.1-0.2,0.1-0.3,0.1c-0.1,0-0.2,0-0.3,0c-0.1,0-0.3,0-0.5-0.1c-0.1,0-0.3-0.1-0.3-0.1l0,0h-0.3l0-0.3c0,0,0,0,0-0.1l0,0
		l-0.2-0.3l-0.2-0.3l0.1-0.1c0,0,0,0,0,0c0,0-0.1-0.1-0.1-0.1c0-0.1,0-0.1-0.1-0.2c0-0.1-0.1-0.1-0.1-0.2c0,0,0-0.1-0.1-0.1l0-0.1
		v-0.1c0,0,0-0.1,0-0.1c0,0,0,0,0,0c0-0.1-0.1-0.2-0.1-0.4l0,0l0-0.2c0,0,0-0.1,0-0.1c0-0.1,0-0.1,0-0.2l0-0.1l0,0
		c0-0.1,0-0.1,0-0.2c0,0,0,0,0,0.1l-0.1,0.2l-0.1,0c0,0.1-0.1,0.2-0.2,0.2l0,0c0,0.1-0.1,0.1-0.2,0.2L32.1,61
		c-0.1,0.1-0.1,0.1-0.2,0.1c-0.3,0.2-0.5,0.4-0.5,0.4l-0.3,0.2l0,0c-0.1,0.1-0.2,0.1-0.3,0.1c-0.3,0.2-0.7,0.3-1,0.3
		c-0.1,0-0.2,0-0.3,0c-0.1,0-0.2,0.1-0.2,0.1H29l0,0c-0.1,0-0.1,0-0.2,0c-0.2,0-1-0.2-1.1-0.6c-0.1-0.1-0.2-0.2-0.3-0.3l-0.1-0.1
		l0,0c-0.1-0.1-0.1-0.1-0.1-0.2c-0.1-0.1-0.1-0.2-0.1-0.3c0,0,0-0.1-0.1-0.1c-0.1-0.1-0.1-0.3-0.1-0.4l-0.1-0.2l0.1-0.1
		c-0.1-0.1-0.1-0.2-0.1-0.3c0,0,0,0,0,0l0,0c0,0-0.1,0.1-0.1,0.1c0,0-0.1,0-0.1,0.1l0,0c0,0,0,0-0.1,0.1c-0.1,0.1-0.2,0.2-0.3,0.3
		c0,0,0,0-0.1,0l0,0l-0.4,0.4c-0.1,0.1-0.1,0.1-0.2,0.1c-0.1,0.1-0.2,0.2-0.3,0.2l0,0c-0.1,0.2-0.2,0.2-0.2,0.2l0,0
		c-0.1,0.1-0.1,0.1-0.2,0.1c0,0,0,0-0.1,0c-0.1,0.1-0.4,0.3-0.6,0.4c-0.1,0-0.2,0.1-0.2,0.1c-0.1,0.1-0.2,0.1-0.3,0.2
		c-0.1,0.1-0.2,0.2-0.4,0.2c0,0,0,0,0,0h0c-0.1,0.1-0.5,0.1-0.6,0.1l-0.1,0.1L22,62.2c-0.2,0-0.3,0-0.4-0.1h-0.4l0-0.4
		c-0.1-0.1-0.2-0.2-0.2-0.4l-0.1-0.2c-0.1-0.1-0.1-0.2,0-0.3c0,0,0-0.1,0-0.1v-0.4l0.1,0c0-0.1,0-0.1,0-0.2c0,0,0,0,0,0l0,0l0,0
		c-0.1-0.1-0.1-0.2-0.1-0.3v-0.2l0.2-0.2c0-0.1,0-0.2,0-0.3l0-0.1c0,0,0,0,0,0c0-0.1,0-0.2,0.1-0.3c0-0.1,0-0.1,0-0.2l0-0.1
		c0-0.1,0-0.2,0.1-0.3V58l0.1,0c0,0,0-0.1,0-0.1c0-0.1,0-0.1,0-0.2c0,0,0,0,0,0l0.1-0.3l0.1,0c0,0,0,0,0,0l0.1-0.2l-0.1-0.1l0.1-0.1
		l0,0l0.3-0.3c0-0.2,0.1-0.3,0.2-0.4L22.1,56l0.2-0.3c0-0.2,0.2-0.4,0.4-0.5c0,0,0,0,0-0.1l0.1-0.2c0,0,0.1-0.1,0.1-0.1
		c0-0.2,0.1-0.3,0.2-0.4c0.1-0.1,0.2-0.2,0.4-0.3c0,0,0,0,0,0c0-0.1,0.1-0.2,0.2-0.3l0.1-0.1c0,0,0.1-0.1,0.1-0.1
		c0,0,0.1-0.1,0.2-0.1l0-0.1c0.1-0.1,0.1-0.2,0.2-0.3l0.1-0.1v-0.6l0.4,0.3c0,0,0,0,0.1,0c0,0,0.1-0.1,0.1-0.1l0.1-0.1l0.1-0.1
		l0.3,0.1c0.1,0,0.2,0,0.3,0c0.3,0,0.8,0.2,0.9,0.5c0.2,0.3,0.2,0.8,0.2,1.1c0.1,0.1,0.1,0.3,0,0.5c0,0,0,0,0,0c0,0.1,0,0.1,0,0.2
		l0,0c0,0,0,0.1,0,0.1c0,0,0,0,0,0v0.1l0,0.1c0,0,0,0.1-0.1,0.1v0.2l-0.1,0.1c0,0.1-0.1,0.2-0.1,0.3c0,0,0,0.1-0.1,0.1c0,0,0,0,0,0
		v0.2l-0.1,0.1c0,0.1,0,0.1-0.1,0.2l-0.2,0.2l0,0c0,0.1-0.1,0.1-0.1,0.1c0,0.1-0.1,0.2-0.2,0.2l0,0.1c0,0.2-0.2,0.4-0.3,0.5l0,0
		c0,0.1-0.1,0.2-0.2,0.2c-0.1,0.1-0.2,0.3-0.4,0.4c0,0,0,0.1-0.1,0.1l0,0c0,0.1-0.1,0.1-0.1,0.2c0,0-0.1,0.1-0.2,0.2
		c0,0.1-0.1,0.1-0.1,0.1c-0.1,0.2-0.2,0.3-0.4,0.4c-0.1,0.1-0.1,0.2-0.2,0.3l-0.1,0.1c0,0-0.1,0.1-0.2,0.2c-0.1,0.1-0.3,0.3-0.5,0.4
		c0,0-0.1,0-0.1,0.1c0,0,0,0,0,0.1c0.1,0,0.1-0.1,0.2-0.1c0,0,0.1-0.1,0.1-0.1c0.1,0,0.1-0.1,0.2-0.1l0-0.1l0.1,0
		c0.1-0.1,0.2-0.1,0.3-0.2c0,0,0,0,0,0l0.2-0.1l0.1,0c0,0,0,0,0,0c0-0.1,0.1-0.2,0.2-0.3c0.1-0.1,0.3-0.2,0.4-0.2c0,0,0,0,0,0
		c0,0,0,0,0-0.1c0.1-0.1,0.2-0.2,0.3-0.3c0-0.1,0.1-0.1,0.1-0.2l0.1-0.1c0.1-0.1,0.2-0.2,0.3-0.2c0,0,0,0,0,0
		c0.1-0.1,0.4-0.4,0.5-0.6c0.2-0.3,0.5-0.5,0.6-0.6c0,0,0,0,0.1-0.1l-0.1-0.1l0.4-0.2l0-0.1c0-0.1,0-0.1,0-0.2l0,0c0,0,0-0.1,0-0.1
		c0-0.1,0.1-0.3,0.3-0.4c0-0.2,0.1-0.4,0.2-0.5c-0.1-0.1-0.1-0.2,0-0.3c0,0,0-0.1,0-0.1v-0.1h0.1c0,0,0,0,0,0
		c0.1-0.1,0.2-0.2,0.3-0.2c0.1-0.2,0.2-0.7,0.5-0.8v-0.1h0.1c0,0,0.1-0.1,0.1-0.1c0,0,0.1-0.1,0.1-0.1c0-0.1,0.1-0.1,0.2-0.2
		l0.1-0.1c0.1-0.1,0.1-0.1,0.1-0.2c0-0.1,0.1-0.2,0.3-0.3c0.1-0.1,0.2-0.2,0.3-0.3c0.1-0.1,0.2-0.2,0.3-0.2c0.1,0,0.2,0,0.3,0
		c0.3,0,0.6,0.1,0.7,0.3c0.1,0.1,0.1,0.1,0.1,0.2c0.1,0.1,0.1,0.2,0.2,0.3l0.1,0.2c0,0,0,0.1,0,0.1c0,0.1,0.1,0.2,0,0.4v0
		c0,0,0,0.1,0,0.2c0.1,0.1,0.1,0.3,0.1,0.4l0,0.1l0,0c0,0.1,0,0.2-0.1,0.3v0.2L31.5,55c0,0.1-0.1,0.2-0.2,0.3
		c-0.1,0.1-0.2,0.1-0.3,0.1c-0.1,0-0.2,0.1-0.3,0.1c-0.3,0-0.4-0.1-0.4-0.2c-0.1-0.2-0.1-0.4-0.1-0.4c-0.1,0.3-0.3,0.6-0.4,0.7
		c0,0,0,0,0,0c0,0.2,0,0.5-0.2,0.7c0,0.1,0,0.2-0.1,0.4c0,0.1,0,0.3-0.1,0.4c0,0,0,0.1,0,0.1c0,0.1,0,0.2-0.1,0.3
		c0,0.1,0,0.2-0.1,0.3c0,0.1,0,0.3-0.1,0.4l0,0v0.1c0,0.1,0,0.2,0,0.2c0,0.1,0,0.3,0,0.6c0,0.4,0,0.7,0,0.7c0,0.1,0.1,0.1,0.1,0.2
		c0.1,0,0.1,0.1,0.1,0.1c0.1,0,0.1,0.1,0.2,0.1l0.2,0.1c0,0,0.1,0,0.1,0c0.1-0.1,0.2-0.1,0.3-0.1h0.1c0,0,0.1,0,0.1,0c0,0,0,0,0.1,0
		c0,0,0.1,0,0.1,0l0.2-0.1l0.1,0c0.1,0,0.1-0.1,0.2-0.1l0,0c0,0,0.1-0.1,0.2-0.1c0.1-0.1,0.2-0.2,0.2-0.2c0.1-0.2,0.2-0.3,0.4-0.4
		c0.1-0.1,0.2-0.1,0.2-0.2c0.1-0.2,0.2-0.3,0.3-0.3c0,0,0,0,0-0.1l0-0.1c0.1-0.1,0.1-0.2,0.2-0.3c0.1-0.2,0.1-0.3,0.2-0.4
		c0,0,0,0,0,0c0-0.2,0.1-0.3,0.2-0.4l0,0c0-0.1,0-0.1,0.1-0.2c0-0.1,0.1-0.1,0.1-0.2l0,0l0.1-0.2c0,0,0-0.1,0.1-0.1l0,0c0,0,0,0,0,0
		c0,0,0,0,0,0c0-0.1,0-0.2,0.1-0.3l0.1-0.1v-0.1l0.1,0l0.2-0.3c0,0,0-0.1,0-0.1c0,0,0,0,0-0.1c0-0.2,0-0.4,0.1-0.5
		c0-0.1,0.1-0.2,0.2-0.3c0,0,0-0.1,0-0.1c0-0.2,0-0.3,0.1-0.4c0-0.1,0.1-0.2,0.1-0.3c0.1-0.1,0.2-0.3,0.4-0.4c0,0,0.1-0.1,0.1-0.1
		c0.1-0.1,0.2-0.2,0.3-0.2c0,0,0.1-0.1,0.1-0.1c0.1-0.2,0.2-0.3,0.4-0.4c0.1,0,0.2-0.1,0.2-0.2c0,0,0.1-0.1,0.1-0.1
		c0-0.1,0.1-0.2,0.2-0.3c0.1-0.1,0.2-0.1,0.2-0.2l0.2-0.1l0.1,0.1c0.1,0,0.1-0.1,0.2-0.1h0.4v0.4c0,0,0,0,0.1,0.1l0,0.1c0,0,0,0,0,0
		l0,0l0,0.1c0.1,0,0.2,0,0.2,0.1c0.1,0,0.2,0.1,0.4,0.2c0,0,0.1,0.1,0.2,0.2c0.1,0,0.1,0.1,0.1,0.1c0.1,0.1,0.2,0.1,0.3,0.3
		c0.1,0.1,0.2,0.4,0.3,0.5l0,0c0.2,0.2,0.2,0.3,0.3,1c0.1,0.2,0.1,0.4,0,0.5c0.1,0.2,0.1,0.9,0.1,1.3c0,0.1,0,0.1,0,0.1
		c0.1-0.1,0.2-0.2,0.4-0.2c0,0,0,0,0,0c0,0,0-0.1,0.1-0.1v-0.2l0.3,0c0.1-0.1,0.2-0.1,0.2-0.2c0,0,0,0,0.1-0.1c0,0,0,0,0-0.1
		c0,0,0-0.1,0-0.1l0-0.2l0.1-0.1c0,0,0-0.1,0-0.2c0-0.1,0-0.2,0-0.3c0,0,0-0.1,0-0.1l-0.1-0.1l0-0.3l0.1-0.3c0-0.1,0-0.2,0.1-0.3
		c0,0,0,0,0,0l0-0.1l-0.1-0.3l0.1-0.1c0,0,0-0.1,0-0.1c0-0.2,0-0.5,0-0.6c-0.1-0.2,0-0.3,0.1-0.5c0-0.1,0-0.2,0-0.2l0-0.3
		c0-0.1,0.1-0.2,0.1-0.3c-0.1-0.3,0-0.6,0.1-0.8c0.1-0.1,0.2-0.2,0.3-0.3l0.1-0.1c0-0.1,0.1-0.2,0.3-0.3c0.2-0.1,0.4,0.1,0.4,0.2
		l0.1,0.1c0.1,0.1,0.1,0.2,0.1,0.3c0.1,0.2,0.1,0.3,0,0.6c0,0.1,0,0.2,0,0.2c0,0.1,0.1,0.2,0.1,0.3c0,0,0,0.1,0,0.1l0,0.2
		c0,0.1,0,0.3,0,0.6c0,0.3,0,0.6-0.1,0.8c0.1,0.2,0.1,0.6,0,0.8c0.1,0.2,0,0.5,0,0.5l0,0.1c0.1,0.6,0,1.6,0,2
		c0.1,0.2,0.1,0.4,0.1,0.6c0,0.5,0,1,0,1.5l0.1-0.2c0-0.1,0.1-0.2,0.1-0.3c0-0.1,0-0.2,0.1-0.2c0-0.1,0-0.2,0.1-0.3
		c0.1-0.2,0.1-0.3,0.1-0.4c0-0.1,0-0.2,0.1-0.3c0,0,0,0,0,0c0-0.1,0-0.3,0.1-0.4l0,0l0.1-0.1l0,0c0-0.1,0-0.3,0.1-0.4
		c0-0.1,0.1-0.2,0.1-0.3c0-0.1,0-0.1,0.1-0.2c0-0.1,0-0.3,0.2-0.4c0-0.1,0.1-0.2,0.2-0.3c0-0.1,0-0.3,0-0.4c-0.1-0.1,0-0.3,0-0.4
		l0.1-0.2v-0.1l0.1,0l0-0.1c0-0.1,0-0.1,0.1-0.2l0-0.1l0.2-0.3c0,0,0,0,0-0.2c0-0.2,0.1-0.3,0.2-0.4c0-0.1,0.1-0.3,0.2-0.3l0,0
		c0.1-0.2,0.2-0.3,0.4-0.3c0,0,0,0,0.1,0c0-0.1,0.1-0.1,0.1-0.2c0-0.1,0.1-0.1,0.1-0.2c0.1-0.2,0.3-0.2,0.4-0.2c0,0,0,0,0,0l0.3-0.1
		l0.4,0.4l0,0.1c0.1,0.2,0.1,0.3,0.2,1.1c0,0.1,0,0.2,0,0.3c0.1,0.1,0.1,0.3,0.1,0.4c0,0.1,0,0.2,0,0.3c0,0.1,0.1,0.3,0.1,0.8v0.2
		c0.1,0.2,0.1,0.6,0.1,0.7c0,0.1,0,0.2,0,0.3v0c0,0.1,0,0.3,0,0.6c0,0.2,0,0.3,0,0.4l0,0.1c0,0,0.1,0.2,0.1,0.4c0,0,0,0.1,0,0.1
		c0,0,0,0.1,0,0.1c0,0,0,0,0,0c0-0.1,0-0.2,0-0.3v-0.2l0.1-0.1c0,0,0-0.1,0-0.1l0,0c0-0.1,0-0.2,0.1-0.2c0-0.2,0.1-0.3,0.1-0.5
		c0,0,0,0,0,0c0-0.1,0-0.1,0.1-0.2c0-0.1,0-0.2,0.1-0.4c0,0,0,0,0-0.1v-0.4l0.1,0c0,0,0-0.1,0.1-0.1c0-0.1,0-0.2,0-0.3c0,0,0,0,0,0
		c0-0.1,0-0.3,0.1-0.4c0-0.1,0-0.2,0.1-0.3c0-0.1,0-0.1,0-0.2l0-0.1l0.2-0.2c0,0,0,0,0,0c0-0.1,0-0.3,0.1-0.3c0-0.1,0-0.2,0.1-0.3
		l0,0c0,0,0-0.1,0-0.1l-0.1-0.2l0.2-0.2v-0.1l0.1-0.1c0-0.1,0-0.2,0.1-0.3c0.1-0.1,0.1-0.2,0.2-0.3l0.1-0.2l0.2,0
		c0,0,0.1-0.1,0.1-0.1l0.2-0.2l0,0l0.2-0.2l0,0l0.1-0.1h0.3l0.1,0.1c0.1,0,0.1,0.1,0.2,0.2c0,0,0.1,0.1,0.1,0.2c0,0,0.1,0.1,0.1,0.1
		c0,0.1,0,0.1,0,0.2c0.2,0.3,0.2,0.8,0.2,0.9c0,0.1,0,0.6,0.1,1l0,0.3c0,0.2,0,0.4,0,0.4l0,0.2c0,0.1,0,0.4,0,1.1
		c0,0.4,0.1,0.9,0.1,1.1c0,0.1,0,0.2,0,0.2c0,0.1,0,0.1,0,0.2c0,0.3,0,0.5,0,0.7c0,0.1,0,0.2,0,0.3c0,0.4,0,0.7,0,0.9
		c0.1,0.1,0.1,0.2,0.1,0.3c0,0.1,0,0.1,0,0.2c0,0.1,0,0.2,0,0.4c0.1,0.5,0.1,0.9,0.2,1.1l0,0.1c0,0.1,0,0.1,0,0.2
		c0,0.1,0.1,0.1,0.1,0.2c0-0.1,0.1-0.2,0.2-0.2c0-0.1,0.1-0.1,0.1-0.1c0-0.2,0.1-0.4,0.1-0.4l0-0.1l0.2-0.2c0,0,0,0,0.1,0l0.1-0.2
		c0,0,0,0,0,0c0-0.1,0-0.2,0.1-0.2c0,0,0,0,0,0c0-0.1,0.1-0.3,0.2-0.4c0,0,0,0,0,0c0,0,0,0,0,0c0-0.1,0-0.2,0.1-0.3
		c0-0.1,0-0.2,0.1-0.2c0-0.1,0.1-0.2,0.2-0.3c0-0.1,0-0.1,0.1-0.2l-0.1-0.1l0.1-0.3c0,0,0-0.1,0.1-0.1c0,0,0,0,0,0l0,0l0.1-0.3
		c0,0,0,0,0,0l0-0.2l0.1,0c0,0,0,0,0,0l0,0l0,0l0.1-0.1l0,0l-0.1-0.1l0.1-0.1l0,0l0.2-0.2v-0.3l0.1,0c0,0,0-0.1,0.1-0.1l0,0
		c0,0,0,0,0,0c0,0,0,0,0-0.1l0,0l0.1-0.1c0-0.1,0.1-0.2,0.2-0.3c0.1-0.1,0.2-0.3,0.3-0.4c0,0,0,0,0,0l0.1-0.2c0,0,0.1-0.1,0.1-0.1
		c0-0.2,0.1-0.3,0.2-0.4c0.1-0.1,0.2-0.2,0.4-0.3c0,0,0,0,0,0c0-0.1,0.1-0.2,0.2-0.3l0.1-0.1c0,0,0.1-0.1,0.1-0.1
		c0,0,0.1-0.1,0.2-0.1l0-0.1c0.1-0.1,0.1-0.2,0.2-0.3l0.1-0.1v-0.6l0.4,0.3c0,0,0,0,0.1,0c0,0,0.1-0.1,0.1-0.1l0.1-0.1l0.1-0.1
		l0.3,0.1c0.1,0,0.2,0,0.3,0c0.3,0,0.8,0.2,0.9,0.5c0.2,0.3,0.2,0.8,0.2,1.1c0.1,0.1,0.1,0.3,0,0.5c0,0,0,0,0,0c0,0.1,0,0.1,0,0.2
		l0,0c0,0,0,0.1,0,0.1c0,0,0,0,0,0v0.1l0,0.1c0,0,0,0.1-0.1,0.1v0.2l-0.1,0.1c0,0.1-0.1,0.2-0.1,0.3c0,0,0,0.1-0.1,0.1c0,0,0,0,0,0
		v0.2L58,56.2c0,0.1,0,0.1-0.1,0.2l-0.2,0.2l0,0c0,0.1-0.1,0.1-0.1,0.1c0,0.1-0.1,0.2-0.2,0.2l0,0.1c0,0.2-0.2,0.4-0.3,0.5l0,0
		c0,0.1-0.1,0.2-0.2,0.2c-0.1,0.1-0.2,0.3-0.4,0.4c0,0,0,0.1-0.1,0.1l0,0c0,0.1-0.1,0.1-0.1,0.2c0,0-0.1,0.1-0.2,0.2
		c0,0.1-0.1,0.1-0.1,0.1c-0.1,0.2-0.2,0.3-0.4,0.4c-0.1,0.1-0.1,0.2-0.2,0.3l-0.1,0.1c0,0-0.1,0.1-0.2,0.2c-0.1,0.1-0.3,0.3-0.5,0.4
		c0,0-0.1,0-0.1,0.1c0,0,0,0,0,0.1c0.1,0,0.1-0.1,0.2-0.1c0,0,0.1-0.1,0.1-0.1c0.1,0,0.1-0.1,0.2-0.1l0-0.1l0.1,0
		c0.1-0.1,0.2-0.1,0.3-0.2c0,0,0,0,0,0l0.2-0.1l0.1,0c0,0,0,0,0,0c0-0.1,0.1-0.2,0.2-0.3c0.1-0.1,0.3-0.2,0.4-0.2c0,0,0,0,0,0
		c0,0,0,0,0-0.1c0.1-0.1,0.2-0.2,0.3-0.3c0-0.1,0.1-0.1,0.1-0.2l0.1-0.1c0.1-0.1,0.2-0.2,0.3-0.2c0,0,0,0,0,0
		c0.1-0.1,0.4-0.4,0.5-0.6c0.2-0.3,0.5-0.5,0.6-0.6c0,0,0,0,0.1-0.1l-0.1-0.1l0.4-0.2c0,0,0-0.1,0-0.1l-0.1-0.1v-0.2
		c0-0.1,0-0.2,0.1-0.3l0,0c0,0,0,0,0,0c-0.1-0.1-0.1-0.2-0.1-0.3v-0.1l0-0.1l0.2-0.2c0-0.1,0-0.2,0-0.2c0-0.1,0-0.1,0-0.2
		c0-0.1,0-0.2,0-0.3v-0.1c0,0,0-0.1,0-0.2c0,0,0-0.1,0-0.1c0-0.1,0-0.2,0-0.3c0-0.1,0-0.3,0.1-0.4c0-0.1,0-0.1,0-0.2
		c-0.1-0.3,0.1-0.6,0.1-0.7c0-0.1,0-0.1,0-0.1c0-0.2,0.1-0.4,0.2-0.5c0,0,0.1-0.1,0.1-0.1c0,0,0,0,0-0.1c0,0,0.1-0.1,0.1-0.1
		c0-0.1,0.1-0.1,0.1-0.2c0.1-0.1,0.2-0.2,0.4-0.2l0.2,0l0.1,0.1c0.1,0.1,0.1,0.2,0.1,0.3v0.2l-0.1,0c0.1,0.7,0.1,1.9,0.1,3
		c0.1,0.1,0.1,0.1,0.1,0.3c0,0,0,0,0,0c0-0.1,0-0.2,0.1-0.2l0-0.1c0-0.2,0.1-0.3,0.2-0.4l0-0.2l0.1-0.2c0,0,0,0,0,0l0.2-0.2
		c0-0.1,0.1-0.2,0.1-0.2c0.1-0.1,0.1-0.2,0.1-0.2c0,0,0-0.2,0.1-0.3v-0.3l0.2,0c0,0,0.1-0.1,0.1-0.1c0,0,0.1-0.1,0.1-0.2l-0.1-0.1
		l0.4-0.2c0.1-0.2,0.4-0.5,0.6-0.7l0,0l0.2-0.2c0.1-0.1,0.2-0.2,0.5-0.2c0.1,0,0.1,0,0.2,0h0v-0.2h0.4c0.2,0,0.4,0.2,0.6,0.7h0.1
		l0,0.4c0,0.1,0.1,0.3,0.1,0.8c0,0.1,0,0.5,0,0.9c0,0.7,0,1.4-0.1,2.2c0,0.1,0,0.2,0,0.3c0,0.1,0,0.2,0,0.3c0,0.3-0.1,0.7-0.1,0.9
		l0,0.2c0,0,0,0.1,0,0.2c0,0.1,0,0.1,0,0.2c0,0.1,0,0.3-0.1,0.4c0,0,0,0.1,0,0.1c0,0.1,0,0.2,0,0.3c0,0.1,0,0.2,0,0.2l0,0.2
		c0,0,0,0.1,0,0.1c0,0.1,0,0.3-0.1,0.5v0.1c0,0,0,0.1,0,0.1c0,0,0,0,0,0l0.1-0.2c0-0.1,0.2-0.2,0.3-0.2c0.1-0.1,0.1-0.3,0.2-0.3
		v-0.1l0.1-0.1c0,0,0-0.1,0-0.1c0-0.1,0-0.1,0-0.1l0-0.1c0-0.1,0.1-0.2,0.2-0.3c0,0,0,0,0,0c0-0.1,0-0.2,0.1-0.2l0-0.1
		c0-0.1,0-0.2,0.1-0.2c0-0.1,0.1-0.2,0.2-0.2c0-0.1,0-0.2,0.1-0.3l0.1-0.1v-0.3l0.1,0l0,0L66.3,57l0.3-0.3c0,0,0-0.1,0-0.1l0-0.1
		l0.1-0.3h0.1L66.7,56l0.2-0.2c0-0.1,0-0.2,0.1-0.3l0-0.1l0.3-0.5l0-0.1l0.1-0.1l0.1-0.2l0-0.2l0.1,0l0.1-0.1l0.1,0
		c0-0.1,0.1-0.1,0.2-0.2c0,0,0,0,0,0l0-0.1c0-0.1,0.1-0.2,0.2-0.2l0-0.1c0-0.1,0.1-0.1,0.1-0.1l0,0c0,0,0.1-0.2,0.3-0.3
		c0-0.1,0-0.1,0.1-0.2l0.1-0.2l0.1,0c0.1-0.1,0.2-0.2,0.3-0.3l0.5-0.5c0.4-0.5,0.7-0.6,0.8-0.7c0,0,0,0,0,0v-0.1l0.1,0
		c0.1-0.1,0.3-0.1,0.4-0.1c-0.1-0.1-0.1-0.2-0.1-0.3l0-0.3c0,0,0-0.1,0-0.1c0,0,0,0,0,0v-0.2c0-0.1,0-0.1,0-0.2l0,0l0-0.1
		c0,0,0,0,0-0.1l-0.1-0.1l0.2-0.5c0-0.1,0-0.1,0-0.2c-0.1-0.2-0.1-0.3-0.1-0.5c0-0.1-0.1-0.1-0.1-0.2v-0.4l0.1,0
		c0-0.1,0.1-0.2,0.1-0.2c0,0,0,0,0,0l0,0l0-0.4l0.1,0l0-0.5l0,0c0-0.1,0-0.2,0.1-0.3c0-0.1,0-0.1,0.1-0.2c0-0.1,0-0.1,0-0.2l0,0l0,0
		c0-0.1,0.1-0.1,0.1-0.2l-0.1-0.1l0.2-0.2c0-0.1,0.1-0.2,0.2-0.3c0-0.1,0-0.2,0.1-0.3c0-0.1,0-0.2,0.1-0.3l0.1-0.2
		c0-0.1,0-0.1,0-0.1l0,0l0.1-0.3c0,0,0,0,0,0c0-0.1,0-0.2,0.1-0.2l0-0.1c0-0.2,0.1-0.3,0.2-0.4c0-0.1,0.1-0.2,0.2-0.3
		c0-0.1,0.1-0.1,0.1-0.2c0-0.1,0-0.2,0-0.3l0-0.1l0.3-0.2c0-0.1,0-0.2,0.1-0.2l0,0l0.2-0.4c0-0.1,0.1-0.1,0.1-0.2c0,0,0,0,0,0
		c0-0.3,0.3-0.6,0.5-0.7l0,0c0-0.1,0.1-0.2,0.1-0.2l0.1-0.1c0,0,0,0,0,0c0.1-0.2,0.2-0.3,0.4-0.3c0.1-0.1,0.2-0.2,0.3-0.2
		c0,0,0.1-0.1,0.1-0.1c0.1-0.1,0.3-0.2,0.4-0.2h0.1c0.1-0.1,0.3-0.1,0.4-0.1l0.1,0l0,0l0,0c0.1,0,0.2-0.1,0.3,0l0.3,0.1l0,0.2
		c0.1,0.1,0.2,0.2,0.3,0.4c0.1,0.1,0.1,0.2,0.1,0.3l0.1,0.5l-0.1,0c0.1,0.2,0.1,0.5,0.1,0.8v0l0.3,0.3l-0.3,0v0.5c0,0.2,0,0.4,0,0.5
		l-0.1,0.3c0,0,0,0.1,0,0.1c0,0.2,0,0.3-0.1,0.4c0,0.2,0,0.4-0.1,0.8l0,0.1c0,0.1-0.1,0.3-0.1,0.3c0,0.3-0.3,1.3-0.5,1.7
		c0,0.1,0,0.2-0.1,0.3c0,0,0,0.1,0,0.1c0,0.2-0.3,1-0.3,1.2l-0.1,0.1c0,0,0,0,0,0.1c0,0.1,0,0.1,0,0.2v0.2l-0.1,0.1c0,0,0,0,0,0
		c0,0.1,0,0.1-0.1,0.2l0,0c0,0.1-0.1,0.3-0.1,0.3l0,0c0,0.1,0,0.2-0.1,0.3c0,0.1,0,0.2-0.1,0.3l0,0c0,0.1,0,0.1-0.1,0.1c0,0,0,0,0,0
		c0,0.1,0,0.1-0.1,0.2c0,0,0,0.1-0.1,0.1c0,0.1-0.1,0.2-0.1,0.3c0,0.1,0,0.1,0,0.2c0,0.1-0.1,0.2-0.2,0.2c0,0,0,0,0,0
		C74.4,51.2,74.4,51.3,74.4,51.4z M91.7,50.8c0,0.1,0,0.1,0,0.2c0,0.1-0.1,0.2-0.2,0.2c0,0,0,0,0,0c0,0.1,0,0.2,0,0.3
		c0,0.1-0.1,0.1-0.1,0.2c0,0,0,0.1,0,0.1c0,0.1,0,0.2-0.1,0.3c0,0.1,0,0.2-0.1,0.2c0,0,0,0,0,0l-0.1,0.3l-0.1,0c0,0,0,0.1-0.1,0.1
		c0,0,0,0.1,0,0.1l0,0c0,0.1-0.1,0.1-0.1,0.2l0,0l-0.1,0.2c0,0,0,0.1,0,0.1c0,0.1-0.1,0.2-0.1,0.2c0,0.1-0.1,0.2-0.1,0.2
		c0,0.1-0.1,0.3-0.2,0.4c0,0.1,0,0.2-0.1,0.3c0,0.1-0.1,0.1-0.1,0.2l0,0.1c0,0.1,0,0.4,0,0.7c0,0.3,0,0.7,0.1,0.7
		c0,0.2,0,0.5,0.1,0.8l0,0.5c0,0,0,0.1,0,0.2c0,0.1,0,0.1,0,0.2c0.1,0.6,0.1,0.9,0.1,1c0,0.1,0.1,0.4,0.1,1c0,0.5,0.1,1.1,0.3,1.5
		l0,0.1c0,0,0,0.1,0,0.1c0.1,0.1,0.1,0.3,0.1,0.5c0,0,0,0,0,0c0.1,0.2,0.1,0.4,0.2,0.6c0,0,0,0,0,0.1c0,0,0,0.1,0,0.2c0,0,0,0,0,0
		c0.1,0.2,0,0.6-0.2,0.7c0,0-0.2,0.2-0.4,0.2h-0.2l-0.2-0.2c-0.3-0.1-0.5-0.8-0.5-0.8c0,0,0,0,0,0l0,0c-0.1-0.1-0.1-0.3-0.1-0.3
		c-0.1-0.1-0.1-0.3-0.1-0.5c-0.1-0.1-0.1-0.2-0.1-0.2c0,0,0,0,0,0c0,0-0.1-0.1-0.1-0.1h0l-0.1-0.3c0,0,0-0.1,0-0.2l0,0
		c0,0,0-0.1,0-0.1c-0.1-0.1-0.1-0.2-0.1-0.4c0,0,0,0,0-0.1c-0.1-0.1-0.1-0.2-0.1-0.3c0,0-0.1-0.1-0.1-0.2c0-0.1-0.1-0.2-0.1-0.3
		c0-0.1-0.1-0.2,0-0.3c-0.1-0.1-0.1-0.2-0.1-0.3v-0.2c0,0,0-0.1,0-0.1l-0.1-0.1l0.1-0.2c0-0.1,0-0.1,0-0.2l0-0.1l-0.1,0l0-0.2
		L88.3,58l-0.1,0l-0.2,0.4l-0.1,0c0,0,0,0,0,0.1c0,0,0,0.1-0.1,0.1l0,0.1c0,0,0,0.1-0.1,0.1l0,0c0,0-0.1,0.1-0.1,0.1
		c0,0.1-0.1,0.2-0.2,0.3c0,0.1-0.1,0.2-0.2,0.3c0,0.1-0.1,0.2-0.2,0.2c0,0,0,0.1,0,0.1l-0.1,0.2l-0.2,0c0,0,0,0,0,0
		c-0.1,0.1-0.2,0.3-0.3,0.4v0.1L86,60.8c0,0-0.1,0.1-0.2,0.1C85.8,61,85.7,61,85.6,61c-0.3,0.2-0.8,0.2-0.8,0.2
		c-0.1,0-0.2,0-0.3-0.1c-0.1,0-0.2,0-0.2-0.1c0,0.1-0.1,0.1-0.1,0.2c0,0,0,0,0,0.1c0,0,0,0.1,0,0.1c0,0.1,0,0.2-0.1,0.3
		c0,0.1,0,0.1-0.1,0.2L83.8,62c0,0.2-0.1,0.3-0.2,0.3c0,0.1-0.1,0.2-0.1,0.3c0,0.1-0.1,0.2-0.2,0.2l-0.1,0.2l-0.1,0
		c-0.1,0.1-0.2,0.2-0.4,0.2c-0.1,0.2-0.3,0.2-0.4,0.2c0,0-0.1,0-0.1,0c0,0,0,0,0,0c-0.2,0.2-0.3,0.2-0.4,0.2l-0.3,0.1l-0.1-0.2
		c-0.2,0-0.3-0.1-0.5-0.2l0,0c-0.2-0.1-0.3-0.2-0.3-0.3c0,0-0.1,0-0.1-0.1h-0.2v-0.2C80,62.7,80,62.6,80,62.5
		c-0.2-0.1-0.2-0.3-0.2-0.4c0,0,0-0.1,0-0.1c-0.1-0.1-0.1-0.2-0.1-0.3l-0.1-0.1l0.1-0.2c0-0.1,0-0.2,0-0.3c0,0,0,0,0,0
		c-0.1-0.1-0.2-0.2-0.2-0.4v-0.3l0.1-0.1c0,0,0-0.1,0-0.1l-0.1-0.1l0-0.3c0-0.1,0-0.1-0.1-0.2c0,0,0-0.1,0-0.1l-0.1-0.1l0.1-0.4
		c0,0,0-0.1-0.1-0.2c0,0,0,0,0-0.1c0,0.1-0.1,0.1-0.1,0.2l0,0c0,0.1-0.1,0.2-0.1,0.3c0,0.1,0,0.1-0.1,0.2l0,0.1
		c0,0.1-0.1,0.1-0.1,0.2v0L78.9,60c0,0.1-0.1,0.4-0.2,0.5c0,0.1-0.1,0.2-0.1,0.3c0,0.1-0.1,0.1-0.2,0.2c0,0,0,0.1-0.1,0.1l-0.1,0.1
		l0,0.2l-0.2,0.1c0,0.1-0.1,0.2-0.2,0.3c0,0,0,0-0.1,0.1c0,0.2-0.1,0.4-0.3,0.4c-0.1,0.2-0.2,0.3-0.3,0.4c-0.1,0.1-0.1,0.2-0.2,0.2
		c-0.1,0.1-0.2,0.2-0.3,0.2c-0.1,0.1-0.2,0.1-0.3,0.1l-0.1,0c-0.1,0-0.1,0.1-0.2,0.1c-0.1,0-0.1,0-0.2,0l0,0l-0.1,0c0,0-0.1,0-0.1,0
		l-0.1,0c0,0-0.1,0-0.1-0.1c-0.1-0.1-0.2-0.1-0.3-0.2c-0.1-0.1-0.2-0.2-0.3-0.2c-0.1,0-0.3-0.2-0.3-0.5v0c-0.1-0.1-0.1-0.2-0.1-0.4
		c0-0.1,0-0.2,0-0.2v0c-0.2-0.2-0.1-0.3-0.1-0.4c0,0,0-0.1,0-0.1V61c-0.1-0.2-0.1-0.3,0-0.4l0.1-0.2v-0.1l0.1,0c0,0,0,0,0,0
		c-0.1-0.1-0.1-0.4,0-0.6c0-0.1,0-0.1,0-0.2l0.1-0.2l0.1,0l0-0.1c0-0.1,0.1-0.2,0.1-0.3c0-0.1,0-0.1,0-0.2c0-0.1,0-0.1,0-0.2v-0.3
		l0.2-0.1c0-0.1,0-0.3,0.1-0.4l0,0c0-0.1,0-0.1,0.1-0.2c0,0,0,0,0.1-0.1v-0.2l0.2-0.2c0-0.1,0.1-0.2,0.1-0.2l0.1-0.1
		c0-0.1,0.1-0.2,0.1-0.3l0-0.1c0,0,0-0.1,0-0.1l-0.1-0.1l0.3-0.3c0,0,0,0,0,0c0.1-0.1,0.2-0.2,0.3-0.2c0-0.1,0.1-0.2,0.1-0.3
		c0,0,0,0,0-0.1c0-0.2,0.1-0.3,0.2-0.4c0-0.1,0.1-0.2,0.2-0.3c0,0,0-0.1,0.1-0.1v-0.1l0.3-0.1c0-0.1,0.1-0.1,0.1-0.1l0.1,0
		c0,0,0.1-0.1,0.2-0.2c0.1-0.1,0.3-0.3,0.4-0.4c0-0.1,0.1-0.1,0.1-0.2l0,0c0.1-0.1,0.2-0.1,0.3-0.2c0.1-0.1,0.3-0.1,0.3-0.1l0.1-0.1
		c0,0,0,0,0,0l0,0l0,0c0.2-0.1,0.4-0.1,0.5,0c0,0,0,0,0,0c0,0,0.1,0,0.1,0c0.1,0,0.3,0.1,0.4,0.2l0,0c0,0,0,0,0,0c0,0,0-0.1,0-0.1
		l0.1-0.3l0.1,0c0,0,0-0.1,0-0.2c0-0.1,0-0.2,0-0.2c0,0,0-0.1,0-0.1l0.1-0.2l0.1,0c0.1-0.1,0.2-0.1,0.2-0.1c0.1,0,0.1,0,0.2-0.1
		c0,0,0-0.1,0.1-0.1c0-0.1,0.1-0.2,0.1-0.3c0,0,0,0,0,0c0.1-0.1,0.2-0.3,0.5-0.2h0.1c0.3,0,0.4,0.2,0.4,0.6c0.1,0.3,0.1,1-0.1,3.2
		c0,0.4-0.1,1.2-0.1,1.5c0,0.5-0.1,0.9-0.1,0.9l0,0.4c0,0.3,0,0.8,0,1c0,0.1,0,0.2,0,0.3c0,0.3,0,1.5,0,2.2c0,0.1,0.1,0.2,0.1,0.3
		c0,0.1,0.1,0.1,0.1,0.1l0,0.1c0.1,0.1,0.1,0.1,0.1,0.2l0,0c0,0,0,0,0.1,0l0,0c0,0,0.1-0.1,0.1-0.1c0,0,0.1-0.1,0.1-0.1l0.2-0.4
		l0.1,0l0-0.1l0,0c0,0,0,0,0-0.1c0-0.1,0-0.1,0.1-0.2l0,0l0.1-0.3c0-0.2,0-0.3,0.1-0.4l-0.4-0.4h0.6l0.1-0.3l0.1,0
		c0-0.1,0-0.1,0.1-0.2c0,0,0-0.1,0-0.1v-0.4l0,0c0-0.1,0-0.2,0.1-0.3l0,0c0-0.1,0-0.2,0-0.3l0,0l0.1-0.3c0-0.1,0-0.2,0.1-0.3
		c0,0,0-0.1,0-0.1l-0.1-0.1l0,0L83.4,57l0.3-0.3c0,0,0-0.1,0-0.1l0-0.1l0.1-0.3h0.1L83.8,56l0.2-0.2c0-0.1,0-0.2,0.1-0.3l0-0.1
		l0.3-0.5l0-0.1l0.1-0.1l0.1-0.2l0-0.2l0.1,0l0.1-0.1l0.1,0c0-0.1,0.1-0.1,0.2-0.2c0,0,0,0,0,0l0-0.1c0-0.1,0.1-0.2,0.2-0.2l0-0.1
		c0-0.1,0.1-0.1,0.1-0.1l0,0c0,0,0.1-0.2,0.3-0.3c0-0.1,0-0.1,0.1-0.2l0.1-0.2l0.1,0c0.1-0.1,0.2-0.2,0.3-0.3l0.5-0.5
		c0.4-0.5,0.7-0.6,0.8-0.7c0,0,0,0,0,0v-0.1l0.1,0c0.1-0.1,0.3-0.1,0.4-0.1c-0.1-0.1-0.1-0.2-0.1-0.3l0-0.3c0,0,0-0.1,0-0.1
		c0,0,0,0,0,0v-0.2c0-0.1,0-0.1,0-0.2l0,0l0-0.1c0,0,0,0,0-0.1l-0.1-0.1l0.2-0.5c0-0.1,0-0.1,0-0.2c-0.1-0.2-0.1-0.3-0.1-0.5
		c0-0.1-0.1-0.1-0.1-0.2v-0.4l0.1,0c0-0.1,0.1-0.2,0.1-0.2c0,0,0,0,0,0l0,0l0-0.4l0.1,0l0-0.5l0,0c0-0.1,0-0.2,0.1-0.3
		c0-0.1,0-0.1,0.1-0.2c0-0.1,0-0.1,0-0.2l0,0l0,0c0-0.1,0.1-0.1,0.1-0.2l-0.1-0.1l0.2-0.2c0-0.1,0.1-0.2,0.2-0.3
		c0-0.1,0-0.2,0.1-0.3c0-0.1,0-0.2,0.1-0.3l0.1-0.2c0-0.1,0-0.1,0-0.1l0,0l0.1-0.3c0,0,0,0,0,0c0-0.1,0-0.2,0.1-0.2l0-0.1
		c0-0.2,0.1-0.3,0.2-0.4c0-0.1,0.1-0.2,0.2-0.3c0-0.1,0.1-0.1,0.1-0.2c0-0.1,0-0.2,0-0.3l0-0.1l0.3-0.2c0-0.1,0-0.2,0.1-0.2l0,0
		l0.2-0.4c0-0.1,0.1-0.1,0.1-0.2c0,0,0,0,0,0c0-0.3,0.3-0.6,0.5-0.7l0,0c0-0.1,0.1-0.2,0.1-0.2l0.1-0.1c0,0,0,0,0,0
		c0.1-0.2,0.2-0.3,0.4-0.3c0.1-0.1,0.2-0.2,0.3-0.2c0,0,0.1-0.1,0.1-0.1c0.1-0.1,0.3-0.2,0.4-0.2h0.1c0.1-0.1,0.3-0.1,0.4-0.1l0.1,0
		l0,0l0,0c0.1,0,0.2-0.1,0.3,0l0.3,0.1l0,0.2c0.1,0.1,0.2,0.2,0.3,0.4c0.1,0.1,0.1,0.2,0.1,0.3l0.1,0.5l-0.1,0
		c0.1,0.2,0.1,0.5,0.1,0.8v0l0.3,0.3l-0.3,0v0.5c0,0.2,0,0.4,0,0.5l-0.1,0.3c0,0,0,0.1,0,0.1c0,0.2,0,0.3-0.1,0.4
		c0,0.2,0,0.4-0.1,0.8l0,0.1c0,0.1-0.1,0.3-0.1,0.3c0,0.3-0.3,1.3-0.5,1.7c0,0.1,0,0.2-0.1,0.3c0,0,0,0.1,0,0.1c0,0.2-0.3,1-0.3,1.2
		l-0.1,0.1c0,0,0,0,0,0.1c0,0.1,0,0.1,0,0.2v0.2l-0.1,0.1c0,0,0,0,0,0c0,0.1,0,0.1-0.1,0.2l0,0c0,0.1-0.1,0.3-0.1,0.3l0,0
		c0,0.1,0,0.2-0.1,0.3c0,0.1,0,0.2-0.1,0.3l0,0c0,0.1,0,0.1-0.1,0.1c0,0,0,0,0,0c0,0.1,0,0.1-0.1,0.2c0,0,0,0.1-0.1,0.1
		C91.8,50.5,91.8,50.7,91.7,50.8z M100.7,56.7c0,0.1-0.1,0.2-0.2,0.3v0.1l-0.2,0.2c0,0-0.1,0.1-0.1,0.2c-0.1,0.1-0.2,0.2-0.3,0.3
		c-0.1,0.1-0.1,0.1-0.2,0.2c0,0,0,0,0,0c0,0.1-0.1,0.1-0.2,0.2l-0.2,0.2h-0.2c0,0-0.1,0-0.1,0c-0.1,0.1-0.2,0.2-0.3,0.2
		c0,0,0,0-0.1,0l-0.1,0h-0.1c-0.1,0-0.3,0.1-0.4,0.2c0,0.1,0,0.1,0,0.1l0,0.2c0,0,0,0,0,0.1l0,0.1l-0.1,0.2c0,0.1,0,0.2-0.1,0.4
		l0,0.1L97.6,60l0,0.1c0,0.2-0.1,0.3-0.2,0.4c0,0.1,0,0.1-0.1,0.2l0,0l0,0l-0.1,0.1c0,0.1-0.1,0.1-0.2,0.2c0,0-0.1,0.1-0.1,0.1
		c0,0.1-0.1,0.1-0.1,0.2c0,0.1-0.1,0.2-0.1,0.2l0,0c0,0.1-0.1,0.2-0.2,0.2c0,0,0,0,0,0v0.2l-0.2,0c0,0,0,0,0,0l0,0.1
		c-0.1,0.2-0.2,0.3-0.4,0.3l-0.1,0.1l0,0c0,0,0,0,0,0l0,0l-0.1,0.1c-0.1,0.1-0.2,0.1-0.3,0.2c0,0-0.1,0.1-0.2,0.1
		c-0.1,0.1-0.2,0.2-0.4,0.2c0,0-0.1,0-0.1,0c0,0,0,0,0,0c-0.1,0.1-0.2,0.1-0.3,0.1c-0.1,0-0.2,0-0.3,0c-0.1,0-0.3,0-0.5-0.1
		c-0.1,0-0.3-0.1-0.3-0.1l0,0h-0.3l0-0.3c0,0,0,0,0-0.1l0,0l-0.2-0.3l-0.2-0.3l0.1-0.1c0,0,0,0,0,0c0,0-0.1-0.1-0.1-0.1
		c0-0.1,0-0.1-0.1-0.2c0-0.1-0.1-0.1-0.1-0.2c0,0,0-0.1-0.1-0.1l0-0.1v-0.1c0,0,0-0.1,0-0.1c0,0,0,0,0,0c0-0.1-0.1-0.2-0.1-0.4l0,0
		l0-0.2c0,0,0-0.1,0-0.1c0-0.1,0-0.1,0-0.2l0-0.1l0,0c-0.1-0.1,0-0.3,0-0.4c0-0.1,0.1-0.1,0.1-0.2c0,0,0,0,0-0.1L92,59.3l0.1-0.1
		c0-0.1,0-0.1,0-0.2c0-0.1,0-0.2,0-0.3c0-0.2,0-0.4,0.1-0.5c0,0,0.1-0.1,0.1-0.1c0-0.1,0-0.1,0.1-0.2c0-0.1,0-0.2,0-0.3
		c0-0.1,0-0.1,0-0.2c0-0.1,0-0.2,0.1-0.2c0-0.1-0.1-0.2,0-0.4l0,0c0-0.1,0-0.2,0-0.3c0,0,0,0,0,0c0-0.1,0-0.2,0.1-0.3l0.3-0.6
		c0,0,0-0.1,0-0.1c0,0,0,0,0-0.1c0-0.2,0-0.4,0.1-0.5c0-0.1,0.1-0.2,0.2-0.3c0,0,0-0.1,0-0.1c0-0.2,0-0.3,0.1-0.4
		c0-0.1,0.1-0.2,0.1-0.3c0.1-0.1,0.2-0.3,0.4-0.4c0,0,0.1-0.1,0.1-0.1c0.1-0.1,0.2-0.2,0.3-0.2c0,0,0.1-0.1,0.1-0.1
		c0.1-0.2,0.2-0.3,0.4-0.4c0.1,0,0.2-0.1,0.2-0.2c0,0,0.1-0.1,0.1-0.1c0-0.1,0.1-0.2,0.2-0.3c0.1-0.1,0.2-0.1,0.2-0.2l0.2-0.1
		l0.1,0.1c0.1,0,0.1-0.1,0.2-0.1h0.4v0.4c0,0,0,0,0.1,0.1l0,0.1c0,0,0,0,0,0l0,0l0,0.1c0.1,0,0.2,0,0.2,0.1c0.1,0,0.2,0.1,0.4,0.2
		c0,0,0.1,0.1,0.2,0.2c0.1,0,0.1,0.1,0.1,0.1c0.1,0.1,0.2,0.1,0.3,0.3c0.1,0.1,0.2,0.4,0.3,0.5l0,0c0.2,0.2,0.2,0.3,0.3,1
		c0.1,0.2,0.1,0.4,0,0.5c0.1,0.2,0.1,0.9,0.1,1.3c0,0.1,0,0.1,0,0.1c0.1-0.1,0.2-0.2,0.4-0.2c0,0,0,0,0,0c0,0,0-0.1,0.1-0.1v-0.2
		l0.3,0c0.1-0.1,0.2-0.1,0.2-0.2c0,0,0.1-0.1,0.2-0.2c0.1-0.2,0.3-0.4,0.4-0.4c0,0,0.1-0.1,0.1-0.1c0.1-0.1,0.1-0.2,0.2-0.2
		c0-0.1,0.1-0.1,0.1-0.1l0.1-0.1l0.3,0.1c0.2,0.1,0.2,0.2,0.2,0.3h0l0,0.4c0,0.2,0,0.3-0.1,0.5C100.8,56.5,100.8,56.6,100.7,56.7z"
		/>
	<path class="st0" d="M79.1,59.1C79.1,59.1,79.1,59.1,79.1,59.1L79.1,59.1C79.1,59.1,79.1,59.1,79.1,59.1z"/>
	<path class="st0" d="M92,45.7l0-0.2c0,0,0-0.1,0-0.1l0-0.1l0.1-0.1c0,0,0-0.1,0-0.1c0-0.2,0-0.3,0.1-0.4c0-0.1,0.1-0.1,0.1-0.2
		l0-0.2c0,0,0,0,0-0.1c0-0.1,0-0.2,0-0.3c0-0.2,0-0.4,0.1-0.6c0-0.1,0-0.2,0-0.3l0.1-0.1l-0.1,0l0-0.3l0.1-0.2c0-0.1,0-0.2,0.1-0.2
		l0,0c0,0,0,0,0-0.1l0,0v-0.2c0,0,0,0,0-0.1c0-0.1,0-0.2,0-0.3l0,0l0.1-0.2c-0.1-0.1-0.1-0.2-0.1-0.3v-0.2c-0.1-0.1-0.1-0.2-0.1-0.2
		c0,0-0.1,0-0.1,0c0,0.1-0.1,0.2-0.2,0.2c0,0,0,0-0.1,0.1c0,0.1-0.1,0.3-0.2,0.4c0,0.1-0.1,0.1-0.1,0.2l0,0c0,0.1-0.1,0.2-0.1,0.3
		c0,0.1,0,0.1-0.1,0.2l0,0c0,0.1-0.1,0.1-0.1,0.2l0,0.1l-0.1,0.3l-0.1,0c0,0,0,0,0,0l0,0.1c0,0.1,0,0.2-0.1,0.3l-0.1,0.2
		c0,0,0,0,0,0c0,0,0,0,0,0.1c0,0.3-0.2,0.6-0.2,0.6L90.7,44c0,0.2-0.1,0.6-0.2,0.8l0,0c0,0.1-0.1,0.2-0.1,0.3c0,0-0.1,0.2-0.1,0.5
		c0,0.1,0,0.2-0.1,0.3c0,0.1,0,0.2,0,0.4c0,0.2,0,0.5-0.1,0.7c0,0.1,0,0.2,0,0.2L90,47.4c0,0,0,0.1,0,0.1c0,0.1,0,0.3,0,0.5
		c0,0.2,0,0.5,0,0.7c0,0.5-0.1,1.9,0,2.8c0-0.1,0.1-0.2,0.2-0.3l0.1-0.3l-0.1-0.1l0.2-0.2c0-0.1,0.1-0.1,0.1-0.2l0,0
		c0-0.2,0.1-0.3,0.1-0.4v-0.4l0.1,0v-0.1l0.1,0l0.1-0.4c0,0,0-0.1,0-0.1l0,0c0-0.1,0-0.2,0.1-0.2c0,0,0-0.1,0-0.1v-0.3l0.1,0
		l0.1-0.2c0,0,0,0,0,0v-0.1l0.1-0.1c0,0,0-0.1,0-0.1l-0.1-0.1l0.1-0.1c0-0.1,0-0.2,0.1-0.2l0.1-0.1c0,0,0-0.1,0.1-0.2
		c0-0.1,0-0.2,0.1-0.3l0-0.1c0-0.1,0-0.2,0.1-0.2c0,0,0-0.1,0-0.1L92,45.7L92,45.7z"/>
	<path class="st0" d="M95.3,52.3c-0.1,0-0.1,0-0.1,0c0,0,0,0,0,0.1C95.2,52.4,95.3,52.4,95.3,52.3L95.3,52.3z"/>
	<path class="st0" d="M90.6,44L90.6,44C90.6,44,90.6,44,90.6,44C90.7,43.9,90.7,43.9,90.6,44C90.7,43.9,90.7,43.9,90.6,44
		c0.1-0.1,0.1-0.2,0.1-0.3l-0.3,0.1l0.1,0.4C90.6,44.1,90.6,44,90.6,44z"/>
	<polygon class="st0" points="60.4,52.3 60.4,52.3 60.4,52.3 	"/>
	<path class="st0" d="M65,60.4C65,60.4,65,60.4,65,60.4l0-0.1C65,60.3,65,60.4,65,60.4z"/>
	<path class="st0" d="M67,61L67,61L67,61C67,61,67,61,67,61z"/>
	<polygon class="st0" points="78.3,61.2 78.3,61.2 78.3,61.2 	"/>
	<path class="st0" d="M55.4,59.9C55.4,59.9,55.4,59.9,55.4,59.9C55.4,59.9,55.3,59.9,55.4,59.9L55.4,59.9z"/>
	<path class="st0" d="M67.4,60.3C67.4,60.3,67.4,60.3,67.4,60.3L67.4,60.3C67.4,60.3,67.4,60.3,67.4,60.3z"/>
	<path class="st0" d="M63.7,55.2C63.7,55.2,63.7,55.2,63.7,55.2L63.7,55.2C63.7,55.2,63.7,55.2,63.7,55.2z"/>
	<path class="st0" d="M60.5,51.9c0,0,0,0.1,0,0.1C60.6,52,60.6,51.9,60.5,51.9L60.5,51.9z"/>
	<path class="st0" d="M67.1,55.4C67.1,55.4,67.1,55.3,67.1,55.4C67.1,55.3,67.2,55.3,67.1,55.4l0-0.1C67.1,55.3,67.1,55.3,67.1,55.4
		z"/>
	<path class="st0" d="M73.5,44L73.5,44C73.5,44,73.5,44,73.5,44C73.5,43.9,73.5,43.9,73.5,44C73.5,43.9,73.5,43.9,73.5,44
		c0.1-0.1,0.1-0.2,0.1-0.3l-0.3,0.1l0.1,0.4C73.5,44.1,73.5,44,73.5,44z"/>
	<path class="st0" d="M78.9,52.9C78.9,52.9,78.9,52.9,78.9,52.9C78.9,53,78.9,53,78.9,52.9L78.9,52.9z"/>
	<path class="st0" d="M70.9,54.4c0-0.1,0-0.2,0-0.3L70.8,54c-0.1-0.1-0.1-0.2-0.1-0.4c0,0,0,0,0-0.1c0,0,0-0.1,0-0.1
		c0,0,0-0.1,0-0.1c0,0-0.1-0.1-0.1-0.1c-0.1,0.1-0.2,0.2-0.2,0.2v0l-0.1,0.1c0,0,0,0-0.1,0.1c0,0,0,0,0,0l-0.1,0.2
		c0,0-0.1,0.1-0.1,0.2l0,0.1l-0.2,0.2c0,0-0.1,0.1-0.1,0.2c0,0,0,0.1-0.1,0.1v0.2l-0.1,0.1c0,0,0,0,0,0.1l0,0l-0.1,0.2
		c0,0,0,0.1-0.1,0.1c0,0.1-0.1,0.2-0.2,0.3c0,0.1,0,0.2-0.1,0.3l0,0c0,0.1,0,0.2-0.1,0.3c0,0.1,0,0.1,0,0.2l0,0.1l-0.1,0.1
		c0,0.1,0,0.2-0.1,0.3v0c0,0,0,0.2-0.1,0.3c0,0,0,0.1-0.1,0.1c0,0.2-0.1,0.4-0.2,0.5l0.1,0.1c0,0.2,0,0.3-0.1,0.4c0,0.1,0,0.2,0,0.3
		c0,0.1-0.1,0.3-0.1,0.3c0,0.1,0,0.2,0,0.2c0,0.1,0,0.3,0,0.4c0,0,0,0.1,0.1,0.1c0,0,0.1-0.1,0.1-0.1l0,0c0.1-0.1,0.2-0.2,0.3-0.2
		l0,0c0,0,0,0,0,0c0-0.1,0.1-0.2,0.2-0.3c0,0,0,0,0,0c0-0.1,0.1-0.2,0.2-0.2l0.1-0.1c0-0.1,0.1-0.2,0.2-0.3c0,0,0,0,0,0
		c0-0.1,0.1-0.2,0.1-0.2l0,0c0-0.1,0-0.1,0.1-0.2c0-0.1,0-0.1,0.1-0.2c0-0.1,0.1-0.1,0.2-0.2c0-0.1,0.1-0.2,0.1-0.2c0,0,0,0,0,0
		c0-0.1,0-0.2,0.1-0.2l0-0.4l0.2,0c0,0,0,0,0,0c0,0,0,0,0,0c0-0.1,0.1-0.3,0.3-0.3c0-0.1,0.1-0.2,0.2-0.3c0-0.1,0-0.2,0.1-0.3
		c0,0,0,0,0,0c0-0.1,0-0.2,0-0.3l0,0l0.1-0.3c0,0,0,0,0,0c0,0,0,0,0,0C70.8,54.6,70.8,54.5,70.9,54.4z"/>
	<polygon class="st0" points="67.8,59.1 67.8,59 67.8,59 	"/>
	<path class="st0" d="M67.4,60.3C67.5,60.3,67.5,60.3,67.4,60.3L67.4,60.3L67.4,60.3z"/>
</g>
</svg>
