<?xml version="1.0" encoding="utf-8"?>
<!-- Generator: Adobe Illustrator 25.1.0, SVG Export Plug-In . SVG Version: 6.00 Build 0)  -->
<svg version="1.1" id="Capa_1" xmlns="http://www.w3.org/2000/svg" xmlns:xlink="http://www.w3.org/1999/xlink" x="0px" y="0px"
	 viewBox="0 0 21.5 14.6" style="enable-background:new 0 0 21.5 14.6;" xml:space="preserve">
<g>
	<path d="M21.5,7.4c0,0,0-0.1,0-0.1c0,0,0-0.1,0-0.1c0-0.1,0-0.1,0-0.2c0,0,0,0,0,0c-1.4-2.9-3.8-5.1-6.8-6.3c-0.4-0.2-0.8,0-1,0.4
		s0,0.8,0.4,1c2.5,1,4.6,2.8,5.8,5.2c-2.3,4.9-8.2,7.1-13.2,4.9c-2.3-1-4.1-2.7-5.1-4.9c1.8-3.5,5.2-5.7,9.2-5.8c0.3,0,0.7,0,1,0.1
		c0.4,0,0.8-0.3,0.8-0.7c0-0.4-0.3-0.8-0.7-0.8C11.5,0,11.1,0,10.7,0c0,0,0,0,0,0C6.1,0.1,2,2.8,0.1,7c0,0,0,0,0,0c0,0,0,0.1,0,0.1
		c0,0.1,0,0.1,0,0.2c0,0,0,0,0,0.1c0,0.1,0,0.2,0,0.2c0,0,0,0,0,0c1.2,2.7,3.3,4.9,6,6c1.5,0.7,3.1,1,4.6,1c4.5,0,8.8-2.6,10.7-7
		c0,0,0,0,0,0C21.5,7.5,21.5,7.5,21.5,7.4z"/>
	<path d="M7.2,7.3c0,2,1.6,3.5,3.5,3.5c2,0,3.5-1.6,3.5-3.5s-1.6-3.5-3.5-3.5C8.8,3.8,7.2,5.4,7.2,7.3z M12.8,7.3c0,1.1-0.9,2-2,2
		s-2-0.9-2-2c0-1.1,0.9-2,2-2S12.8,6.2,12.8,7.3z"/>
</g>
</svg>
