<svg xmlns="http://www.w3.org/2000/svg" width="87.819" height="99.057" viewBox="0 0 87.819 99.057">
  <g id="Group_233" data-name="Group 233" transform="translate(-1228.858 -870.933)">
    <path id="Path_626" data-name="Path 626" d="M1236.908,903.354c0,3.043,3,5.467,4.1,8.113,1.137,2.743.77,6.571,2.837,8.638s5.9,1.7,8.638,2.837c2.646,1.1,5.07,4.1,8.113,4.1s5.467-3,8.113-4.1c2.743-1.137,6.57-.769,8.638-2.837s1.7-5.894,2.836-8.637c1.1-2.646,4.1-5.07,4.1-8.113s-3-5.467-4.1-8.113c-1.137-2.743-.77-6.571-2.837-8.638s-5.9-1.7-8.637-2.837c-2.647-1.1-5.07-4.1-8.113-4.1s-5.467,3-8.113,4.1c-2.743,1.138-6.571.77-8.638,2.837s-1.7,5.895-2.837,8.638C1239.912,897.887,1236.908,900.311,1236.908,903.354Z" fill="#ffad9a"/>
    <line id="Línea_113" data-name="Línea 113" x2="4.366" y2="9.154" transform="translate(1233.235 959.503)" fill="none" stroke="#000" stroke-linecap="round" stroke-miterlimit="10" stroke-width="2"/>
    <line id="Línea_114" data-name="Línea 114" x2="4.366" y2="9.154" transform="translate(1237.812 957.32)" fill="none" stroke="#000" stroke-linecap="round" stroke-miterlimit="10" stroke-width="2"/>
    <line id="Línea_115" data-name="Línea 115" x2="4.366" y2="9.154" transform="translate(1242.389 955.137)" fill="none" stroke="#000" stroke-linecap="round" stroke-miterlimit="10" stroke-width="2"/>
    <line id="Línea_116" data-name="Línea 116" x2="4.366" y2="9.154" transform="translate(1246.966 952.954)" fill="none" stroke="#000" stroke-linecap="round" stroke-miterlimit="10" stroke-width="2"/>
    <line id="Línea_117" data-name="Línea 117" x2="4.366" y2="9.154" transform="translate(1251.543 950.771)" fill="none" stroke="#000" stroke-linecap="round" stroke-miterlimit="10" stroke-width="2"/>
    <line id="Línea_118" data-name="Línea 118" x2="4.366" y2="9.154" transform="translate(1256.176 948.429)" fill="none" stroke="#000" stroke-linecap="round" stroke-miterlimit="10" stroke-width="2"/>
    <line id="Línea_119" data-name="Línea 119" x2="4.366" y2="9.154" transform="translate(1283.548 935.453)" fill="none" stroke="#000" stroke-linecap="round" stroke-miterlimit="10" stroke-width="2"/>
    <line id="Línea_120" data-name="Línea 120" x2="4.366" y2="9.154" transform="translate(1288.143 932.978)" fill="none" stroke="#000" stroke-linecap="round" stroke-miterlimit="10" stroke-width="2"/>
    <line id="Línea_121" data-name="Línea 121" x2="4.366" y2="9.154" transform="translate(1292.861 930.57)" fill="none" stroke="#000" stroke-linecap="round" stroke-miterlimit="10" stroke-width="2"/>
    <line id="Línea_122" data-name="Línea 122" x2="4.366" y2="9.154" transform="translate(1297.086 928.176)" fill="none" stroke="#000" stroke-linecap="round" stroke-miterlimit="10" stroke-width="2"/>
    <line id="Línea_123" data-name="Línea 123" x2="4.366" y2="9.154" transform="translate(1301.663 925.993)" fill="none" stroke="#000" stroke-linecap="round" stroke-miterlimit="10" stroke-width="2"/>
    <line id="Línea_124" data-name="Línea 124" x2="4.366" y2="9.154" transform="translate(1306.49 924.294)" fill="none" stroke="#000" stroke-linecap="round" stroke-miterlimit="10" stroke-width="2"/>
    <line id="Línea_125" data-name="Línea 125" x2="4.366" y2="9.154" transform="translate(1310.978 921.983)" fill="none" stroke="#000" stroke-linecap="round" stroke-miterlimit="10" stroke-width="2"/>
    <path id="Trazado_618" data-name="Trazado 618" d="M1285.731,880.329l-10.476,43.588s-2.4,12.2,3.408,19.942a9.166,9.166,0,0,1,.956,8.233,10.163,10.163,0,0,1-13,6.13q-.423-.153-.833-.342c-5.9-2.782-4.552-9.652-2.269-14.526l10.123-23.487-1.961-5.122Z" fill="none" stroke="#000" stroke-linecap="round" stroke-linejoin="round" stroke-width="2"/>
    <path id="Trazado_619" data-name="Trazado 619" d="M1310.736,899.864h-2.1l-26.506,11.023-1.515,6.563Z" fill="none" stroke="#000" stroke-linecap="round" stroke-linejoin="round" stroke-width="2"/>
    <path id="Trazado_620" data-name="Trazado 620" d="M1267.859,918.029l1.262,2.608-25.16,15.067a9.775,9.775,0,0,1-9.21.07,7.651,7.651,0,0,1-4.47-8.079,11.294,11.294,0,0,1,5.009-7.984,10.384,10.384,0,0,1,7.452-1.342c2.791.467,5.33,1.883,8.115,2.422a30.133,30.133,0,0,0,9.581.088C1262.991,920.537,1265.5,919.043,1267.859,918.029Z" fill="none" stroke="#000" stroke-linecap="round" stroke-linejoin="round" stroke-width="2"/>
    <ellipse id="Elipse_40" data-name="Elipse 40" cx="5.582" cy="4.775" rx="5.582" ry="4.775" transform="translate(1232.899 925.418) rotate(-24.515)" fill="none" stroke="#000" stroke-linecap="round" stroke-linejoin="round" stroke-width="2"/>
    <ellipse id="Elipse_41" data-name="Elipse 41" cx="6.054" cy="5.178" rx="6.054" ry="5.178" transform="translate(1264.571 953.796) rotate(-78.626)" fill="none" stroke="#000" stroke-linecap="round" stroke-linejoin="round" stroke-width="2"/>
    <path id="Trazado_621" data-name="Trazado 621" d="M1276.157,938.472l34.579-16.986-1.726-3.544a2.663,2.663,0,0,0-3.56-1.229h0l-30.395,14.863C1274.75,933.863,1275.509,936.331,1276.157,938.472Z" fill="none" stroke="#000" stroke-miterlimit="10" stroke-width="2"/>
    <path id="Trazado_622" data-name="Trazado 622" d="M1266.206,936.349c.019-.076.042-.148.066-.22.039-.131.081-.262.116-.394l-33.78,16.45a2.663,2.663,0,0,0-1.228,3.56l1.726,3.544,29.316-14.276c.376-.857.782-1.7,1.191-2.537C1264.411,940.411,1265.54,938.452,1266.206,936.349Z" fill="none" stroke="#000" stroke-miterlimit="10" stroke-width="2"/>
    <line id="Línea_126" data-name="Línea 126" x2="4.366" y2="9.154" transform="translate(1279.183 937.555)" fill="none" stroke="#000" stroke-linecap="round" stroke-miterlimit="10" stroke-width="2"/>
    <g id="Grupo_226" data-name="Grupo 226">
      <path id="Trazado_623" data-name="Trazado 623" d="M1229.858,889.933c0,2.312,2.282,4.154,3.116,6.164.864,2.085.585,4.993,2.156,6.564s4.479,1.291,6.563,2.155c2.011.834,3.853,3.117,6.165,3.117s4.154-2.283,6.164-3.117c2.085-.864,4.993-.585,6.564-2.155s1.291-4.48,2.155-6.564c.834-2.01,3.117-3.852,3.117-6.164s-2.283-4.154-3.117-6.165c-.864-2.084-.585-4.993-2.155-6.563s-4.48-1.292-6.564-2.156c-2.01-.834-3.852-3.116-6.164-3.116s-4.154,2.282-6.165,3.116c-2.084.864-4.993.585-6.563,2.156s-1.292,4.479-2.156,6.563C1232.14,885.779,1229.858,887.621,1229.858,889.933Z" fill="none" stroke="#1d1d1b" stroke-linecap="round" stroke-linejoin="round" stroke-width="2"/>
      <g id="Grupo_225" data-name="Grupo 225">
        <line id="Línea_127" data-name="Línea 127" y2="9.171" transform="translate(1243.975 888.327)" fill="none" stroke="#1d1d1b" stroke-linecap="round" stroke-linejoin="round" stroke-width="2"/>
        <path id="Trazado_624" data-name="Trazado 624" d="M1246.764,897.489h6.867a2.189,2.189,0,0,0,2.165-1.855l1.037-6.691a2.126,2.126,0,0,0-1.775-2.427,2.2,2.2,0,0,0-.325-.025h-4.967v-3.969a2.154,2.154,0,0,0-2.154-2.154h-.033a1.163,1.163,0,0,0-1.148.978h0a20.543,20.543,0,0,1-1.8,5.659l-.641,1.313h-3.761a1.368,1.368,0,0,0-1.366,1.366v6.439a1.367,1.367,0,0,0,1.366,1.366h3.752" fill="none" stroke="#1d1d1b" stroke-linecap="round" stroke-linejoin="round" stroke-width="2"/>
      </g>
    </g>
  </g>
</svg>
