<svg xmlns="http://www.w3.org/2000/svg" width="76.53" height="88.228" viewBox="0 0 76.53 88.228">
  <g id="Group_231" data-name="Group 231" transform="translate(-891.698 -876.089)">
    <circle id="Ellipse_50" data-name="Ellipse 50" cx="22.391" cy="22.391" r="22.391" transform="translate(913.982 892.459)" fill="#edcd84"/>
    <g id="Grupo_228" data-name="Grupo 228">
      <path id="Trazado_602" data-name="Trazado 602" d="M913.558,882.049l6.5,1.967a2.543,2.543,0,0,0,2.5-.6l5.654-5.433a2.543,2.543,0,0,1,3.5-.023l5.858,5.475a2.544,2.544,0,0,0,2.459.584L946.6,882.1a2.546,2.546,0,0,1,3.158,1.729c.008.028.016.056.023.085l1.8,7.052a2.548,2.548,0,0,0,1.654,1.788l7.6,2.557a2.544,2.544,0,0,1,1.6,3.223l-.018.051-1.971,5.469a2.545,2.545,0,0,0,.636,2.7l5.157,4.927a2.546,2.546,0,0,1,.085,3.594l-4.944,5.2a2.544,2.544,0,0,0-.612,2.418l1.975,7.3a2.545,2.545,0,0,1-1.639,3.074l-7.781,2.644a2.545,2.545,0,0,0-1.646,1.775l-1.806,7.02a2.543,2.543,0,0,1-3.071,1.837l-7.32-1.8a2.544,2.544,0,0,0-2.422.686l-5.085,5.165a2.545,2.545,0,0,1-3.6.03l-.029-.03-4.746-4.835a2.545,2.545,0,0,0-2.523-.661l-6.816,1.972a2.546,2.546,0,0,1-3.1-1.59l-2.84-7.97a2.551,2.551,0,0,0-1.685-1.589l-7.375-2.15a2.544,2.544,0,0,1-1.731-3.153l2-6.89a2.541,2.541,0,0,0-.581-2.443l-5.373-5.775a2.545,2.545,0,0,1,.03-3.5l5.469-5.676a2.546,2.546,0,0,0,.585-2.56l-1.9-5.771a2.544,2.544,0,0,1,1.621-3.211c.046-.015.092-.029.138-.041l7-1.874a2.539,2.539,0,0,0,1.787-1.761l2.084-7.315a2.545,2.545,0,0,1,3.142-1.754Z" fill="none" stroke="#1d1d1b" stroke-miterlimit="10" stroke-width="2"/>
      <path id="Trazado_603" data-name="Trazado 603" d="M929.308,902.682l-1.813,7.187a.7.7,0,0,1-.7.53l-7.814-.236a.7.7,0,0,0-.447,1.258l6.533,4.972a.7.7,0,0,1,.215.846l-3,6.664a.7.7,0,0,0,1.055.853l6.31-4.635a.7.7,0,0,1,.847.013l6.205,4.855a.7.7,0,0,0,1.09-.792l-2.877-7.886a.7.7,0,0,1,.271-.824l6.06-4.034a.7.7,0,0,0-.422-1.283l-7.375.365a.7.7,0,0,1-.708-.51l-2.081-7.362a.7.7,0,0,0-1.352.019Z" fill="none" stroke="#1d1d1b" stroke-miterlimit="10" stroke-width="2"/>
      <circle id="Elipse_37" data-name="Elipse 37" cx="22.458" cy="22.458" r="22.458" transform="translate(907.45 891.85)" fill="none" stroke="#1d1d1b" stroke-miterlimit="10" stroke-width="2"/>
      <path id="Trazado_604" data-name="Trazado 604" d="M907.89,936.767l-6.664,23.587a2.33,2.33,0,0,0,2.235,2.963h13.064a2.329,2.329,0,0,0,2.229-1.654l4.829-15.917" fill="none" stroke="#1d1d1b" stroke-miterlimit="10" stroke-width="2"/>
      <path id="Trazado_605" data-name="Trazado 605" d="M936.712,945.757l5.193,16.208a1.945,1.945,0,0,0,1.853,1.352h13.449a1.943,1.943,0,0,0,1.869-2.485l-6.957-24.065" fill="none" stroke="#1d1d1b" stroke-miterlimit="10" stroke-width="2"/>
    </g>
  </g>
</svg>
