<svg xmlns="http://www.w3.org/2000/svg" width="82.475" height="71.132" viewBox="0 0 82.475 71.132">
  <g id="Group_232" data-name="Group 232" transform="translate(-1064.206 -887.17)">
    <path id="Path_625" data-name="Path 625" d="M1138.026,958.3h-54.892a8.529,8.529,0,0,1-8.5-8.5v-18.67h71.9V949.8A8.529,8.529,0,0,1,1138.026,958.3Z" fill="#b5beb5"/>
    <g id="Grupo_229" data-name="Grupo 229">
      <g id="Grupo_220" data-name="Grupo 220">
        <path id="Trazado_606" data-name="Trazado 606" d="M1116.609,894.33l14-6.16,14.745,6.72s1.96,13.158-3.919,21.184S1130.6,926.13,1130.6,926.13a24.957,24.957,0,0,1-11.839-11.379C1114.653,906.462,1116.609,894.33,1116.609,894.33Z" fill="none" stroke="#000" stroke-linecap="round" stroke-linejoin="round" stroke-width="2"/>
        <path id="Trazado_607" data-name="Trazado 607" d="M1124.265,904.595l4.386,6.346,8.28-10.894" fill="none" stroke="#000" stroke-linecap="round" stroke-linejoin="round" stroke-width="2"/>
      </g>
      <path id="Trazado_608" data-name="Trazado 608" d="M1102.953,911.87H1075" fill="none" stroke="#000" stroke-linecap="round" stroke-linejoin="round" stroke-width="2"/>
      <path id="Trazado_609" data-name="Trazado 609" d="M1068.009,905.037" fill="none" stroke="#000" stroke-linecap="round" stroke-linejoin="round" stroke-width="2"/>
      <path id="Trazado_610" data-name="Trazado 610" d="M1109.415,905.037h-41.482a5.836,5.836,0,0,0-1.406.61,3.133,3.133,0,0,0-1.314,2.651q0,20.423-.007,40.845a3.3,3.3,0,0,0,3.323,3.277h.025q34.4-.033,68.8,0a3.342,3.342,0,0,0,3.354-3.33v-20.36" fill="none" stroke="#000" stroke-linecap="round" stroke-linejoin="round" stroke-width="2"/>
      <rect id="Rectángulo_227" data-name="Rectángulo 227" width="16.26" height="8.881" transform="translate(1074.999 918.084)" fill="none" stroke="#000" stroke-linecap="round" stroke-linejoin="round" stroke-width="2"/>
      <line id="Línea_96" data-name="Línea 96" x1="16.515" transform="translate(1114.718 944.122)" fill="none" stroke="#000" stroke-linecap="round" stroke-linejoin="round" stroke-width="2"/>
      <line id="Línea_97" data-name="Línea 97" x1="24.821" transform="translate(1106.412 938.086)" fill="none" stroke="#000" stroke-linecap="round" stroke-linejoin="round" stroke-width="2"/>
    </g>
  </g>
</svg>
