<?xml version="1.0" encoding="utf-8"?>
<!-- Generator: Adobe Illustrator 25.1.0, SVG Export Plug-In . SVG Version: 6.00 Build 0)  -->
<svg version="1.1" id="Capa_1" xmlns="http://www.w3.org/2000/svg" xmlns:xlink="http://www.w3.org/1999/xlink" x="0px" y="0px"
	 viewBox="0 0 36.3 33.3" style="enable-background:new 0 0 36.3 33.3;" xml:space="preserve">
<style type="text/css">
	.st0{fill:#1D1D1B;}
</style>
<path class="st0" d="M36.2,19.9c-0.5-1-2.1-1.6-3.8-1.3c0,0,0,0,0,0v-4.1c0-1.8-1-3.4-2.5-4.1V7.9c0-0.5-0.4-1-1-1h-0.5
	c0.1-0.1,0.2-0.3,0.2-0.5c0.4-3-2.1-5.6-4.1-6.4c-0.4-0.2-0.9,0-1.1,0.3c-1.1,1.5-2.8,2.5-4.6,2.9c-0.4,0.1-0.7,0.2-0.9,0.3
	c-1.3,0.3-2.4,1.3-2.9,2.6c-0.1,0.3,0,0.5,0.1,0.7c0,0,0.1,0.1,0.1,0.1H14c-0.5,0-1,0.4-1,1v2.4c-1.5,0.8-2.5,2.3-2.5,4.1v3.3
	c-1.9,0.3-3.8,1.2-5,2.7c-0.6,0.6-1.2,1.1-1.9,1.7C3.5,22.1,3.3,22,3.2,22c-0.3,0-0.5,0-0.7,0.2l-2.1,1.7c-0.4,0.3-0.5,0.9-0.2,1.4
	c0.2,0.2,0.4,0.3,0.7,0.4c0.3,0,0.5,0,0.7-0.2l1.3-1l4.9,6.2l-1.3,1c-0.2,0.2-0.4,0.5-0.4,0.8c0,0.3,0.1,0.5,0.3,0.7
	c0.2,0.2,0.4,0.3,0.7,0.3c0,0,0,0,0,0c0.2,0,0.4-0.1,0.6-0.2l2.1-1.6c0.2-0.2,0.3-0.4,0.4-0.7c0-0.1,0-0.3,0-0.4
	c0.6-0.3,1.2-0.5,1.9-0.5c1.2,0,2.3-0.1,3.1-0.1c1.6,0.1,3.3-0.1,4.9-0.4c2.9-1,13.7-6.2,15.5-7.7C36.3,21.4,36.5,20.6,36.2,19.9z
	 M9,28.9l-4.1-5.2c0.7-0.6,1.4-1.2,2.1-1.8c1.1-1.3,2.6-2.1,4.3-2.1h10.5c0.4,0,0.7,0.3,0.8,0.6c0.1,0.2,0,0.5-0.2,0.7
	c-0.2,0.2-0.4,0.3-0.7,0.3L16,21.6c-0.5,0-0.9,0.5-0.9,1c0,0.5,0.5,0.9,1,0.9l5.6-0.4c0.2,0,0.4,0,0.6-0.1c1.5-0.3,2.4-1.8,2.1-3.2
	c-0.3-1.3-1.5-2.2-2.7-2.2l-9.2,0v-3.2c0-1.5,1.2-2.7,2.7-2.7h12.5c1.5,0,2.7,1.2,2.7,2.7V19c-1.9,0.5-3.7,1-5.6,1.7l-0.1,0.1
	c-0.2,0.1-0.3,0.3-0.4,0.5c-0.1,0.2-0.1,0.5,0,0.7c0.1,0.2,0.3,0.4,0.5,0.5c0.2,0.1,0.5,0.1,0.7,0c2.3-0.9,4.8-1.6,7.2-2.1
	c0.4-0.1,0.8-0.1,1.2,0c-2.6,1.7-11.9,6.2-14.5,7.1c-1.4,0.3-2.9,0.4-4.4,0.4c-0.9,0-2,0-3.2,0.1C10.9,28.1,9.9,28.4,9,28.9z
	 M27.7,9.8H15.2c0,0,0,0,0,0H15V8.9h12.9v0.9L27.7,9.8C27.7,9.8,27.7,9.8,27.7,9.8z M16.8,6.6c0,0,0.3-0.8,1.6-1.3
	c0.2-0.1,0.5-0.2,0.8-0.2c2-0.4,3.8-1.5,5.1-2.9c1.2,0.7,2.5,2.3,2.3,4c0,0.3,0,0.5,0.2,0.7H16.6C16.7,6.9,16.8,6.8,16.8,6.6z"/>
</svg>
