<?xml version="1.0" encoding="utf-8"?>
<!-- Generator: Adobe Illustrator 25.1.0, SVG Export Plug-In . SVG Version: 6.00 Build 0)  -->
<svg version="1.1" id="Capa_1" xmlns="http://www.w3.org/2000/svg" xmlns:xlink="http://www.w3.org/1999/xlink" x="0px" y="0px"
	 viewBox="0 0 26.4 26.4" style="enable-background:new 0 0 26.4 26.4;" xml:space="preserve">
<path d="M1.2,12C0.5,12,0,12.5,0,13.2c0,7.3,5.9,13.2,13.2,13.2s13.2-5.9,13.2-13.2S20.4,0,13.2,0C9.8,0,6.6,1.3,4.1,3.6L3.9,3.9
	V1.2C3.9,0.5,3.4,0,2.7,0S1.5,0.5,1.5,1.2v6c0,0.7,0.5,1.2,1.2,1.2h6c0.7,0,1.2-0.5,1.2-1.2S9.3,6,8.7,6H5.2l0.2-0.2
	c4.1-4.3,10.9-4.4,15.2-0.3c4.3,4.1,4.4,10.9,0.3,15.2C16.9,24.9,10,25.1,5.7,21c-2.1-2-3.3-4.9-3.3-7.8C2.4,12.5,1.9,12,1.2,12z"/>
</svg>
