<?xml version="1.0" encoding="utf-8"?>
<!-- Generator: Adobe Illustrator 25.1.0, SVG Export Plug-In . SVG Version: 6.00 Build 0)  -->
<svg version="1.1" id="Capa_1" xmlns="http://www.w3.org/2000/svg" xmlns:xlink="http://www.w3.org/1999/xlink" x="0px" y="0px"
	 viewBox="0 0 33.6 27.6" style="enable-background:new 0 0 33.6 27.6;" xml:space="preserve">
<path id="Trazado_565" d="M32.7,12.9l-4.5-5.4C27.4,6.5,26.3,6,25.1,6h-2.3V3c0-1.6-1.3-3-3-3H3C1.3,0,0,1.3,0,3v16.9
	c0,1.4,1,2.6,2.4,2.9c0,0,0,0,0,0.1c0,2.7,2.1,4.8,4.8,4.8c2.7,0,4.8-2.1,4.8-4.8h9.6c0,2.7,2.1,4.8,4.8,4.8c2.7,0,4.8-2.1,4.8-4.8
	c0,0,0,0,0,0c1.4-0.1,2.4-1.2,2.4-2.6v-4.7C33.6,14.5,33.3,13.6,32.7,12.9z M7.2,25.2c-1.3,0-2.4-1.1-2.4-2.4h4.8
	C9.6,24.1,8.5,25.2,7.2,25.2C7.2,25.2,7.2,25.2,7.2,25.2L7.2,25.2z M26.4,25.2c-1.3,0-2.4-1.1-2.4-2.4h4.8
	C28.8,24.1,27.7,25.2,26.4,25.2C26.4,25.2,26.4,25.2,26.4,25.2L26.4,25.2z M31.2,20.2c0,0.1-0.1,0.2-0.2,0.2H2.9
	c-0.3,0-0.5-0.2-0.5-0.5V3c0-0.3,0.3-0.6,0.6-0.6h16.8c0.3,0,0.6,0.3,0.6,0.6v13.8c0,0.7,0.5,1.2,1.2,1.2c0.7,0,1.2-0.5,1.2-1.2V8.4
	h2.3c0.5,0,0.9,0.2,1.3,0.6l4.5,5.4c0.2,0.3,0.4,0.7,0.4,1L31.2,20.2z"/>
</svg>
