<svg xmlns="http://www.w3.org/2000/svg" width="76.532" height="76.532" viewBox="0 0 76.532 76.532">
  <g id="Grupo_226" data-name="Grupo 226" transform="translate(-1550.415 -723.636)">
    <path id="Trazado_623" data-name="Trazado 623" d="M1551.415,761.9c0,4.787,4.725,8.6,6.451,12.762,1.789,4.316,1.211,10.337,4.464,13.589s9.273,2.673,13.587,4.462c4.164,1.727,7.977,6.453,12.764,6.453s8.6-4.726,12.762-6.453c4.316-1.789,10.337-1.211,13.589-4.462s2.673-9.275,4.462-13.589c1.726-4.162,6.453-7.975,6.453-12.762s-4.727-8.6-6.453-12.763c-1.789-4.315-1.211-10.338-4.462-13.588s-9.275-2.675-13.589-4.464c-4.162-1.726-7.975-6.451-12.762-6.451s-8.6,4.725-12.764,6.451c-4.314,1.789-10.337,1.212-13.587,4.464s-2.675,9.273-4.464,13.588C1556.14,753.3,1551.415,757.116,1551.415,761.9Z" fill="none" stroke="#fff" stroke-linecap="round" stroke-linejoin="round" stroke-width="2"/>
    <g id="Grupo_225" data-name="Grupo 225">
      <line id="Línea_127" data-name="Línea 127" y2="18.987" transform="translate(1580.642 758.577)" fill="none" stroke="#fff" stroke-linecap="round" stroke-linejoin="round" stroke-width="2"/>
      <path id="Trazado_624" data-name="Trazado 624" d="M1586.416,777.546h14.217a4.534,4.534,0,0,0,4.482-3.841l2.147-13.852a4.4,4.4,0,0,0-3.674-5.025,4.467,4.467,0,0,0-.673-.052h-10.284v-8.217a4.459,4.459,0,0,0-4.459-4.46h-.069a2.408,2.408,0,0,0-2.376,2.025h0A42.564,42.564,0,0,1,1582,755.84l-1.327,2.719h-7.787a2.83,2.83,0,0,0-2.828,2.828v13.331a2.832,2.832,0,0,0,2.828,2.828h7.768" fill="none" stroke="#fff" stroke-linecap="round" stroke-linejoin="round" stroke-width="2"/>
    </g>
  </g>
</svg>
