<?xml version="1.0" encoding="utf-8"?>
<!-- Generator: Adobe Illustrator 25.1.0, SVG Export Plug-In . SVG Version: 6.00 Build 0)  -->
<svg version="1.1" id="Capa_1" xmlns="http://www.w3.org/2000/svg" xmlns:xlink="http://www.w3.org/1999/xlink" x="0px" y="0px"
	 viewBox="0 0 21.3 26.6" style="enable-background:new 0 0 21.3 26.6;" xml:space="preserve">
<path id="Trazado_657" d="M19.9,6.7h-4V5.3C16,2.4,13.6,0,10.6,0C7.7,0,5.3,2.4,5.3,5.3c0,0,0,0,0,0v1.3h-4C0.6,6.7,0,7.3,0,8v14.6
	c0,2.2,1.8,4,4,4c0,0,0,0,0,0h13.3c2.2,0,4-1.8,4-4c0,0,0,0,0,0V8C21.3,7.3,20.7,6.7,19.9,6.7C19.9,6.7,19.9,6.7,19.9,6.7z M8,5.3
	c0-1.5,1.2-2.6,2.7-2.6c1.4,0,2.6,1.2,2.6,2.6v1.3H8V5.3z M18.6,22.6c0,0.7-0.6,1.3-1.3,1.3H4c-0.7,0-1.3-0.6-1.3-1.3V9.3h2.7v1.3
	c0,0.7,0.6,1.3,1.3,1.3C7.4,12,8,11.4,8,10.6V9.3h5.3v1.3c0,0.7,0.6,1.3,1.3,1.3c0.7,0,1.3-0.6,1.3-1.3V9.3h2.7L18.6,22.6z"/>
</svg>
