<?xml version="1.0" encoding="utf-8"?>
<!-- Generator: Adobe Illustrator 25.1.0, SVG Export Plug-In . SVG Version: 6.00 Build 0)  -->
<svg version="1.1" id="Capa_1" xmlns="http://www.w3.org/2000/svg" xmlns:xlink="http://www.w3.org/1999/xlink" x="0px" y="0px"
	 viewBox="0 0 26.5 23.6" style="enable-background:new 0 0 26.5 23.6;" xml:space="preserve">
<path d="M26.1,10.9L15.5,0.4C15.3,0.1,15,0,14.6,0c-0.3,0-0.7,0.1-0.9,0.4c-0.2,0.2-0.4,0.5-0.4,0.9c0,0.3,0.1,0.7,0.4,0.9l8.4,8.3
	H1.2c-0.3,0-0.7,0.1-0.9,0.4C0.1,11.1,0,11.4,0,11.8C0,12.4,0.6,13,1.3,13h20.9l-8.4,8.4c-0.5,0.5-0.5,1.3,0,1.8
	c0.2,0.3,0.6,0.4,0.9,0.4c0.3,0,0.6-0.1,0.9-0.4l10.5-10.5C26.6,12.2,26.6,11.4,26.1,10.9z"/>
</svg>
