<?xml version="1.0" encoding="utf-8"?>
<!-- Generator: Adobe Illustrator 25.1.0, SVG Export Plug-In . SVG Version: 6.00 Build 0)  -->
<svg version="1.1" id="Capa_1" xmlns="http://www.w3.org/2000/svg" xmlns:xlink="http://www.w3.org/1999/xlink" x="0px" y="0px"
	 viewBox="0 0 25.8 25.8" style="enable-background:new 0 0 25.8 25.8;" xml:space="preserve">
<path d="M18.4,13.7c1.5-1.4,2.4-3.5,2.4-5.7c0-4.4-3.6-8-8-8c-4.4,0-8,3.6-8,8c0,2.2,0.9,4.3,2.4,5.7C3.1,15.3,0,19.4,0,24.3
	c0,0.8,0.7,1.5,1.5,1.5S3,25.1,3,24.3c0-4.6,3.7-8.3,8.3-8.3h3.1c4.6,0,8.3,3.7,8.3,8.3c0,0.8,0.7,1.5,1.5,1.5s1.5-0.7,1.5-1.5
	C25.8,19.4,22.7,15.3,18.4,13.7z M12.9,3c2.7,0,5,2.2,5,5s-2.2,5-5,5c-2.7,0-5-2.2-5-5S10.1,3,12.9,3z"/>
</svg>
