<?xml version="1.0" encoding="utf-8"?>
<!-- Generator: Adobe Illustrator 25.1.0, SVG Export Plug-In . SVG Version: 6.00 Build 0)  -->
<svg version="1.1" id="Capa_1" xmlns="http://www.w3.org/2000/svg" xmlns:xlink="http://www.w3.org/1999/xlink" x="0px" y="0px"
	 viewBox="0 0 39 30.6" style="enable-background:new 0 0 39 30.6;" xml:space="preserve">
<g id="Grupo_287" transform="translate(212.5 2)">
	<g id="Línea_111">
		<path d="M-175.5,15.3h-35c-1.1,0-2-0.9-2-2s0.9-2,2-2h35c1.1,0,2,0.9,2,2S-174.4,15.3-175.5,15.3z"/>
	</g>
	<g id="Línea_112">
		<path d="M-175.5,28.6h-11.7c-1.1,0-2-0.9-2-2s0.9-2,2-2h11.7c1.1,0,2,0.9,2,2S-174.4,28.6-175.5,28.6z"/>
	</g>
	<g id="Línea_113">
		<path d="M-175.5,2h-23.3c-1.1,0-2-0.9-2-2s0.9-2,2-2h23.3c1.1,0,2,0.9,2,2S-174.4,2-175.5,2z"/>
	</g>
</g>
</svg>
