<?xml version="1.0" encoding="utf-8"?>
<!-- Generator: Adobe Illustrator 25.1.0, SVG Export Plug-In . SVG Version: 6.00 Build 0)  -->
<svg version="1.1" id="Capa_1" xmlns="http://www.w3.org/2000/svg" xmlns:xlink="http://www.w3.org/1999/xlink" x="0px" y="0px"
	 viewBox="0 0 18 18" style="enable-background:new 0 0 18 18;" xml:space="preserve">
<style type="text/css">
	.st0{fill:#171517;}
</style>
<path class="st0" d="M17.6,15.4l-6.7-6.7l5.8-6.2c0.6-0.6,0.5-1.6-0.1-2.1S15-0.1,14.4,0.5L8.7,6.6L2.6,0.4C2-0.1,1-0.1,0.4,0.4
	C-0.1,1-0.1,2,0.4,2.6l6.2,6.2l-6.3,6.7c-0.6,0.6-0.5,1.6,0.1,2.1c0.3,0.3,0.7,0.4,1,0.4c0.4,0,0.8-0.2,1.1-0.5l6.2-6.6l6.7,6.7
	c0.3,0.3,0.7,0.4,1.1,0.4s0.8-0.1,1.1-0.4C18.1,17,18.1,16,17.6,15.4z"/>
</svg>
