<svg xmlns="http://www.w3.org/2000/svg" width="98.137" height="53.215" viewBox="0 0 98.137 53.215">
  <g id="Group_288" data-name="Group 288" transform="translate(-250.388 -190.94)">
    <g id="Group_111" data-name="Group 111" transform="translate(266.616 232.15)">
      <path id="Path_532" data-name="Path 532" d="M320.884,352.37c0,2.253-1.891,3.733-5.263,3.733-1.842,0-3.881-.493-4.917-1.71l1.365-1.382a5.217,5.217,0,0,0,3.552,1.431c1.99,0,3.306-.641,3.306-1.71,0-1.02-.74-1.48-3.042-1.842l-.461-.066c-3.536-.51-4.325-1.513-4.325-3.289,0-2.121,1.858-3.421,4.884-3.421a6.7,6.7,0,0,1,4.506,1.48l-1.365,1.349a5.3,5.3,0,0,0-3.141-1.168c-2.22,0-2.927.757-2.927,1.546,0,.987.427,1.3,2.664,1.678l.477.066C319.5,349.557,320.884,350.33,320.884,352.37Z" transform="translate(-310.704 -344.114)" fill="#fff"/>
      <path id="Path_533" data-name="Path 533" d="M378.973,345.092v6.019c0,3.339-1.694,5.723-5.115,5.723-3.437,0-5.148-2.385-5.148-5.723v-6.019h1.957v6.019c0,2.648,1.266,4.062,3.19,4.062,1.842,0,3.158-1.414,3.158-4.062v-6.019Z" transform="translate(-353.105 -344.829)" fill="#fff"/>
      <path id="Path_534" data-name="Path 534" d="M430.817,345.092v11.5H428.86v-11.5Z" transform="translate(-397.071 -344.829)" fill="#fff"/>
      <path id="Path_535" data-name="Path 535" d="M464.658,346.753H460.81v9.835h-1.957v-9.835h-3.832v-1.661h9.637Z" transform="translate(-416.194 -344.829)" fill="#fff"/>
      <path id="Path_536" data-name="Path 536" d="M510.891,346.753v3.256h6.249v1.661h-6.249v3.256h7.072v1.661h-9.029v-11.5h9.029v1.661Z" transform="translate(-455.602 -344.829)" fill="#fff"/>
    </g>
    <g id="Group_113" data-name="Group 113" transform="translate(250.388 190.94)">
      <path id="Path_537" data-name="Path 537" d="M250.388,225.736h7.533v-22.36l9.925,14.708,10.044-15.545v23.2h7.892v-34.8h-8.37l-9.327,14.708-9.327-14.708h-8.37Z" transform="translate(-250.388 -190.94)" fill="#fff"/>
      <path id="Path_538" data-name="Path 538" d="M406.471,190.94H390.388v34.8H406.53s15.425-.957,16.023-17.4C422.553,208.338,423.271,193.212,406.471,190.94Zm8.753,17.4c-.326,8.947-8.719,9.468-8.719,9.468H397.72V198.871h8.752C415.614,200.107,415.224,208.338,415.224,208.338Z" transform="translate(-352.722 -190.94)" fill="#fff"/>
      <g id="Group_112" data-name="Group 112" transform="translate(68.253)">
        <path id="Path_539" data-name="Path 539" d="M514.772,225.73v-6.339h.436c2.135,0,4.269.01,6.4,0a4.905,4.905,0,0,0,3.692-1.521,3.667,3.667,0,0,0-.461-5.5,4.707,4.707,0,0,0-2.913-1.079c-3.451-.033-6.9-.012-10.385-.012V225.7h-7.463v-.432c0-1.673,0-3.347,0-5.02a.725.725,0,0,1,.241-.6,10,10,0,0,0,2.622-4.788,22.287,22.287,0,0,0-.49-13.89,14.566,14.566,0,0,0-2.262-3.958.483.483,0,0,1-.1-.278c-.006-1.857,0-3.714,0-5.652.418-.022.827-.059,1.237-.062,4.782-.034,9.565-.082,14.347-.084a16.016,16.016,0,0,1,7.7,1.758,7.816,7.816,0,0,1,4.308,5.27,9.016,9.016,0,0,1-2.068,7.922,6.363,6.363,0,0,1-2.052,1.842c.693.276,1.408.509,2.077.836a7.143,7.143,0,0,1,4.14,5.114,10.043,10.043,0,0,1-5.589,10.946,12.447,12.447,0,0,1-5.244,1.107c-2.569-.023-5.138-.006-7.707-.006Zm-3.246-20.648a1.7,1.7,0,0,0,.184.023c2.962,0,5.924.008,8.886-.009a3.943,3.943,0,0,0,2.533-.964,3.478,3.478,0,0,0,.6-4.875,4.039,4.039,0,0,0-3.364-1.606q-4.246-.009-8.491,0c-.113,0-.225.016-.347.026Z" transform="translate(-504.078 -190.94)" fill="#fff"/>
      </g>
    </g>
    <circle id="Ellipse_21" data-name="Ellipse 21" cx="0.984" cy="0.984" r="0.984" transform="translate(255.765 235.999)" fill="#fff"/>
    <circle id="Ellipse_22" data-name="Ellipse 22" cx="0.984" cy="0.984" r="0.984" transform="translate(337.358 237.52)" fill="#fff"/>
  </g>
</svg>
