<?xml version="1.0" encoding="utf-8"?>
<!-- Generator: Adobe Illustrator 25.1.0, SVG Export Plug-In . SVG Version: 6.00 Build 0)  -->
<svg version="1.1" id="Capa_1" xmlns="http://www.w3.org/2000/svg" xmlns:xlink="http://www.w3.org/1999/xlink" x="0px" y="0px"
	 viewBox="0 0 53.9 53.9" style="enable-background:new 0 0 53.9 53.9;" xml:space="preserve">
<g>
	<path d="M26.9,0C12.1,0,0,12.1,0,26.9c0,14.9,12.1,26.9,26.9,26.9c14.8,0,26.9-12.1,26.9-26.9v0C53.9,12.1,41.8,0,26.9,0z
		 M51.4,26.9c0,13.5-11,24.5-24.5,24.5c-13.5,0-24.5-11-24.5-24.5c0-13.5,11-24.5,24.5-24.5C40.4,2.5,51.4,13.5,51.4,26.9z"/>
	<path d="M27.8,20.7c-0.2-0.2-0.5-0.3-0.9-0.3c-0.3,0-0.6,0.1-0.8,0.4l-7.3,7.3c-0.5,0.5-0.4,1.3,0.1,1.7c0.2,0.2,0.5,0.3,0.8,0.3
		c0.3,0,0.6-0.1,0.9-0.4l6.4-6.4l6.4,6.4c0.5,0.5,1.2,0.5,1.7,0c0.5-0.5,0.5-1.3,0-1.7L27.8,20.7z"/>
</g>
</svg>
