<?xml version="1.0" encoding="utf-8"?>
<!-- Generator: Adobe Illustrator 25.1.0, SVG Export Plug-In . SVG Version: 6.00 Build 0)  -->
<svg version="1.1" id="Capa_1" xmlns="http://www.w3.org/2000/svg" xmlns:xlink="http://www.w3.org/1999/xlink" x="0px" y="0px"
	 viewBox="0 0 108.1 107.8" style="enable-background:new 0 0 108.1 107.8;" xml:space="preserve">
<style type="text/css">
	.st0{fill:#EDCD84;}
	.st1{fill:#1D1D1B;}
</style>
<g>
	<circle class="st0" cx="60.6" cy="48.4" r="22.4"/>
	<g id="Grupo_228_1_" transform="translate(-78.526 -228.671)">
		<g id="Trazado_602_1_">
			<path class="st1" d="M132.9,314.5c-0.9,0-1.8-0.3-2.5-1l-4.8-4.9c-0.4-0.4-1-0.6-1.5-0.4l-6.8,2c-1.8,0.5-3.7-0.5-4.3-2.2l-2.8-8
				c-0.2-0.5-0.5-0.8-1-1l-7.4-2.1c-1.9-0.5-3-2.5-2.4-4.4l2-6.9c0.2-0.5,0-1.1-0.4-1.5l-5.4-5.8c-1.3-1.4-1.3-3.5,0-4.9l5.5-5.7
				c0.4-0.4,0.5-1,0.4-1.6l-1.9-5.8c-0.3-0.9-0.2-1.9,0.2-2.7s1.2-1.5,2.1-1.8c0.1,0,0.1,0,0.2-0.1l7-1.9c0.5-0.1,0.9-0.5,1.1-1.1
				l2.1-7.3c0.3-0.9,0.9-1.7,1.7-2.1c0.8-0.5,1.8-0.6,2.7-0.3l0.1,0l6.5,2c0.5,0.2,1.1,0,1.5-0.4l5.7-5.4c1.4-1.3,3.5-1.3,4.9,0
				l5.9,5.5c0.4,0.4,1,0.5,1.5,0.4l6.6-1.9c0.9-0.3,1.9-0.2,2.7,0.3c0.8,0.5,1.4,1.2,1.7,2.1l0,0.1l1.8,7c0.1,0.5,0.5,0.9,1,1.1
				l7.6,2.6c0.9,0.3,1.6,0.9,2,1.8c0.4,0.8,0.5,1.8,0.2,2.7l0,0.1l-2,5.4c-0.2,0.6-0.1,1.2,0.4,1.6l5.2,4.9c1.4,1.3,1.5,3.6,0.1,5
				l-4.9,5.2c-0.4,0.4-0.5,0.9-0.4,1.5l2,7.3c0.5,1.8-0.5,3.7-2.3,4.3l-7.8,2.6c-0.5,0.2-0.9,0.6-1,1.1l-1.8,7
				c-0.5,1.9-2.4,3-4.3,2.6l-7.3-1.8c-0.5-0.1-1.1,0-1.5,0.4l-5.1,5.2C134.7,314.2,133.8,314.5,132.9,314.5z M124.5,306.2
				c0.9,0,1.9,0.4,2.5,1.1l4.7,4.8c0.3,0.3,0.7,0.5,1.1,0.5c0,0,0,0,0,0c0.4,0,0.8-0.2,1.1-0.5l5.1-5.2c0.9-0.9,2.2-1.3,3.4-1
				l7.3,1.8c0.8,0.2,1.7-0.3,1.9-1.1l1.8-7c0.3-1.2,1.2-2.1,2.3-2.5l7.8-2.6c0.8-0.3,1.2-1.1,1-1.9l-2-7.3c-0.3-1.2,0-2.5,0.9-3.4
				l4.9-5.2c0.6-0.6,0.6-1.6-0.1-2.2l-5.2-4.9c-1-1-1.4-2.4-0.9-3.8l2-5.5c0.1-0.4,0.1-0.8-0.1-1.2c-0.2-0.4-0.5-0.6-0.9-0.8
				l-7.6-2.6c-1.1-0.4-2-1.3-2.3-2.5l-1.8-7c-0.1-0.4-0.4-0.8-0.8-1c-0.4-0.2-0.8-0.2-1.2-0.1l-6.6,1.9c-1.2,0.4-2.5,0-3.4-0.8
				l-5.9-5.5c-0.6-0.6-1.5-0.6-2.1,0l-5.7,5.4c-0.9,0.9-2.3,1.2-3.5,0.8l-6.5-2l0.3-1l-0.3,0.9c-0.4-0.1-0.8-0.1-1.2,0.1
				c-0.4,0.2-0.6,0.5-0.7,0.9l-2.1,7.3c-0.3,1.2-1.3,2.1-2.5,2.5l-7,1.9c-0.5,0.2-0.8,0.4-1,0.8c-0.2,0.4-0.2,0.8-0.1,1.2l1.9,5.8
				c0.4,1.3,0.1,2.6-0.8,3.6l-5.5,5.7c-0.6,0.6-0.6,1.5,0,2.1l5.4,5.8c0.8,0.9,1.2,2.2,0.8,3.4l-2,6.9c-0.2,0.8,0.2,1.7,1.1,1.9
				l7.4,2.1c1.1,0.3,2,1.1,2.3,2.2l2.8,8c0.3,0.8,1.1,1.2,1.9,1l6.8-2C123.8,306.2,124.2,306.2,124.5,306.2z"/>
		</g>
		<g id="Trazado_603_1_">
			<path class="st1" d="M139.8,288.3c-0.4,0-0.7-0.1-1-0.4l-6-4.7l-6.1,4.5c-0.5,0.4-1.1,0.4-1.7,0.2c-0.4-0.2-0.7-0.5-0.9-0.9
				s-0.2-0.9,0-1.3l2.9-6.5l-6.3-4.8c-0.4-0.3-0.7-0.9-0.7-1.4c0-0.9,0.8-1.7,1.8-1.6l7.6,0.2l1.8-7c0.1-0.6,0.6-1,1.2-1.2
				c0.4-0.1,0.9-0.1,1.3,0.1c0.4,0.2,0.7,0.6,0.8,1l2,7.1l7.1-0.4c0.6,0,1.2,0.3,1.5,0.8c0.3,0.4,0.3,0.8,0.2,1.3
				c-0.1,0.4-0.3,0.8-0.7,1.1l-5.9,3.9l2.8,7.7c0.2,0.6,0.1,1.2-0.3,1.6c-0.3,0.4-0.7,0.6-1.1,0.6
				C140,288.3,139.9,288.3,139.8,288.3z M140,286.4L140,286.4C140,286.4,140,286.4,140,286.4z M132.8,281.2c0.4,0,0.7,0.1,1,0.4
				l5.4,4.2l-2.5-6.9c-0.3-0.7,0-1.6,0.7-2l5.2-3.4l-6.3,0.3c-0.8,0-1.5-0.5-1.7-1.2l-1.8-6.3l-1.5,6.1c-0.2,0.8-0.9,1.3-1.7,1.3
				l-6.9-0.2l5.8,4.4c0.6,0.5,0.8,1.3,0.5,2.1l-2.5,5.6l5.4-4C132.1,281.3,132.4,281.2,132.8,281.2z M143.6,273.3L143.6,273.3
				C143.6,273.3,143.6,273.3,143.6,273.3z M121.7,273.3C121.7,273.3,121.7,273.3,121.7,273.3L121.7,273.3z M143.4,272.8
				C143.4,272.8,143.4,272.8,143.4,272.8L143.4,272.8z M136.4,271.9L136.4,271.9C136.4,271.9,136.4,271.9,136.4,271.9z"/>
		</g>
		<g id="Elipse_37_1_">
			<path class="st1" d="M132.6,299.9c-12.9,0-23.5-10.5-23.5-23.5c0-12.9,10.5-23.5,23.5-23.5s23.5,10.5,23.5,23.5
				C156.1,289.4,145.6,299.9,132.6,299.9z M132.6,255c-11.8,0-21.5,9.6-21.5,21.5s9.6,21.5,21.5,21.5s21.5-9.6,21.5-21.5
				S144.5,255,132.6,255z"/>
		</g>
		<g id="Trazado_604_1_">
			<path class="st1" d="M119.2,326.5h-13.1c-0.3,0-0.6,0-0.9-0.1c-0.9-0.2-1.6-0.8-2-1.6c-0.4-0.8-0.5-1.7-0.3-2.5l6.7-23.6l1.9,0.5
				l-6.7,23.6c-0.2,0.7,0.2,1.4,0.9,1.6c0.1,0,0.2,0,0.4,0h13.1c0.6,0,1.1-0.4,1.3-0.9l4.8-15.9l1.9,0.6l-4.8,15.9
				C122,325.5,120.7,326.5,119.2,326.5z"/>
		</g>
		<g id="Trazado_605_1_">
			<path class="st1" d="M159.9,326.5h-13.4c-1.3,0-2.4-0.8-2.8-2l-5.2-16.2l1.9-0.6l5.2,16.2c0.1,0.4,0.5,0.7,0.9,0.7h13.4
				c0.5,0,0.9-0.4,0.9-0.9c0-0.1,0-0.2,0-0.3l-7-24.1l1.9-0.6l7,24.1c0.1,0.3,0.1,0.5,0.1,0.8C162.9,325.2,161.5,326.5,159.9,326.5z
				"/>
		</g>
	</g>
</g>
</svg>
