<?xml version="1.0" encoding="utf-8"?>
<!-- Generator: Adobe Illustrator 25.1.0, SVG Export Plug-In . SVG Version: 6.00 Build 0)  -->
<svg version="1.1" id="Capa_1" xmlns="http://www.w3.org/2000/svg" xmlns:xlink="http://www.w3.org/1999/xlink" x="0px" y="0px"
	 viewBox="0 0 108.1 107.8" style="enable-background:new 0 0 108.1 107.8;" xml:space="preserve">
<style type="text/css">
	.st0{fill:#FFAD9A;}
	.st1{fill:none;stroke:#000000;stroke-width:2;stroke-linecap:round;stroke-linejoin:round;}
	.st2{fill:none;stroke:#000000;stroke-width:2;stroke-miterlimit:10;}
	.st3{fill:#1D1D1B;}
</style>
<g>
	<path class="st0" d="M18.4,36.5c0,3,3,5.5,4.1,8.1c1.1,2.7,0.8,6.6,2.8,8.6c2.1,2.1,5.9,1.7,8.6,2.8c2.6,1.1,5.1,4.1,8.1,4.1
		c3,0,5.5-3,8.1-4.1c2.7-1.1,6.6-0.8,8.6-2.8c2.1-2.1,1.7-5.9,2.8-8.6c1.1-2.6,4.1-5.1,4.1-8.1c0-3-3-5.5-4.1-8.1
		c-1.1-2.7-0.8-6.6-2.8-8.6c-2.1-2.1-5.9-1.7-8.6-2.8c-2.6-1.1-5.1-4.1-8.1-4.1c-3,0-5.5,3-8.1,4.1c-2.7,1.1-6.6,0.8-8.6,2.8
		c-2.1,2.1-1.7,5.9-2.8,8.6C21.4,31.1,18.4,33.5,18.4,36.5z"/>
	<path id="Trazado_618_1_" class="st1" d="M67.3,13.5L56.8,57.1c0,0-2.4,12.2,3.4,19.9c1.6,2.4,2,5.5,1,8.2c-1.9,5.3-7.7,8-13,6.1
		c-0.3-0.1-0.6-0.2-0.8-0.3c-5.9-2.8-4.6-9.7-2.3-14.5L55.2,53l-2-5.1L67.3,13.5z"/>
	<path id="Trazado_621_1_" class="st2" d="M57.7,71.6l34.6-17l-1.7-3.5c-0.6-1.3-2.2-1.9-3.6-1.2c0,0,0,0,0,0L56.6,64.8
		C56.3,67,57,69.5,57.7,71.6z"/>
	<g>
		<path class="st3" d="M66,68.2c-0.2-0.5-0.8-0.7-1.3-0.5c-0.5,0.2-0.7,0.8-0.5,1.3l4.4,9.2c0.2,0.4,0.5,0.6,0.9,0.6
			c0.1,0,0.3,0,0.4-0.1c0.5-0.2,0.7-0.8,0.5-1.3L66,68.2z"/>
		<path class="st3" d="M70.6,65.7c-0.2-0.5-0.8-0.7-1.3-0.5c-0.5,0.2-0.7,0.8-0.5,1.3l4.4,9.2c0.2,0.4,0.5,0.6,0.9,0.6
			c0.1,0,0.3,0,0.4-0.1c0.5-0.2,0.7-0.8,0.5-1.3L70.6,65.7z"/>
		<path class="st3" d="M75.3,63.3c-0.2-0.5-0.8-0.7-1.3-0.5c-0.5,0.2-0.7,0.8-0.5,1.3l4.4,9.2c0.2,0.4,0.5,0.6,0.9,0.6
			c0.1,0,0.3,0,0.4-0.1c0.5-0.2,0.7-0.8,0.5-1.3L75.3,63.3z"/>
		<path class="st3" d="M79.5,60.9c-0.2-0.5-0.8-0.7-1.3-0.5c-0.5,0.2-0.7,0.8-0.5,1.3l4.4,9.2c0.2,0.4,0.5,0.6,0.9,0.6
			c0.1,0,0.3,0,0.4-0.1c0.5-0.2,0.7-0.8,0.5-1.3L79.5,60.9z"/>
		<path class="st3" d="M84.1,58.7c-0.2-0.5-0.8-0.7-1.3-0.5c-0.5,0.2-0.7,0.8-0.5,1.3l4.4,9.2c0.2,0.4,0.5,0.6,0.9,0.6
			c0.1,0,0.3,0,0.4-0.1c0.5-0.2,0.7-0.8,0.5-1.3L84.1,58.7z"/>
		<path class="st3" d="M88.9,57c-0.2-0.5-0.8-0.7-1.3-0.5c-0.5,0.2-0.7,0.8-0.5,1.3l4.4,9.2c0.2,0.4,0.5,0.6,0.9,0.6
			c0.1,0,0.3,0,0.4-0.1c0.5-0.2,0.7-0.8,0.5-1.3L88.9,57z"/>
		<path class="st3" d="M97.8,63.9l-4.4-9.2c-0.2-0.5-0.8-0.7-1.3-0.5c-0.5,0.2-0.7,0.8-0.5,1.3l4.4,9.2c0.2,0.4,0.5,0.6,0.9,0.6
			c0.1,0,0.3,0,0.4-0.1C97.8,65,98,64.4,97.8,63.9z"/>
		<path class="st3" d="M61.6,51.4c0.2,0.1,0.4,0.2,0.6,0.2c0.2,0,0.3,0,0.5-0.1l30.1-17.6c0.4-0.2,0.6-0.7,0.5-1.1
			c-0.1-0.4-0.5-0.7-1-0.7h-2.1c-0.1,0-0.3,0-0.4,0.1l-26.5,11c-0.3,0.1-0.5,0.4-0.6,0.7l-1.5,6.6C61.1,50.8,61.2,51.2,61.6,51.4z
			 M64.5,44.8l19.6-8.2l-20.5,12L64.5,44.8z"/>
		<path class="st3" d="M15.8,69.8c1.6,0.8,3.3,1.2,5,1.2c1.8,0,3.6-0.4,5.2-1.3l25.2-15.1c0.4-0.3,0.6-0.8,0.4-1.3l-1.3-2.6
			c-0.2-0.5-0.8-0.7-1.3-0.5c-0.6,0.3-1.2,0.6-1.9,0.9c-1.7,0.8-3.5,1.7-5.3,1.9c-3.1,0.5-6.2,0.4-9.2-0.1c-1.3-0.2-2.5-0.7-3.8-1.1
			c-1.4-0.5-2.8-1-4.4-1.3c-2.8-0.6-5.7,0-8.2,1.5c-3,2-5,5.1-5.5,8.7C10.3,64.5,12.4,68.3,15.8,69.8z M12.8,61
			c0.4-3,2.1-5.6,4.5-7.3c1.5-0.9,3.2-1.4,4.9-1.4c0.6,0,1.2,0.1,1.9,0.2c1.4,0.2,2.7,0.7,4,1.2c1.3,0.5,2.6,1,4.1,1.2
			c3.3,0.6,6.6,0.6,9.9,0.1c2.1-0.3,4-1.2,5.9-2.1c0.3-0.1,0.6-0.3,0.9-0.4l0.4,0.9L25,68c-2.6,1.4-5.7,1.4-8.3,0
			C14,66.8,12.4,63.9,12.8,61z"/>
		<path class="st3" d="M19,66.3c0.6,0.2,1.2,0.3,1.8,0.3c1,0,2.1-0.2,3-0.7c1.6-0.7,2.8-1.9,3.5-3.4c0.7-1.5,0.7-3.2,0.1-4.6
			c-0.7-1.4-1.9-2.5-3.5-2.9c-1.6-0.5-3.3-0.3-4.9,0.4c-1.6,0.7-2.8,1.9-3.5,3.4c-0.7,1.5-0.7,3.2-0.1,4.6
			C16.2,64.8,17.4,65.8,19,66.3z M17.4,59.6c0.5-1,1.4-1.9,2.5-2.4c1.1-0.5,2.4-0.6,3.5-0.3c1,0.3,1.8,1,2.3,1.8
			c0.4,0.9,0.4,1.9-0.1,2.9c-0.5,1-1.4,1.9-2.5,2.4c-1.1,0.5-2.4,0.6-3.5,0.3c-1-0.3-1.8-1-2.3-1.8C16.9,61.6,16.9,60.6,17.4,59.6z"
			/>
		<path class="st3" d="M53.8,75.1c-1.6-0.3-3.3,0.1-4.8,1.2c-1.4,1.1-2.3,2.7-2.7,4.5c-0.8,3.8,1.3,7.5,4.7,8.1
			c0.4,0.1,0.7,0.1,1.1,0.1c3,0,5.7-2.4,6.4-5.8c0.4-1.8,0.1-3.7-0.8-5.2C56.8,76.5,55.4,75.5,53.8,75.1z M56.5,82.9
			c-0.5,2.7-2.8,4.6-5.1,4.1c-2.3-0.5-3.6-3-3.1-5.8c0.3-1.4,1-2.5,2-3.3c0.7-0.6,1.6-0.9,2.4-0.9c0.2,0,0.5,0,0.7,0.1
			c1.1,0.2,2,0.9,2.6,2C56.6,80.2,56.7,81.5,56.5,82.9z"/>
		<path class="st3" d="M48.7,69.8L48.7,69.8c0-0.1,0-0.2,0.1-0.2l0-0.1c0-0.1,0.1-0.2,0.1-0.3l0.6-2.1L13.7,84.5
			c-1.8,0.9-2.6,3.1-1.7,4.9l2.2,4.4l0,0l4,8.5c0.2,0.4,0.5,0.6,0.9,0.6c0.1,0,0.3,0,0.4-0.1c0.5-0.2,0.7-0.8,0.5-1.3l-4-8.5
			l2.8-1.3l4.1,8.5c0.2,0.4,0.5,0.6,0.9,0.6c0.1,0,0.3,0,0.4-0.1c0.5-0.2,0.7-0.8,0.5-1.3l-4.1-8.5l2.8-1.3l4.1,8.5
			c0.2,0.4,0.5,0.6,0.9,0.6c0.1,0,0.3,0,0.4-0.1c0.5-0.2,0.7-0.8,0.5-1.3l-4.1-8.6l2.8-1.3l4.1,8.6c0.2,0.4,0.5,0.6,0.9,0.6
			c0.1,0,0.3,0,0.4-0.1c0.5-0.2,0.7-0.8,0.5-1.3l-4.1-8.6l2.8-1.3l4.1,8.6c0.2,0.4,0.5,0.6,0.9,0.6c0.1,0,0.3,0,0.4-0.1
			c0.5-0.2,0.7-0.8,0.5-1.3L34.2,84l2.9-1.4l4.1,8.5c0.2,0.4,0.5,0.6,0.9,0.6c0.1,0,0.3,0,0.4-0.1c0.5-0.2,0.7-0.8,0.5-1.3l-4.1-8.6
			l5.8-2.8l0.1-0.3c0.4-0.8,0.8-1.7,1.2-2.6c0.3-0.8,0.7-1.7,1.1-2.5C47.7,72.3,48.3,71.1,48.7,69.8z M45.4,72.7
			c-0.4,0.8-0.8,1.7-1.1,2.5c-0.4,0.7-0.7,1.5-1.1,2.2L15.1,91.1l-1.3-2.6c-0.4-0.8-0.1-1.8,0.8-2.2l31.6-15.4
			C45.9,71.5,45.6,72.1,45.4,72.7z"/>
		<path class="st3" d="M61.6,70.3c-0.2-0.5-0.8-0.7-1.3-0.5c-0.5,0.2-0.7,0.8-0.5,1.3l4.4,9.2c0.2,0.4,0.5,0.6,0.9,0.6
			c0.1,0,0.3,0,0.4-0.1c0.5-0.2,0.7-0.8,0.5-1.3L61.6,70.3z"/>
		<path class="st3" d="M13.6,29.7c0.3,0.7,0.4,1.5,0.6,2.4c0.3,1.6,0.6,3.3,1.8,4.5s2.9,1.5,4.5,1.8c0.9,0.2,1.7,0.3,2.4,0.6
			c0.7,0.3,1.3,0.7,2,1.2c1.3,0.9,2.8,1.9,4.5,1.9s3.2-1,4.5-1.9c0.7-0.5,1.4-1,2-1.2c0.7-0.3,1.5-0.4,2.4-0.6
			c1.6-0.3,3.3-0.6,4.5-1.8c1.2-1.2,1.5-2.9,1.8-4.5c0.2-0.9,0.3-1.7,0.6-2.4c0.3-0.6,0.7-1.3,1.2-2c0.9-1.3,1.9-2.8,1.9-4.5
			c0-1.8-1-3.2-1.9-4.5c-0.5-0.7-1-1.4-1.2-2c-0.3-0.7-0.4-1.5-0.6-2.4c-0.3-1.6-0.6-3.3-1.8-4.5c-1.2-1.2-2.9-1.5-4.5-1.8
			c-0.9-0.2-1.7-0.3-2.4-0.6c-0.7-0.3-1.3-0.7-2-1.2c-1.3-0.9-2.8-1.9-4.5-1.9s-3.2,1-4.5,1.9c-0.7,0.5-1.4,1-2,1.2
			c-0.7,0.3-1.5,0.4-2.4,0.6c-1.6,0.3-3.3,0.6-4.5,1.8c-1.2,1.2-1.5,2.9-1.8,4.5c-0.2,0.9-0.3,1.7-0.6,2.4c-0.3,0.7-0.7,1.3-1.2,2
			c-0.9,1.3-1.9,2.8-1.9,4.5c0,1.8,1,3.2,1.9,4.5C12.8,28.3,13.3,29,13.6,29.7z M14,19.7c0.5-0.8,1.1-1.6,1.5-2.4
			c0.4-0.9,0.5-1.9,0.7-2.8c0.2-1.4,0.5-2.7,1.2-3.4c0.7-0.7,2-1,3.4-1.2c1-0.2,1.9-0.3,2.8-0.7c0.9-0.4,1.7-0.9,2.4-1.5
			c1.1-0.8,2.2-1.6,3.4-1.6c1.1,0,2.2,0.8,3.4,1.6c0.8,0.5,1.6,1.1,2.4,1.5c0.9,0.4,1.9,0.5,2.8,0.7c1.4,0.2,2.7,0.5,3.4,1.2
			c0.7,0.7,1,2,1.2,3.4c0.2,1,0.3,1.9,0.7,2.8c0.4,0.9,0.9,1.7,1.5,2.4c0.8,1.1,1.6,2.2,1.6,3.4c0,1.1-0.8,2.2-1.6,3.4
			c-0.5,0.8-1.1,1.6-1.5,2.4c-0.4,0.9-0.5,1.9-0.7,2.8c-0.2,1.4-0.5,2.7-1.2,3.4s-2,1-3.4,1.2c-1,0.2-1.9,0.3-2.8,0.7
			c-0.9,0.4-1.6,0.9-2.4,1.5c-1.1,0.8-2.2,1.6-3.4,1.6s-2.2-0.8-3.4-1.6c-0.8-0.5-1.6-1.1-2.4-1.5c-0.9-0.4-1.9-0.5-2.8-0.7
			c-1.4-0.2-2.7-0.5-3.4-1.2s-1-2-1.2-3.4c-0.2-1-0.3-1.9-0.7-2.8c-0.4-0.9-0.9-1.6-1.5-2.4c-0.8-1.2-1.6-2.2-1.6-3.4
			C12.4,22,13.2,20.9,14,19.7z"/>
		<path class="st3" d="M21.8,31.7h3.7c0,0,0,0,0,0c0.4,0,0.8-0.3,0.9-0.6c0.1-0.1,0.1-0.3,0.1-0.4c0,0,0,0,0,0v-8.9l0.6-1.1
			c0.9-1.9,1.5-3.9,1.9-5.9c0-0.1,0.1-0.1,0.2-0.1c0.6,0,1.2,0.5,1.2,1.2v4c0,0.6,0.4,1,1,1h5c0.1,0,0.1,0,0.2,0
			c0.3,0,0.6,0.2,0.7,0.4s0.2,0.5,0.2,0.8l-1,6.7c-0.1,0.6-0.6,1-1.2,1h0h-6.9c-0.6,0-1,0.4-1,1s0.4,1,1,1h6.9c0,0,0,0,0,0
			c1.6,0,2.9-1.1,3.2-2.7l1-6.7c0.1-0.8-0.1-1.7-0.6-2.3s-1.2-1.1-2-1.2c-0.2,0-0.3,0-0.5,0h-4v-3c0-1.7-1.4-3.2-3.2-3.2
			c-1.1,0-2,0.8-2.1,1.8c-0.3,1.9-0.9,3.7-1.7,5.4l-0.4,0.8h-3.1c-1.3,0-2.4,1.1-2.4,2.4v6.4C19.4,30.6,20.5,31.7,21.8,31.7z
			 M21.4,22.9c0-0.2,0.2-0.4,0.4-0.4h2.7v7.2h-2.7c-0.2,0-0.4-0.2-0.4-0.4V22.9z"/>
	</g>
</g>
</svg>
