<?xml version="1.0" encoding="utf-8"?>
<!-- Generator: Adobe Illustrator 25.1.0, SVG Export Plug-In . SVG Version: 6.00 Build 0)  -->
<svg version="1.1" id="Capa_1" xmlns="http://www.w3.org/2000/svg" xmlns:xlink="http://www.w3.org/1999/xlink" x="0px" y="0px"
	 viewBox="0 0 19.9 19.9" style="enable-background:new 0 0 19.9 19.9;" xml:space="preserve">
<path id="Trazado_529" d="M17.5,11c-0.2,0-0.5-0.1-0.7-0.1c-0.4-0.1-0.9-0.2-1.3-0.4c-1-0.3-2,0.1-2.5,1l-0.2,0.5
	c-2-1.1-3.6-2.7-4.7-4.7L8.5,7c0.9-0.4,1.3-1.5,1-2.5C9.4,4.1,9.2,3.6,9.1,3.2C9.1,3,9.1,2.7,9,2.5C8.8,1,7.5,0,6,0H3
	C1.4,0,0,1.3,0,3c0,0,0,0,0,0c0,0.1,0,0.3,0,0.4C1.1,12,7.9,18.8,16.5,19.9h0.4c1.7,0,3-1.3,3-3c0,0,0,0,0,0v-3
	C19.9,12.4,18.9,11.2,17.5,11z M18,17c0,0.3-0.1,0.6-0.3,0.8c-0.2,0.2-0.5,0.3-0.8,0.2C9.1,17,3,10.9,2.1,3.2c0-0.3,0.1-0.6,0.2-0.8
	C2.5,2.1,2.8,2,3.1,2h3c0.5,0,0.9,0.3,1,0.8c0,0.3,0.1,0.5,0.2,0.8c0.1,0.5,0.3,1,0.5,1.5L6.3,5.8C5.8,6.1,5.6,6.6,5.8,7.1
	c0,0,0,0,0,0l0,0c1.4,3.1,3.9,5.6,7,7c0.5,0.2,1.1,0,1.3-0.5l0.6-1.4c0.5,0.2,1,0.3,1.6,0.5c0.3,0.1,0.5,0.1,0.8,0.1
	c0.5,0.1,0.8,0.5,0.8,1L18,17z"/>
</svg>
