<?xml version="1.0" encoding="utf-8"?>
<!-- Generator: Adobe Illustrator 25.1.0, SVG Export Plug-In . SVG Version: 6.00 Build 0)  -->
<svg version="1.1" id="Capa_1" xmlns="http://www.w3.org/2000/svg" xmlns:xlink="http://www.w3.org/1999/xlink" x="0px" y="0px"
	 viewBox="0 0 20 16" style="enable-background:new 0 0 20 16;" xml:space="preserve">
<path d="M19,4.6c-0.6,0-1,0.4-1,1V13c0,0.6-0.4,1-1,1H3c-0.6,0-1-0.4-1-1V3.2l7.4,6C9.6,9.4,9.8,9.4,10,9.4c0.2,0,0.4-0.1,0.6-0.2
	L19,2.4c0.1-0.1,0.1-0.1,0.1-0.2l0.5-0.5C20,1.4,20.1,1,19.9,0.6C19.8,0.2,19.4,0,19,0H2.5C1.1,0,0,1.1,0,2.5V13c0,1.7,1.3,3,3,3h14
	c1.7,0,3-1.3,3-3V5.6C20,5,19.6,4.6,19,4.6z M10,7.2L3.7,2h12.7L10,7.2z"/>
</svg>
