<?xml version="1.0" encoding="utf-8"?>
<!-- Generator: Adobe Illustrator 25.1.0, SVG Export Plug-In . SVG Version: 6.00 Build 0)  -->
<svg version="1.1" id="Capa_1" xmlns="http://www.w3.org/2000/svg" xmlns:xlink="http://www.w3.org/1999/xlink" x="0px" y="0px"
	 viewBox="0 0 19.9 20" style="enable-background:new 0 0 19.9 20;" xml:space="preserve">
<path id="path4" d="M14.6,12c-0.2-0.1-1.5-0.7-1.7-0.8c-0.2-0.1-0.5-0.1-0.6,0.1c-0.2,0.2-0.6,0.8-0.8,1c-0.1,0.2-0.3,0.2-0.5,0.1
	c-0.7-0.3-1.4-0.7-2-1.2c-0.5-0.5-1-1.1-1.4-1.7C7.5,9.3,7.6,9.1,7.7,9c0.1-0.1,0.2-0.3,0.4-0.4c0.1-0.1,0.2-0.2,0.2-0.4
	c0.1-0.1,0.1-0.3,0-0.4C8,7.2,7.7,6.6,7.5,6C7.4,5.3,7.2,5.3,7,5.3H6.5c-0.2,0-0.4,0.1-0.6,0.3C5.3,6.2,5,6.9,5,7.7
	c0.1,0.9,0.4,1.8,1,2.6c1,1.6,2.5,2.9,4.2,3.7c0.4,0.2,0.9,0.4,1.4,0.5c0.5,0.2,1.1,0.2,1.6,0.1c0.7-0.1,1.3-0.6,1.7-1.2
	c0.2-0.4,0.2-0.8,0.1-1.2L14.6,12 M17.1,2.9C13.2-1,6.9-1,3,2.9c-3.2,3.2-3.8,8.1-1.6,12L0,20l5.3-1.4c1.4,0.8,3.1,1.2,4.7,1.2l0,0
	c5.4,0,9.9-4.4,9.9-9.8c0,0,0-0.1,0-0.1C19.9,7.3,18.9,4.8,17.1,2.9 M14.4,16.9c-1.3,0.8-2.8,1.3-4.4,1.3l0,0
	c-1.5,0-2.9-0.4-4.2-1.1l-0.3-0.2l-3.1,0.8l0.8-3L3,14.4C0.6,10.5,1.8,5.4,5.7,2.9c3.8-2.4,8.8-1.3,11.2,2.5c0,0,0,0.1,0.1,0.1
	C19.4,9.4,18.3,14.5,14.4,16.9C14.4,16.9,14.4,16.9,14.4,16.9"/>
</svg>
