<svg xmlns="http://www.w3.org/2000/svg" width="50.242" height="10.412" viewBox="0 0 50.242 10.412">
  <g id="Group_353" data-name="Group 353" transform="translate(-51 -765.5)">
    <g id="Group_349" data-name="Group 349" transform="translate(51 765.5)">
      <path id="Path_651" data-name="Path 651" d="M136.978,449.949l3.365,1.779-.643-3.767,2.723-2.668-3.762-.55-1.683-3.427-1.683,3.427-3.762.55,2.723,2.668-.643,3.767Z" transform="translate(-131.533 -441.316)" fill="#edcd84"/>
    </g>
    <g id="Group_350" data-name="Group 350" transform="translate(64.352 765.5)">
      <path id="Path_651-2" data-name="Path 651" d="M136.978,449.949l3.365,1.779-.643-3.767,2.723-2.668-3.762-.55-1.683-3.427-1.683,3.427-3.762.55,2.723,2.668-.643,3.767Z" transform="translate(-131.533 -441.316)" fill="#edcd84"/>
    </g>
    <g id="Group_351" data-name="Group 351" transform="translate(77 765.5)">
      <path id="Path_651-3" data-name="Path 651" d="M136.978,449.949l3.365,1.779-.643-3.767,2.723-2.668-3.762-.55-1.683-3.427-1.683,3.427-3.762.55,2.723,2.668-.643,3.767Z" transform="translate(-131.533 -441.316)" fill="#edcd84"/>
    </g>
    <g id="Group_352" data-name="Group 352" transform="translate(90.352 765.5)">
      <path id="Path_651-4" data-name="Path 651" d="M136.978,449.949l3.365,1.779-.643-3.767,2.723-2.668-3.762-.55-1.683-3.427-1.683,3.427-3.762.55,2.723,2.668-.643,3.767Z" transform="translate(-131.533 -441.316)" fill="#edcd84"/>
    </g>
  </g>
</svg>
