<?xml version="1.0" encoding="utf-8"?>
<!-- Generator: Adobe Illustrator 25.1.0, SVG Export Plug-In . SVG Version: 6.00 Build 0)  -->
<svg version="1.1" id="Capa_1" xmlns="http://www.w3.org/2000/svg" xmlns:xlink="http://www.w3.org/1999/xlink" x="0px" y="0px"
	 viewBox="0 0 40 40.5" style="enable-background:new 0 0 40 40.5;" xml:space="preserve">
<path d="M39.5,36.9L29.6,27c-0.8-0.8-2-0.8-2.8,0c2.8-2.8,4.6-6.7,4.6-11c0-8.6-7-15.6-15.6-15.6C11.3,0.3,7,2.2,4,5.6
	c-2.5,2.9-3.9,6.5-3.9,10.3c0,8.6,7,15.6,15.6,15.6c4.3,0,8.2-1.7,11-4.5c-0.8,0.8-0.7,2,0,2.8l9.9,9.9c0.4,0.4,0.9,0.6,1.4,0.6
	s1-0.2,1.4-0.6C40.3,38.9,40.3,37.7,39.5,36.9z M15.7,27.6c-6.4,0-11.6-5.2-11.6-11.6c0-2.8,1-5.6,2.9-7.7c2.2-2.5,5.4-3.9,8.7-3.9
	c6.4,0,11.6,5.2,11.6,11.6S22.2,27.6,15.7,27.6z"/>
</svg>
